<svg xmlns="http://www.w3.org/2000/svg" width="573" height="256" viewBox="0 0 573 256" fill="none">
<path d="M472.71 72.447C473.185 72.4467 473.661 72.446 474.136 72.4453C475.418 72.4439 476.703 72.4443 477.985 72.4457C479.339 72.4463 480.69 72.4457 482.044 72.445C484.315 72.4443 486.589 72.4453 488.864 72.4467C491.475 72.4488 494.087 72.4481 496.699 72.4463C498.956 72.4446 501.21 72.4443 503.467 72.4453C504.807 72.446 506.148 72.446 507.488 72.445C522.88 72.4332 522.88 72.4332 527.012 73.4181C527.277 73.4781 527.539 73.5381 527.815 73.5998C543.176 77.1863 556.318 85.4425 564.764 99.0358C567.21 103.221 569.336 107.447 570.622 112.135C570.811 112.764 570.811 112.764 571.004 113.405C574.236 124.627 573.468 137.492 569.243 148.332C569.085 148.747 568.923 149.164 568.761 149.592C563.341 162.928 552.638 173.862 539.403 179.512C534.541 181.485 529.62 182.673 524.448 183.494C524.117 183.552 523.786 183.611 523.445 183.671C521.585 183.933 519.714 183.9 517.839 183.909C517.422 183.913 517.005 183.916 516.574 183.92C515.437 183.928 514.3 183.936 513.163 183.943C511.971 183.951 510.782 183.96 509.59 183.969C507.336 183.986 505.086 184.002 502.833 184.017C500.266 184.034 497.702 184.053 495.135 184.072C489.859 184.111 484.584 184.148 479.308 184.183C478.802 185.197 478.916 186.219 478.919 187.33C478.919 187.586 478.916 187.841 478.916 188.106C478.916 188.968 478.916 189.83 478.916 190.693C478.916 191.309 478.912 191.926 478.912 192.543C478.909 193.873 478.905 195.203 478.905 196.534C478.905 198.639 478.898 200.744 478.891 202.848C478.888 203.569 478.888 204.289 478.885 205.01C478.885 205.371 478.881 205.732 478.881 206.103C478.867 211.005 478.857 215.907 478.85 220.809C478.85 224.113 478.84 227.417 478.826 230.722C478.819 232.47 478.816 234.219 478.819 235.968C478.819 237.614 478.816 239.261 478.805 240.907C478.802 241.51 478.802 242.113 478.805 242.716C478.823 246.922 478.457 250.039 475.49 253.224C473.041 255.425 469.743 256.065 466.538 255.994C463.644 255.686 460.87 254.721 458.978 252.439C457.61 250.444 456.525 248.725 456.518 246.262C456.515 245.91 456.515 245.558 456.511 245.195C456.511 244.806 456.511 244.418 456.511 244.017C456.508 243.399 456.508 243.399 456.504 242.768C456.497 241.619 456.494 240.47 456.49 239.322C456.487 238.079 456.484 236.837 456.477 235.595C456.47 233.145 456.459 230.695 456.453 228.245C456.446 226.232 456.439 224.218 456.432 222.204C456.432 221.916 456.432 221.627 456.428 221.33C456.428 220.744 456.425 220.157 456.425 219.57C456.397 212.081 456.373 204.592 456.353 197.104C456.353 196.144 456.349 195.183 456.346 194.223C456.297 176.857 456.256 159.492 456.229 142.126C456.225 139.08 456.218 136.033 456.215 132.986C456.197 124.141 456.187 115.297 456.211 106.452C456.211 106.153 456.211 105.854 456.215 105.547C456.215 105.104 456.215 105.104 456.215 104.652C456.222 102.603 456.222 100.554 456.218 98.5046C456.211 96.0842 456.218 93.6643 456.232 91.2443C456.239 90.0646 456.242 88.886 456.235 87.7064C456.232 86.4715 456.242 85.2378 456.256 84.0033C456.249 83.6555 456.246 83.3076 456.239 82.9491C456.297 80.2292 457.29 78.3915 458.978 76.2838C462.941 72.5025 467.51 72.4388 472.71 72.447ZM479.998 94.2096C479.153 95.4775 479.212 96.4255 479.222 97.8916C479.222 98.164 479.222 98.4363 479.222 98.7169C479.219 99.6322 479.222 100.548 479.226 101.463C479.226 102.118 479.222 102.773 479.222 103.428C479.222 105.209 479.222 106.991 479.226 108.772C479.229 110.633 479.229 112.494 479.229 114.355C479.229 117.479 479.233 120.604 479.236 123.729C479.243 127.346 479.246 130.964 479.243 134.582C479.243 138.056 479.246 141.531 479.25 145.005C479.25 146.487 479.25 147.968 479.25 149.45C479.25 151.192 479.253 152.934 479.257 154.677C479.257 155.318 479.257 155.959 479.257 156.601C479.257 157.472 479.26 158.344 479.264 159.216C479.26 159.473 479.26 159.73 479.26 159.995C479.164 161.157 479.164 161.157 479.653 162.121C480.184 162.155 480.718 162.166 481.252 162.167C481.772 162.169 481.772 162.169 482.299 162.171C482.682 162.171 483.064 162.171 483.461 162.171C484.06 162.172 484.06 162.172 484.673 162.174C485.776 162.177 486.879 162.178 487.981 162.178C488.674 162.179 489.363 162.179 490.052 162.18C492.464 162.183 494.873 162.185 497.285 162.185C499.525 162.185 501.765 162.188 504.008 162.193C505.934 162.198 507.86 162.2 509.786 162.2C510.937 162.199 512.085 162.201 513.236 162.204C514.521 162.208 515.81 162.207 517.095 162.205C517.47 162.206 517.846 162.208 518.232 162.21C525.775 162.18 533.614 159.283 539.265 154.192C539.265 153.965 539.265 153.737 539.265 153.503C539.461 153.415 539.661 153.327 539.865 153.237C544.861 150.514 548.128 143.516 549.675 138.359C552.345 128.955 551.253 119.382 546.505 110.848C541.512 102.738 533.859 97.257 524.669 94.8439C522.184 94.2699 519.869 94.1565 517.326 94.1541C516.926 94.1524 516.523 94.1507 516.109 94.1489C514.779 94.1438 513.453 94.1414 512.123 94.1396C511.433 94.1379 510.744 94.1365 510.055 94.1352C508.139 94.131 506.22 94.1283 504.301 94.1272C501.823 94.1255 499.342 94.1196 496.861 94.1096C494.942 94.1021 493.023 94.0986 491.103 94.0983C489.956 94.0979 488.812 94.0952 487.664 94.0897C486.389 94.0838 485.115 94.0845 483.84 94.0865C483.457 94.0834 483.078 94.0803 482.685 94.0769C482.165 94.08 482.165 94.08 481.638 94.0828C481.334 94.0824 481.035 94.0817 480.721 94.0814C480.363 94.1448 480.363 94.1448 479.998 94.2096Z" fill="white"/>
<path d="M131.629 35.9508C132.855 36.1959 133.597 36.3549 134.665 36.8557C135.642 37.3073 136.619 37.7434 137.613 38.1564C146.127 41.6992 153.816 46.647 160.918 52.4977C161.109 52.6532 161.3 52.8087 161.497 52.9693C166.334 56.9264 170.903 61.3134 174.701 66.2868C175.05 66.7294 175.399 67.172 175.748 67.6143C188.662 84.0857 195.775 103.678 196.797 124.58C196.811 124.866 196.826 125.152 196.84 125.446C197.269 134.284 197.188 143.137 197.17 151.983C197.165 154.552 197.164 157.122 197.164 159.691C197.162 164.27 197.157 168.849 197.151 173.428C197.144 177.865 197.139 182.302 197.137 186.739C197.136 187.014 197.136 187.29 197.136 187.573C197.135 188.956 197.134 190.338 197.134 191.72C197.126 203.112 197.114 214.504 197.099 225.895C188.664 225.903 180.23 225.909 171.795 225.913C167.879 225.915 163.963 225.917 160.047 225.921C156.635 225.924 153.223 225.927 149.811 225.928C148.003 225.928 146.196 225.929 144.388 225.932C142.688 225.934 140.989 225.934 139.289 225.934C138.663 225.934 138.038 225.935 137.413 225.936C136.562 225.938 135.711 225.938 134.86 225.937C134.61 225.938 134.36 225.939 134.103 225.94C132.397 225.934 132.397 225.934 131.629 225.55C131.584 213.923 131.54 202.296 131.497 190.668C131.492 189.265 131.487 187.862 131.482 186.459C131.48 186.041 131.48 186.041 131.479 185.614C131.464 181.753 131.45 177.892 131.435 174.031C131.409 167.336 131.384 160.641 131.36 153.946C131.358 153.548 131.358 153.548 131.357 153.143C131.275 130.051 131.264 106.96 131.284 83.8678C132.457 84.1257 133.032 84.4442 133.906 85.2802C134.137 85.4984 134.367 85.7162 134.604 85.941C134.845 86.174 135.085 86.4071 135.333 86.647C135.581 86.8845 135.829 87.122 136.085 87.3668C136.572 87.8336 137.057 88.3014 137.542 88.7705C138.033 89.2456 138.53 89.7147 139.029 90.1818C145.567 96.4131 149.808 105.172 152.261 113.751C152.359 114.095 152.458 114.439 152.56 114.792C154.042 120.258 154.117 125.568 154.073 131.19C154.07 131.989 154.066 132.788 154.063 133.587C154.054 135.741 154.041 137.895 154.027 140.049C154.013 142.306 154.003 144.563 153.992 146.819C153.974 150.602 153.954 154.385 153.931 158.168C153.908 162.062 153.887 165.956 153.867 169.85C153.866 170.09 153.865 170.331 153.863 170.579C153.857 171.786 153.851 172.994 153.845 174.201C153.795 184.193 153.74 194.185 153.682 204.177C160.618 204.064 167.555 203.95 174.701 203.833C174.728 195.544 174.721 187.26 174.624 178.972C174.619 178.49 174.619 178.49 174.613 177.998C174.577 174.943 174.541 171.889 174.503 168.835C174.406 160.912 174.343 152.993 174.37 145.07C174.372 144.352 174.374 143.634 174.376 142.916C174.393 137.381 174.393 137.381 174.415 134.657C174.559 116.651 171.775 98.9713 160.573 84.2125C160.308 83.8558 160.042 83.499 159.769 83.1311C158.183 81.0207 156.533 79.0068 154.743 77.0646C154.089 76.3521 153.465 75.6227 152.842 74.8832C147.148 68.381 139.287 63.5676 131.629 59.737C131.629 51.8875 131.629 44.0381 131.629 35.9508Z" fill="white"/>
<path d="M97.9677 30.0473C98.404 30.0485 98.8399 30.0497 99.2888 30.0509C108.004 30.099 108.004 30.099 109.92 31.1246C110.183 35.8747 110.316 40.6229 110.345 45.3801C110.349 45.9603 110.355 46.5405 110.363 47.1207C110.373 47.9425 110.376 48.7643 110.378 49.5865C110.385 49.9602 110.385 49.9602 110.391 50.3414C110.388 51.035 110.388 51.035 110.265 52.153C108.942 53.0358 108.133 52.7687 106.647 52.5408C89.5018 50.3235 70.6485 54.9115 56.5108 64.9079C56.1097 65.183 55.7087 65.4574 55.3076 65.7318C48.5121 70.428 42.4183 76.1401 37.559 82.8336C37.3037 83.177 37.0484 83.5207 36.7851 83.8744C27.6161 96.612 22.6768 111.677 22.6783 127.349C22.6776 128.199 22.6713 129.05 22.6648 129.901C22.6053 146.321 28.4358 162.366 38.5928 175.22C38.8443 175.539 39.0955 175.857 39.3546 176.185C41.9741 179.44 44.6842 182.538 47.8964 185.217C48.2175 185.5 48.5387 185.783 48.8695 186.074C55.5732 191.949 63.3294 196.57 71.6723 199.696C71.9507 199.802 72.2295 199.908 72.5165 200.017C82.8845 203.908 93.9413 205.089 104.933 204.254C106.597 204.147 108.254 204.146 109.92 204.177C110.292 205.292 110.295 206.057 110.273 207.228C110.266 207.642 110.259 208.056 110.252 208.482C110.242 208.929 110.233 209.377 110.223 209.837C110.215 210.299 110.207 210.762 110.199 211.224C110.177 212.439 110.153 213.655 110.129 214.871C110.104 216.111 110.082 217.352 110.06 218.593C110.015 221.027 109.969 223.461 109.92 225.895C106.005 226.326 102.127 226.712 98.1834 226.692C97.7631 226.69 97.3427 226.689 96.9095 226.687C74.2704 226.403 51.4962 217.698 34.4578 202.798C34.1842 202.56 34.1842 202.56 33.905 202.316C32.6838 201.241 31.495 200.134 30.3229 199.006C30.1265 198.818 29.9301 198.629 29.7278 198.434C27.0961 195.886 24.6553 193.279 22.3976 190.388C22.0731 189.995 22.0731 189.995 21.7421 189.594C9.01741 174.13 1.86975 154.763 0.344573 134.887C0.320976 134.589 0.297379 134.292 0.273067 133.985C-0.596965 122.288 1.09901 110.442 4.54337 99.2599C4.82644 98.3387 5.09645 97.4142 5.36653 96.4893C5.71111 95.3414 6.09132 94.2575 6.6116 93.1754C7.15231 92.0292 7.68234 90.8813 8.18373 89.7175C11.5706 81.8739 15.7467 74.7398 21.0193 68.0104C21.2538 67.7091 21.4883 67.4078 21.73 67.0972C23.9814 64.2736 26.4506 61.6557 28.9446 59.0475C29.1122 58.8717 29.2799 58.6959 29.4527 58.5146C31.295 56.5924 31.295 56.5924 32.0458 55.945C32.2732 55.945 32.5006 55.945 32.7349 55.945C32.7349 55.7175 32.7349 55.4899 32.7349 55.2555C33.7545 54.3082 34.8631 53.4681 35.955 52.6063C36.5112 52.164 37.0604 51.7145 37.609 51.2629C54.3865 37.5714 76.3613 29.9639 97.9677 30.0473Z" fill="white"/>
<path d="M330.834 72.485C331.267 72.4887 331.267 72.4887 331.708 72.4922C333.228 72.5049 334.749 72.5201 336.269 72.5374C337.83 72.5546 339.391 72.5636 340.952 72.5704C342.163 72.5777 343.374 72.5908 344.585 72.6053C345.161 72.6111 345.736 72.6149 346.312 72.6163C350.481 72.629 353.558 73.0303 356.711 75.9646C359.106 78.5435 359.912 81.2862 359.847 84.77C359.595 87.5102 358.613 89.8785 356.697 91.8706C352.672 95.1817 347.893 95.3427 342.921 95.3489C342.075 95.3503 341.23 95.3558 340.384 95.3631C337.983 95.3817 335.582 95.3927 333.181 95.401C331.704 95.4065 330.227 95.4172 328.75 95.4303C328.194 95.4341 327.637 95.4361 327.08 95.4365C322.504 95.4368 318.246 95.9081 313.997 97.7644C313.749 97.8706 313.501 97.9768 313.246 98.0861C304.423 101.944 298.627 108.985 295.026 117.752C292.254 124.959 292.567 133.35 295.648 140.403C298.919 147.603 302.863 152.987 309.776 156.95C310.274 157.242 310.274 157.242 310.783 157.54C316.646 160.732 323.366 161.534 329.939 161.515C330.81 161.513 331.681 161.516 332.552 161.521C335.026 161.534 337.499 161.541 339.973 161.536C341.495 161.534 343.017 161.541 344.539 161.552C345.116 161.555 345.691 161.555 346.263 161.551C350.033 161.527 352.817 161.872 355.88 164.25C358.654 167.11 359.878 169.651 359.833 173.673C359.588 176.832 358.303 179.323 355.949 181.425C353.551 183.245 351.298 183.943 348.279 183.933C347.862 183.936 347.862 183.936 347.435 183.938C346.518 183.943 345.602 183.943 344.682 183.942C344.038 183.944 343.393 183.945 342.749 183.947C341.395 183.949 340.041 183.949 338.687 183.947C336.972 183.945 335.257 183.951 333.542 183.959C332.207 183.964 330.873 183.964 329.538 183.963C328.907 183.964 328.276 183.965 327.645 183.969C322.006 183.996 316.384 183.522 310.961 181.878C310.665 181.79 310.37 181.703 310.065 181.613C301.075 178.861 293.428 174.145 286.689 167.636C286.417 167.382 286.145 167.128 285.865 166.866C281.815 162.984 278.991 158.407 276.352 153.503C276.23 153.278 276.109 153.053 275.984 152.821C272.975 147.133 271.655 140.876 270.839 134.543C270.774 134.096 270.711 133.648 270.645 133.188C269.426 123.24 271.333 112.144 276.338 103.455C276.72 102.787 277.08 102.109 277.438 101.429C279.695 97.1963 282.504 93.0458 286 89.7282C286.172 89.5558 286.345 89.5558 286.517 89.3834C286.709 89.1907 286.859 89.33 286.946 89.1249C291.157 81.565 304.133 76.7692 311.912 74.4806C318.173 72.7266 324.372 72.4239 330.834 72.485Z" fill="white"/>
<path d="M391.827 2.35341C394.518 4.58586 396.313 6.96754 396.954 10.441C397.144 12.6225 397.095 14.8196 397.085 17.0072C397.085 17.6786 397.089 18.35 397.092 19.0215C397.095 20.8615 397.092 22.7015 397.089 24.5416C397.089 26.528 397.092 28.5144 397.092 30.5007C397.099 34.3902 397.095 38.2798 397.095 42.169C397.092 45.3305 397.092 48.492 397.092 51.6531C397.092 52.1033 397.092 52.5532 397.092 53.0169C397.092 53.9311 397.092 54.8453 397.095 55.7595C397.095 64.0874 397.095 72.4153 397.089 80.7429C397.085 88.3413 397.085 95.9394 397.089 103.538C397.095 112.079 397.095 120.62 397.092 129.161C397.092 130.072 397.092 130.983 397.092 131.894C397.092 132.342 397.092 132.79 397.092 133.252C397.092 136.409 397.092 139.566 397.095 142.723C397.099 146.571 397.099 150.419 397.092 154.268C397.089 156.23 397.089 158.193 397.092 160.156C397.095 161.954 397.092 163.752 397.089 165.55C397.085 166.2 397.085 166.849 397.089 167.498C397.106 171.801 396.985 175.652 394.542 179.357C394.356 179.648 394.173 179.94 393.984 180.24C391.989 182.287 389.284 183.682 386.438 183.954C382.082 184 379.133 183.062 375.935 180.047C373.55 177.319 373.123 174.56 373.133 171.037C373.133 170.759 373.133 170.481 373.133 170.195C373.13 169.261 373.13 168.328 373.133 167.395C373.13 166.72 373.13 166.044 373.13 165.369C373.127 163.512 373.127 161.655 373.127 159.798C373.127 157.796 373.127 155.794 373.123 153.792C373.123 149.869 373.12 145.946 373.12 142.023C373.12 138.835 373.12 135.647 373.12 132.459C373.12 131.541 373.12 130.624 373.116 129.706C373.116 129.478 373.116 129.25 373.116 129.015C373.116 122.598 373.113 116.182 373.113 109.765C373.113 109.523 373.113 109.281 373.113 109.032C373.113 107.806 373.113 106.58 373.113 105.354C373.113 105.11 373.113 104.867 373.113 104.616C373.113 104.123 373.113 103.631 373.113 103.138C373.116 95.4758 373.113 87.8129 373.106 80.1503C373.102 71.5414 373.099 62.9329 373.099 54.3244C373.099 49.7661 373.099 45.2078 373.096 40.6495C373.092 36.7692 373.092 32.8886 373.092 29.0081C373.096 27.0277 373.096 25.0474 373.092 23.067C373.089 21.2545 373.089 19.442 373.092 17.6295C373.092 16.9735 373.092 16.3174 373.089 15.6614C373.089 14.7699 373.089 13.8786 373.092 12.9871C373.092 12.7323 373.089 12.4774 373.089 12.2148C373.109 8.99553 373.964 5.89948 376.259 3.55189C380.714 -0.178754 386.979 -1.16103 391.827 2.35341Z" fill="white"/>
<path d="M106.432 73.2889C106.701 73.3295 106.972 73.3702 107.25 73.4119C109.478 73.8021 109.478 73.8022 110.265 74.9049C110.389 75.8405 110.389 75.8405 110.383 76.9843C110.382 77.4121 110.382 77.8399 110.382 78.2808C110.377 78.7476 110.372 79.2144 110.366 79.6811C110.364 80.1589 110.363 80.6367 110.362 81.1145C110.358 82.3707 110.347 83.6272 110.336 84.8837C110.325 86.1661 110.321 87.4485 110.315 88.7309C110.304 91.2467 110.287 93.7622 110.265 96.278C109.185 96.8178 108.421 96.3266 107.293 95.9763C99.2182 93.4705 90.1692 94.9211 82.7636 98.7772C80.3246 100.097 78.1876 101.624 76.1518 103.517C75.851 103.794 75.5505 104.072 75.2404 104.357C68.8895 110.454 65.4433 118.945 65.0963 127.692C64.9633 135.798 67.6359 143.984 73.0506 150.055C73.3876 150.472 73.3876 150.472 73.7318 150.897C78.8809 157.061 86.7017 160.911 94.6484 161.712C99.9398 162.135 104.833 161.553 109.92 160.052C110.537 160.669 110.312 161.586 110.315 162.419C110.317 162.852 110.319 163.284 110.322 163.73C110.322 164.206 110.323 164.681 110.323 165.157C110.324 165.642 110.325 166.127 110.326 166.611C110.328 167.629 110.329 168.646 110.329 169.664C110.329 170.97 110.334 172.275 110.339 173.581C110.343 174.583 110.344 175.584 110.344 176.586C110.344 177.067 110.346 177.549 110.348 178.031C110.352 178.703 110.351 179.376 110.349 180.048C110.349 180.432 110.35 180.815 110.35 181.21C110.265 182.115 110.265 182.115 109.576 182.804C108.215 183.134 106.827 183.302 105.441 183.494C105.174 183.533 104.907 183.573 104.632 183.613C90.8202 185.344 76.0346 181.032 65.035 172.586C53.5268 163.583 45.4426 150.963 43.5271 136.289C41.7815 121.435 45.1325 106.73 54.3279 94.7812C55.3879 93.4647 56.5381 92.2347 57.702 91.0102C58.3051 90.3652 58.8843 89.6975 59.4425 89.0132C60.806 87.4116 62.441 86.1951 64.0916 84.902C64.5726 84.5159 64.5726 84.5159 65.0633 84.1222C72.8731 78.023 81.9707 74.7591 91.6578 73.1813C92.042 73.1141 92.4262 73.0472 92.8221 72.9779C97.2968 72.4708 101.985 72.6015 106.432 73.2889Z" fill="white"/>
<path d="M433.538 75.5458C435.65 77.8006 436.963 80.6522 436.97 83.7579C436.973 84.0826 436.973 84.4073 436.977 84.742C436.977 85.0978 436.977 85.4536 436.977 85.8204C436.977 86.1992 436.977 86.5781 436.98 86.9683C436.984 88.2421 436.984 89.5162 436.987 90.7899C436.987 91.7017 436.991 92.6132 436.994 93.525C437.001 96.2638 437.004 99.0027 437.008 101.742C437.008 103.032 437.011 104.323 437.011 105.613C437.018 109.904 437.022 114.195 437.025 118.486C437.025 119.599 437.025 120.712 437.029 121.825C437.029 122.102 437.029 122.379 437.029 122.664C437.029 127.144 437.039 131.625 437.049 136.105C437.063 140.707 437.067 145.309 437.07 149.912C437.07 152.495 437.073 155.078 437.08 157.661C437.091 159.861 437.091 162.061 437.087 164.261C437.087 165.383 437.087 166.504 437.094 167.626C437.101 168.845 437.098 170.063 437.094 171.281C437.098 171.633 437.101 171.984 437.104 172.346C437.073 175.84 435.978 178.546 433.579 181.087C430.499 183.751 427.053 184.111 423.142 183.839C420.516 183.298 418.301 182.143 416.595 180.047C415.224 177.761 414.142 175.608 414.138 172.917C414.135 172.592 414.135 172.267 414.131 171.933C414.131 171.577 414.131 171.221 414.131 170.855C414.131 170.476 414.131 170.097 414.128 169.707C414.124 168.433 414.124 167.159 414.121 165.885C414.121 164.973 414.118 164.062 414.114 163.15C414.107 160.411 414.104 157.672 414.1 154.934C414.1 153.643 414.097 152.353 414.097 151.062C414.09 146.771 414.087 142.48 414.083 138.189C414.083 137.076 414.083 135.963 414.08 134.85C414.08 134.573 414.08 134.296 414.08 134.011C414.08 129.531 414.069 125.051 414.059 120.57C414.045 115.968 414.042 111.366 414.038 106.764C414.038 104.18 414.035 101.597 414.028 99.0144C414.018 96.814 414.018 94.614 414.021 92.4139C414.021 91.2922 414.021 90.1705 414.014 89.0487C414.007 87.8304 414.011 86.6122 414.014 85.3936C414.011 85.0423 414.007 84.691 414.004 84.3294C414.031 81.2576 414.838 78.4498 416.978 76.168C421.915 71.8193 428.304 71.0561 433.538 75.5458Z" fill="white"/>
<path d="M234.313 30.0904C235.166 30.2611 235.166 30.2611 236.036 30.4351C236.054 49.027 236.07 67.6191 236.08 86.2109C236.08 86.6236 236.08 86.6236 236.08 87.0441C236.083 93.0193 236.086 98.9944 236.089 104.97C236.09 107.899 236.092 110.83 236.093 113.759C236.093 114.051 236.093 114.343 236.093 114.643C236.098 124.102 236.105 133.56 236.115 143.019C236.125 152.735 236.131 162.451 236.133 172.168C236.134 173.538 236.134 174.909 236.134 176.28C236.134 176.55 236.134 176.82 236.134 177.098C236.136 181.45 236.141 185.801 236.146 190.153C236.153 194.522 236.155 198.892 236.154 203.262C236.153 205.632 236.154 208.001 236.159 210.371C236.164 212.537 236.165 214.703 236.161 216.869C236.16 217.655 236.162 218.443 236.165 219.23C236.169 220.292 236.167 221.355 236.163 222.418C236.166 222.73 236.169 223.041 236.172 223.361C236.165 224.214 236.165 224.214 236.036 225.55C235.695 225.778 235.354 226.005 235.002 226.24C234.775 226.126 234.548 226.012 234.313 225.895C234.313 161.28 234.313 96.6641 234.313 30.0904Z" fill="white"/>
<path d="M131.284 83.8678C132.457 84.1257 133.032 84.4442 133.906 85.2802C134.137 85.4984 134.367 85.7169 134.605 85.9417C134.845 86.1744 135.085 86.4071 135.333 86.647C135.58 86.8828 135.827 87.1186 136.081 87.3613C136.781 88.0328 137.479 88.7078 138.176 89.3834C138.482 89.6747 138.787 89.9664 139.102 90.2666C140.368 91.4952 141.402 92.6945 142.311 94.2096C141.053 93.6922 140.37 92.9724 139.489 91.9472C137.245 89.3921 134.903 87.1182 132.318 84.902C132.318 131.202 132.318 177.502 132.318 225.206C153.355 225.206 174.391 225.206 196.065 225.206C196.065 225.319 196.065 225.433 196.065 225.55C194.371 225.826 192.761 225.938 191.039 225.939C190.787 225.939 190.535 225.94 190.275 225.941C189.437 225.942 188.598 225.941 187.76 225.94C187.156 225.94 186.553 225.941 185.949 225.942C184.315 225.943 182.68 225.942 181.046 225.941C179.335 225.941 177.625 225.941 175.914 225.942C173.044 225.942 170.174 225.942 167.304 225.94C163.982 225.938 160.661 225.939 157.34 225.941C154.488 225.942 151.637 225.942 148.786 225.942C147.083 225.941 145.379 225.941 143.676 225.942C142.077 225.943 140.477 225.942 138.878 225.94C138.29 225.94 137.702 225.94 137.114 225.941C136.313 225.942 135.513 225.941 134.713 225.939C134.04 225.939 134.04 225.939 133.354 225.939C132.318 225.895 132.318 225.895 131.629 225.55C131.584 213.923 131.54 202.296 131.497 190.668C131.492 189.265 131.487 187.862 131.482 186.459C131.48 186.041 131.48 186.041 131.479 185.614C131.464 181.753 131.45 177.892 131.435 174.031C131.409 167.336 131.384 160.641 131.36 153.946C131.358 153.548 131.358 153.548 131.357 153.143C131.275 130.051 131.264 106.96 131.284 83.8678Z" fill="white"/>
<path d="M393.853 4.58066C395.824 6.11441 396.424 8.04568 396.954 10.441C397.199 12.6467 397.14 14.8744 397.126 17.0901C397.13 17.7621 397.13 18.4341 397.133 19.1062C397.137 20.9447 397.133 22.7831 397.13 24.6216C397.126 26.6075 397.13 28.5934 397.133 30.5793C397.137 34.4664 397.133 38.3536 397.13 42.2404C397.123 46.7684 397.126 51.2963 397.126 55.8243C397.13 64.1477 397.123 72.4708 397.113 80.7942C397.106 88.3882 397.106 95.9819 397.109 103.575C397.109 105.52 397.109 107.465 397.109 109.41C397.109 109.65 397.109 109.889 397.109 110.136C397.113 116.487 397.113 122.838 397.106 129.189C397.106 130.099 397.106 131.01 397.106 131.921C397.106 132.368 397.106 132.817 397.106 133.278C397.102 136.433 397.106 139.589 397.106 142.744C397.106 146.59 397.106 150.435 397.099 154.281C397.095 156.242 397.092 158.204 397.095 160.166C397.099 161.962 397.095 163.759 397.089 165.555C397.089 166.204 397.089 166.853 397.092 167.503C397.106 171.803 396.985 175.653 394.542 179.357C394.356 179.648 394.173 179.94 393.984 180.24C391.989 182.287 389.284 183.682 386.438 183.954C383.75 183.982 381.386 183.89 379.036 182.46C378.922 182.232 378.809 182.005 378.692 181.77C378.878 181.843 379.06 181.916 379.253 181.992C381.259 182.73 383.002 182.964 385.132 182.934C385.552 182.939 385.552 182.939 385.983 182.946C387.74 182.937 388.85 182.652 390.407 181.77C390.748 181.77 391.089 181.77 391.441 181.77C391.555 181.429 391.668 181.088 391.785 180.736C392.202 180.576 392.202 180.576 392.626 180.413C393.701 179.966 393.739 179.7 394.198 178.668C394.315 178.44 394.432 178.213 394.556 177.978C394.67 177.751 394.787 177.523 394.907 177.289C395.025 177.061 395.145 176.834 395.266 176.599C395.976 175.02 395.969 173.501 395.965 171.791C395.969 171.511 395.969 171.232 395.969 170.944C395.972 170.002 395.972 169.059 395.972 168.117C395.972 167.437 395.972 166.757 395.976 166.077C395.979 164.203 395.979 162.33 395.979 160.456C395.982 158.437 395.986 156.419 395.989 154.4C395.996 149.753 396 145.106 396 140.459C396.003 138.163 396.003 135.866 396.007 133.57C396.013 125.71 396.017 117.85 396.02 109.99C396.02 109.497 396.02 109.003 396.02 108.51C396.02 108.265 396.02 108.02 396.02 107.768C396.02 106.528 396.02 105.288 396.024 104.049C396.024 103.803 396.024 103.557 396.024 103.303C396.024 95.3251 396.034 87.3471 396.044 79.3695C396.055 70.9351 396.062 62.5006 396.065 54.0666C396.065 53.1406 396.065 52.2147 396.065 51.2888C396.065 51.0609 396.065 50.8327 396.065 50.5979C396.065 47.1562 396.069 43.7148 396.075 40.273C396.086 36.358 396.086 32.4431 396.082 28.5282C396.082 26.5303 396.082 24.5325 396.089 22.5347C396.096 20.7057 396.096 18.8768 396.089 17.0478C396.089 16.3862 396.089 15.7246 396.096 15.063C396.175 10.4959 396.175 10.4959 394.542 6.30429C394.308 5.73139 394.077 5.15773 393.853 4.58066Z" fill="white"/>
<path d="M386.141 0.206949C386.469 0.234056 386.793 0.261162 387.127 0.28909C387.995 0.443949 387.995 0.443949 389.029 1.1334C388.819 1.13482 388.605 1.13624 388.388 1.13769C382.899 1.05033 382.899 1.05033 378.002 3.20176C377.682 3.40084 377.361 3.59991 377.034 3.80502C375.621 5.25687 374.45 7.00246 374.45 9.08365C374.484 9.41782 374.519 9.752 374.557 10.0963C374.784 9.755 375.011 9.41372 375.246 9.0621C375.246 9.28962 375.246 9.51714 375.246 9.75155C375.701 9.75155 376.155 9.75155 376.624 9.75155C376.738 10.6616 376.851 11.5717 376.969 12.5094C377.31 12.5094 377.651 12.5094 378.002 12.5094C378.002 12.9644 378.002 13.4194 378.002 13.8883C377.093 13.8883 376.183 13.8883 375.246 13.8883C375.246 17.6423 375.246 21.3964 375.246 25.2642C375.132 25.2642 375.018 25.2642 374.901 25.2642C374.732 18.0974 374.732 18.0974 374.557 10.7857C374.329 10.7857 374.102 10.7857 373.867 10.7857C373.867 59.8163 373.867 108.847 373.867 159.363C373.754 159.363 373.64 159.363 373.523 159.363C373.271 154.989 373.127 150.634 373.133 146.253C373.13 145.661 373.13 145.07 373.13 144.479C373.127 142.877 373.127 141.274 373.127 139.672C373.127 137.935 373.127 136.199 373.123 134.463C373.123 131.071 373.12 127.679 373.12 124.287C373.12 121.531 373.12 118.774 373.12 116.018C373.116 108.194 373.113 100.37 373.113 92.5467C373.113 92.1257 373.113 91.7052 373.113 91.2719C373.113 90.8506 373.113 90.4293 373.113 89.9957C373.116 83.1553 373.113 76.3152 373.106 69.4751C373.102 62.4427 373.099 55.4103 373.099 48.3782C373.099 44.4335 373.099 40.4885 373.096 36.5438C373.092 33.1896 373.092 29.8353 373.092 26.481C373.096 24.7701 373.096 23.0592 373.092 21.3483C373.089 19.7822 373.089 18.2161 373.092 16.65C373.092 16.0837 373.092 15.5173 373.089 14.951C373.089 14.1806 373.089 13.4103 373.092 12.6398C373.092 12.2121 373.092 11.7844 373.092 11.3438C373.295 8.4155 374.178 5.68027 376.259 3.55189C379.005 1.25346 382.547 -0.124952 386.141 0.206949Z" fill="white"/>
<path d="M459.667 75.5944C459.895 75.7081 460.122 75.8219 460.357 75.9391C460.215 76.118 460.074 76.2973 459.929 76.4817C459.743 76.722 459.557 76.9626 459.364 77.2101C459.182 77.4463 458.999 77.6821 458.809 77.9254C457.645 79.6535 457.5 81.1979 457.514 83.2425C457.51 83.5265 457.51 83.8106 457.51 84.1033C457.507 85.0595 457.507 86.0158 457.51 86.9717C457.51 87.6626 457.507 88.3534 457.507 89.0442C457.503 90.9461 457.503 92.8476 457.503 94.7491C457.507 96.7989 457.503 98.8486 457.5 100.898C457.497 104.915 457.497 108.932 457.497 112.948C457.497 116.212 457.497 119.476 457.493 122.74C457.493 123.209 457.493 123.678 457.493 124.146C457.493 124.852 457.493 125.559 457.493 126.265C457.49 132.833 457.49 139.401 457.49 145.969C457.49 146.217 457.49 146.465 457.49 146.72C457.49 147.975 457.49 149.231 457.49 150.486C457.49 150.735 457.49 150.985 457.49 151.242C457.49 151.746 457.49 152.25 457.49 152.754C457.493 160.599 457.49 168.445 457.483 176.291C457.476 185.103 457.472 193.915 457.476 202.728C457.476 203.667 457.476 204.607 457.476 205.546C457.476 205.777 457.476 206.009 457.476 206.247C457.476 209.741 457.472 213.234 457.469 216.728C457.466 220.701 457.466 224.674 457.469 228.646C457.472 230.674 457.472 232.702 457.469 234.73C457.462 236.585 457.466 238.441 457.469 240.296C457.469 240.968 457.469 241.641 457.466 242.312C457.462 243.225 457.466 244.137 457.472 245.049C457.469 245.311 457.466 245.573 457.462 245.843C457.49 248.418 458.313 250.162 460.012 252.094C459.898 252.322 459.785 252.549 459.667 252.784C457.91 251.35 456.773 249.206 456.404 246.98C456.342 245.893 456.335 244.816 456.342 243.727C456.339 243.313 456.339 242.898 456.335 242.471C456.328 241.328 456.328 240.185 456.332 239.041C456.335 237.801 456.328 236.56 456.322 235.32C456.311 232.878 456.308 230.437 456.311 227.996C456.311 225.112 456.304 222.228 456.294 219.344C456.277 213.479 456.27 207.613 456.266 201.748C456.266 197.283 456.26 192.818 456.253 188.352C456.253 187.716 456.253 187.08 456.249 186.444C456.249 186.129 456.249 185.814 456.249 185.49C456.249 185.175 456.249 184.86 456.249 184.536C456.246 184.222 456.246 183.907 456.246 183.583C456.228 171.764 456.222 159.946 456.222 148.128C456.222 140.925 456.218 133.722 456.208 126.519C456.197 119.831 456.197 113.143 456.215 106.455C456.215 106.156 456.215 105.857 456.215 105.549C456.215 105.254 456.218 104.959 456.218 104.654C456.222 102.604 456.222 100.554 456.218 98.5039C456.211 96.0839 456.218 93.6643 456.232 91.2443C456.239 90.0646 456.242 88.886 456.235 87.7064C456.232 86.4715 456.242 85.2378 456.256 84.0033C456.249 83.6555 456.246 83.3076 456.239 82.9491C456.301 79.9772 457.572 77.6893 459.667 75.5944Z" fill="white"/>
<path d="M560.973 161.776C560.973 164.159 558.02 166.496 556.428 168.153C547.562 176.777 536.522 181.494 524.448 183.494C524.117 183.552 523.787 183.611 523.445 183.672C521.585 183.933 519.714 183.9 517.839 183.909C517.215 183.914 517.215 183.914 516.574 183.92C515.437 183.928 514.3 183.936 513.163 183.943C511.971 183.951 510.782 183.96 509.59 183.969C507.336 183.986 505.086 184.002 502.833 184.017C500.266 184.034 497.702 184.053 495.135 184.072C489.859 184.111 484.584 184.148 479.308 184.183C478.802 185.197 478.916 186.219 478.919 187.33C478.919 187.586 478.916 187.841 478.916 188.106C478.916 188.968 478.916 189.83 478.916 190.693C478.916 191.309 478.912 191.926 478.912 192.543C478.909 193.873 478.905 195.203 478.905 196.534C478.905 198.639 478.898 200.744 478.891 202.848C478.888 203.569 478.888 204.289 478.885 205.01C478.885 205.371 478.881 205.732 478.881 206.103C478.867 211.005 478.857 215.907 478.85 220.809C478.85 224.113 478.84 227.417 478.826 230.722C478.819 232.47 478.816 234.219 478.819 235.968C478.819 237.614 478.816 239.261 478.805 240.907C478.802 241.51 478.802 242.113 478.805 242.716C478.823 246.922 478.457 250.039 475.49 253.224C473.041 255.425 469.746 256.063 466.542 255.995C464.264 255.751 462.083 255.202 460.443 253.559C460.229 253.175 460.229 253.175 460.012 252.784C460.198 252.883 460.381 252.983 460.57 253.085C461.511 253.531 462.469 253.847 463.458 254.163C463.458 254.39 463.458 254.618 463.458 254.852C467.558 255.029 471.834 255.189 475.215 252.46C477.237 250.464 477.999 248.133 478.023 245.3C478.023 245.061 478.02 244.821 478.02 244.574C478.02 244.314 478.023 244.053 478.023 243.785C478.027 242.917 478.027 242.05 478.023 241.182C478.027 240.558 478.027 239.934 478.03 239.31C478.033 237.969 478.033 236.628 478.033 235.287C478.037 233.168 478.04 231.049 478.051 228.93C478.064 223.67 478.078 218.409 478.085 213.149C478.089 209.056 478.099 204.963 478.113 200.87C478.12 198.762 478.123 196.654 478.123 194.546C478.123 193.237 478.126 191.929 478.133 190.621C478.137 190.013 478.137 189.404 478.133 188.796C478.133 187.968 478.137 187.141 478.14 186.313C478.14 186.07 478.137 185.827 478.137 185.576C478.144 184.907 478.144 184.907 478.275 183.839C481.472 181.706 487.847 182.77 491.579 182.789C492.826 182.795 494.07 182.798 495.317 182.801C498.86 182.809 502.399 182.822 505.941 182.837C508.115 182.847 510.289 182.853 512.464 182.856C513.287 182.858 514.111 182.862 514.934 182.867C521.102 182.904 521.102 182.904 527.205 182.115C527.463 182.068 527.718 182.021 527.983 181.973C528.587 181.859 529.19 181.729 529.789 181.598C530.168 181.516 530.551 181.434 530.94 181.35C532.018 181.083 533.049 180.754 534.096 180.391C534.355 180.31 534.613 180.23 534.879 180.146C536.426 179.657 537.835 179.064 539.275 178.315C541.029 177.445 542.918 176.859 544.778 176.255C544.778 176.027 544.778 175.799 544.778 175.565C545.054 175.437 545.333 175.309 545.619 175.177C548.572 173.685 551.325 171.615 553.737 169.36C553.737 169.132 553.737 168.905 553.737 168.671C554.42 168.443 555.102 168.216 555.805 167.981C555.691 167.64 555.577 167.299 555.46 166.947C555.915 166.947 556.37 166.947 556.838 166.947C556.914 166.76 556.994 166.574 557.073 166.381C557.669 165.315 558.465 164.472 559.292 163.586C559.454 163.411 559.616 163.237 559.781 163.057C560.177 162.629 560.577 162.202 560.973 161.776Z" fill="white"/>
<path d="M414.872 80.0758C415.282 80.898 415.258 81.3927 415.255 82.3103C415.255 82.6371 415.255 82.9643 415.255 83.3014C415.251 83.6631 415.251 84.025 415.248 84.3977C415.248 84.7803 415.248 85.1626 415.248 85.5566C415.244 86.8469 415.238 88.1376 415.234 89.4279C415.231 90.3494 415.231 91.2712 415.227 92.193C415.224 94.1824 415.217 96.1721 415.21 98.1616C415.203 101.308 415.196 104.454 415.189 107.6C415.189 108.676 415.186 109.753 415.186 110.829C415.186 111.098 415.186 111.367 415.182 111.644C415.179 114.708 415.172 117.772 415.169 120.836C415.165 121.257 415.165 121.257 415.165 121.685C415.155 126.22 415.144 130.755 415.131 135.29C415.113 139.947 415.107 144.604 415.1 149.26C415.1 152.132 415.089 155.004 415.079 157.875C415.069 159.845 415.065 161.815 415.069 163.785C415.069 164.921 415.065 166.056 415.058 167.192C415.048 168.426 415.051 169.659 415.055 170.893C415.048 171.248 415.045 171.604 415.041 171.971C415.065 175.196 416.037 177.959 418.049 180.497C419.121 181.516 420.375 182.012 421.764 182.46C421.971 182.526 422.177 182.593 422.391 182.662C425.199 183.195 428.362 182.999 431.067 182.115C431.067 181.887 431.067 181.66 431.067 181.425C431.295 181.425 431.522 181.425 431.757 181.425C431.87 181.084 431.984 180.743 432.101 180.391C432.101 180.619 432.101 180.846 432.101 181.081C433.011 180.398 433.921 179.716 434.858 179.012C433.676 181.375 431.791 182.704 429.32 183.599C425.937 184.401 422.422 184.115 419.352 182.46C416.719 180.814 415.217 178.209 414.335 175.262C414.169 174.459 414.138 173.731 414.138 172.911C414.138 172.422 414.138 172.422 414.135 171.923C414.135 171.387 414.135 171.387 414.138 170.841C414.135 170.46 414.135 170.08 414.135 169.689C414.131 168.41 414.131 167.131 414.131 165.852C414.131 164.937 414.131 164.022 414.128 163.107C414.128 160.877 414.124 158.648 414.124 156.418C414.124 154.606 414.124 152.793 414.124 150.982C414.121 145.846 414.118 140.71 414.118 135.575C414.118 135.298 414.118 135.021 414.118 134.736C414.118 134.459 414.118 134.182 414.118 133.896C414.121 129.401 414.118 124.905 414.111 120.41C414.107 115.796 414.104 111.183 414.104 106.569C414.104 103.978 414.104 101.387 414.1 98.7955C414.097 96.5903 414.097 94.3847 414.097 92.1792C414.1 91.0536 414.1 89.9278 414.097 88.8022C414.093 87.5829 414.097 86.364 414.097 85.1447C414.097 84.7876 414.093 84.4304 414.093 84.0622C414.093 83.7361 414.097 83.41 414.097 83.0743C414.097 82.7926 414.097 82.5113 414.097 82.2211C414.193 81.3737 414.448 80.8101 414.872 80.0758Z" fill="white"/>
<path d="M0.344578 128.682C0.458289 128.682 0.572 128.682 0.689157 128.682C0.941498 130.224 1.06512 131.708 1.09876 133.268C1.26482 139.731 2.63171 146.145 4.23859 152.392C4.45343 153.382 4.53114 154.219 4.47952 155.226C4.93436 155.226 5.3892 155.226 5.85783 155.226C5.85783 156.023 5.85783 156.819 5.85783 157.639C6.36953 157.81 6.36953 157.81 6.89157 157.984C6.89157 158.212 6.89157 158.439 6.89157 158.673C7.11899 158.673 7.34641 158.673 7.58072 158.673C7.51677 158.944 7.45281 159.214 7.3869 159.492C7.14669 160.387 7.14669 160.387 7.58072 161.087C8.09242 161.257 8.09242 161.257 8.61446 161.431C8.61446 162.569 8.61446 163.706 8.61446 164.879C8.95559 164.879 9.29672 164.879 9.64819 164.879C9.64819 165.106 9.64819 165.334 9.64819 165.568C9.87561 165.568 10.103 165.568 10.3373 165.568C10.2734 165.923 10.2094 166.279 10.1435 166.645C9.85735 169.181 10.6492 170.868 11.8233 173.044C11.9737 173.326 12.1241 173.608 12.279 173.899C15.0525 179.464 15.0525 179.464 18.9518 184.183C19.8566 184.27 19.8566 184.27 20.6747 184.183C20.7884 184.638 20.9021 185.093 21.0193 185.562C21.4741 185.562 21.929 185.562 22.3976 185.562C22.2839 186.7 22.1702 187.837 22.053 189.009C22.2804 189.009 22.5079 189.009 22.7422 189.009C23.0986 189.576 23.4408 190.153 23.7759 190.733C24.6181 191.972 24.6181 191.972 25.8434 192.758C26.6049 192.806 27.1787 192.655 27.9108 192.457C27.8917 192.661 27.8726 192.866 27.853 193.078C27.8376 195.052 28.2819 196.117 29.6353 197.502C30.4225 198.255 31.2231 198.983 32.0458 199.696C31.9321 199.923 31.8184 200.151 31.7012 200.385C25.1446 193.964 25.1446 193.964 22.3976 190.388C21.9597 189.857 21.5218 189.325 21.0839 188.794C10.2723 175.15 3.36038 158.675 1.03373 141.437C0.973189 140.993 0.973189 140.993 0.911416 140.54C0.389139 136.578 0.258727 132.676 0.344578 128.682Z" fill="white"/>
<path d="M80.6313 202.798C82.8594 203.033 85.0702 203.331 87.2858 203.66C93.2146 204.516 98.9649 204.708 104.933 204.254C106.597 204.147 108.254 204.146 109.92 204.177C110.292 205.292 110.295 206.057 110.273 207.228C110.266 207.642 110.259 208.056 110.252 208.482C110.242 208.929 110.233 209.377 110.223 209.837C110.215 210.299 110.207 210.762 110.199 211.224C110.177 212.439 110.153 213.655 110.129 214.871C110.104 216.111 110.082 217.352 110.06 218.593C110.015 221.027 109.969 223.461 109.92 225.895C106.005 226.326 102.127 226.712 98.1834 226.692C97.7631 226.69 97.3427 226.689 96.9095 226.687C80.4163 226.48 62.1916 221.859 48.241 212.796C48.1272 212.568 48.0135 212.341 47.8964 212.106C49.8353 212.658 51.4986 213.584 53.2587 214.541C60.541 218.419 68.1052 221.323 76.1518 223.137C76.3971 223.195 76.6425 223.253 76.8954 223.312C87.566 225.799 98.3506 225.886 109.231 225.206C109.402 214.967 109.402 214.967 109.576 204.522C106.335 204.863 106.335 204.863 103.029 205.212C100.921 205.281 98.8261 205.328 96.719 205.319C96.4454 205.319 96.1721 205.319 95.8906 205.319C91.4273 205.313 87.0939 204.999 82.6988 204.177C82.6988 203.95 82.6988 203.722 82.6988 203.488C82.0165 203.374 81.3343 203.26 80.6313 203.143C80.6313 203.029 80.6313 202.916 80.6313 202.798Z" fill="white"/>
<path d="M481.941 93.4764C482.268 93.4754 482.599 93.4743 482.937 93.4733C483.295 93.474 483.657 93.4747 484.026 93.4753C484.405 93.475 484.784 93.4743 485.177 93.4736C486.434 93.4723 487.695 93.4733 488.953 93.4743C489.832 93.474 490.707 93.4736 491.582 93.4733C493.422 93.4729 495.262 93.4736 497.106 93.475C499.222 93.4771 501.341 93.4764 503.456 93.4747C505.503 93.4729 507.547 93.4729 509.59 93.474C510.455 93.4743 511.323 93.474 512.188 93.4733C513.404 93.4722 514.621 93.4736 515.841 93.4753C516.368 93.4743 516.368 93.4743 516.909 93.4733C524.076 93.494 524.076 93.494 525.137 94.5543C525.83 94.7505 526.526 94.9266 527.225 95.0928C533.214 96.7516 538.514 100.363 542.711 104.896C542.711 104.441 542.711 103.986 542.711 103.517C542.483 103.517 542.256 103.517 542.022 103.517C542.022 103.29 542.022 103.062 542.022 102.828C542.476 102.828 542.931 102.828 543.4 102.828C543.4 103.51 543.4 104.193 543.4 104.896C543.6 104.996 543.8 105.095 544.003 105.198C544.72 105.557 545.44 105.916 546.157 106.275C546.043 106.73 545.929 107.185 545.812 107.654C545.585 107.654 545.357 107.654 545.123 107.654C545.398 108.134 545.398 108.135 545.678 108.625C547.142 111.189 547.142 111.189 547.507 111.834C547.759 112.268 548.01 112.701 548.269 113.131C549.141 114.597 549.465 115.632 549.602 117.306C548.81 116.512 548.465 115.681 548.014 114.665C546.76 111.844 545.378 109.355 543.4 106.964C543.159 106.671 542.918 106.379 542.669 106.077C537.301 99.8352 529.541 95.622 521.347 94.5543C520.003 94.5054 518.659 94.5109 517.315 94.515C516.912 94.515 516.509 94.515 516.092 94.515C514.762 94.5154 513.432 94.5178 512.098 94.5206C511.175 94.5213 510.251 94.5219 509.328 94.5219C507.147 94.5233 504.962 94.5261 502.781 94.5295C500.297 94.5333 497.812 94.5354 495.328 94.5371C490.218 94.5406 485.108 94.5468 479.998 94.5543C479.45 95.6478 479.522 96.8416 479.46 98.0447C479.443 98.3046 479.429 98.5645 479.415 98.8324C479.377 99.4746 479.343 100.117 479.308 100.759C479.195 100.759 479.081 100.759 478.964 100.759C478.953 99.7394 478.947 98.7197 478.943 97.7C478.94 97.4097 478.936 97.1195 478.933 96.8206C478.933 96.5427 478.933 96.2652 478.929 95.9791C478.929 95.7226 478.926 95.4661 478.926 95.2021C478.964 94.5543 478.964 94.5543 479.308 93.8649C480.297 93.5346 480.914 93.4767 481.941 93.4764Z" fill="white"/>
<path d="M4.13494 100.759C4.24865 100.759 4.36236 100.759 4.47952 100.759C4.24793 103.224 3.79074 105.561 3.19946 107.962C2.82093 109.627 2.76624 110.945 3.01254 112.627C3.20841 114.587 3.01876 116.571 2.92892 118.534C2.77367 122.277 2.77874 125.975 2.98469 129.717C3.11811 132.277 3.04847 134.749 2.75663 137.3C2.41549 137.3 2.07436 137.3 1.72289 137.3C1.38176 137.642 1.38176 137.642 1.03373 137.99C0.920024 134.918 0.806313 131.847 0.689157 128.682C0.461735 128.569 0.234313 128.455 0 128.338C0.413304 119.002 1.2526 109.705 4.13494 100.759Z" fill="white"/>
<path d="M196.754 149.711C196.868 149.711 196.982 149.711 197.099 149.711C197.099 174.851 197.099 199.992 197.099 225.895C195.962 225.895 194.825 225.895 193.653 225.895C193.653 225.781 193.653 225.668 193.653 225.55C194.449 225.437 195.245 225.323 196.065 225.206C196.066 224.825 196.068 224.444 196.07 224.052C196.105 214.797 196.143 205.541 196.182 196.287C196.201 191.811 196.219 187.335 196.236 182.859C196.251 178.959 196.267 175.059 196.285 171.159C196.294 169.093 196.302 167.027 196.309 164.961C196.316 163.018 196.325 161.075 196.334 159.132C196.337 158.417 196.34 157.703 196.342 156.988C196.345 156.015 196.35 155.042 196.355 154.069C196.356 153.785 196.356 153.5 196.356 153.207C196.365 151.984 196.425 150.888 196.754 149.711Z" fill="white"/>
<path d="M358.361 78.6969C359.702 80.0365 359.847 81.7598 359.871 83.5876C359.809 86.7811 358.94 89.5375 356.697 91.8706C352.672 95.1817 347.893 95.3427 342.921 95.3489C342.075 95.3503 341.23 95.3558 340.384 95.3631C337.983 95.3817 335.582 95.3927 333.181 95.401C331.704 95.4065 330.227 95.4172 328.75 95.4303C328.194 95.4341 327.637 95.4361 327.08 95.4365C323.905 95.4365 321.045 95.6357 317.955 96.4355C317.012 96.6227 317.012 96.6227 315.978 96.278C320.335 94.3709 324.972 94.0586 329.66 94.0679C330.519 94.0697 331.377 94.0645 332.235 94.0583C334.361 94.0435 336.487 94.0397 338.613 94.0355C340.423 94.0314 342.233 94.0231 344.043 94.0097C344.885 94.0049 345.722 94.0062 346.563 94.008C349.961 93.9959 352.317 93.6153 355.26 91.7965C355.488 91.7965 355.715 91.7965 355.949 91.7965C355.949 91.4552 355.949 91.114 355.949 90.7623C356.342 90.4638 356.342 90.4638 356.745 90.1591C357.848 89.2376 358.303 88.3186 358.706 86.9704C358.785 86.0248 358.823 85.173 358.792 84.2339C358.789 83.993 358.785 83.752 358.782 83.5034C358.747 81.8791 358.627 80.2985 358.361 78.6969Z" fill="white"/>
<path d="M271.183 134.543C271.297 134.543 271.411 134.543 271.528 134.543C271.569 134.812 271.611 135.082 271.654 135.36C271.712 135.709 271.77 136.058 271.829 136.417C271.885 136.765 271.941 137.113 271.999 137.471C272.071 137.756 272.143 138.041 272.217 138.335C272.444 138.448 272.672 138.562 272.906 138.679C273.673 140.859 273.673 140.859 273.251 142.127C273.39 142.974 273.556 143.774 273.767 144.604C273.829 144.847 273.89 145.09 273.954 145.34C275.039 149.376 276.845 153.103 279.108 156.605C279.288 156.9 279.467 157.195 279.652 157.499C285.334 166.742 293.452 173.633 303.229 178.323C302.195 178.668 302.195 178.668 301.26 178.27C296.058 175.388 291.38 172.047 287.034 167.981C286.749 167.715 286.464 167.449 286.171 167.174C282.006 163.151 279.078 158.57 276.352 153.503C276.23 153.278 276.109 153.053 275.984 152.821C273.128 147.422 270.985 140.686 271.183 134.543Z" fill="white"/>
<path d="M272.906 111.791C273.02 111.791 273.133 111.791 273.251 111.791C273.319 113.276 273.12 114.222 272.561 115.583C271.618 119.042 271.66 122.709 271.528 126.269C271.755 125.814 271.983 125.359 272.217 124.89C272.217 125.345 272.217 125.8 272.217 126.269C272.558 126.269 272.899 126.269 273.251 126.269C273.251 128.317 273.251 130.365 273.251 132.474C272.909 132.474 272.568 132.474 272.217 132.474C272.181 132.695 272.146 132.915 272.109 133.142C272.031 133.377 271.953 133.612 271.872 133.853C271.361 134.024 271.361 134.024 270.839 134.198C269.577 126.724 270.666 118.952 272.906 111.791Z" fill="white"/>
<path d="M132.663 59.737C134.204 59.9417 135.309 60.5316 136.647 61.3096C136.856 61.4316 137.066 61.5533 137.282 61.6792C139.36 62.9012 141.355 64.236 143.345 65.5973C143.915 65.9572 143.915 65.9572 144.497 66.3243C144.799 66.5395 145.101 66.7546 145.412 66.9762C145.412 67.2037 145.412 67.4313 145.412 67.6657C145.675 67.7581 145.938 67.8505 146.209 67.9456C147.104 68.3413 147.523 68.6812 148.169 69.3893C148.396 69.5031 148.623 69.6168 148.858 69.734C148.858 69.9616 148.858 70.1891 148.858 70.4235C149.145 70.54 149.145 70.54 149.438 70.6589C150.47 71.2457 151.162 71.9999 151.98 72.8579C153.171 74.1565 153.171 74.1565 154.716 74.9049C155.063 75.4996 155.409 76.0956 155.732 76.7041C156.197 77.4935 156.816 78.0637 157.472 78.6969C157.472 78.9244 157.472 79.152 157.472 79.3864C157.7 79.3864 157.927 79.3864 158.161 79.3864C160.04 81.4213 161.477 83.9695 162.986 86.2809C163.17 86.5625 163.354 86.8442 163.544 87.1345C164.708 88.9494 164.708 88.9494 164.708 89.7282C164.936 89.7282 165.163 89.7282 165.398 89.7282C165.398 90.297 165.398 90.8658 165.398 91.4518C164.491 90.2877 163.707 89.057 162.921 87.8105C158.957 81.5957 154.275 75.4362 148.513 70.7682C148.13 70.45 147.748 70.1319 147.365 69.8133C143.385 66.535 139.194 63.8502 134.683 61.3661C133.866 60.8732 133.282 60.4509 132.663 59.737Z" fill="white"/>
<path d="M471.573 72.4525C471.924 72.4525 472.279 72.4525 472.641 72.4525C473.802 72.4529 474.96 72.4553 476.121 72.4581C476.927 72.4588 477.737 72.4591 478.543 72.4594C480.663 72.4608 482.778 72.4643 484.897 72.4681C487.061 72.4715 489.229 72.4732 491.393 72.475C495.634 72.4787 499.876 72.4846 504.118 72.4918C504.118 72.7194 504.118 72.9469 504.118 73.1813C499.856 73.2347 495.593 73.2858 491.331 73.334C489.349 73.3564 487.372 73.3799 485.39 73.4047C483.474 73.4288 481.562 73.4509 479.646 73.4719C478.919 73.4798 478.192 73.4888 477.468 73.4984C473.351 73.5529 469.285 73.5205 465.181 73.1813C465.181 73.0675 465.181 72.9538 465.181 72.8366C467.324 72.5201 469.405 72.4446 471.573 72.4525Z" fill="white"/>
<path d="M386.141 0.206949C386.469 0.234056 386.793 0.261162 387.127 0.28909C387.995 0.443949 387.995 0.443949 389.029 1.1334C388.819 1.13482 388.605 1.13624 388.388 1.13769C382.899 1.05033 382.899 1.05033 378.002 3.20176C377.682 3.40084 377.361 3.59991 377.034 3.80502C375.621 5.25687 374.45 7.00246 374.45 9.08365C374.484 9.41782 374.519 9.752 374.557 10.0963C374.784 9.755 375.011 9.41372 375.246 9.0621C375.246 9.28962 375.246 9.51714 375.246 9.75155C375.701 9.75155 376.155 9.75155 376.624 9.75155C376.738 10.6616 376.851 11.5717 376.969 12.5094C377.31 12.5094 377.651 12.5094 378.002 12.5094C378.002 12.9644 378.002 13.4194 378.002 13.8883C377.093 13.8883 376.183 13.8883 375.246 13.8883C375.246 17.6423 375.246 21.3964 375.246 25.2642C375.132 25.2642 375.018 25.2642 374.901 25.2642C374.732 18.0974 374.732 18.0974 374.557 10.7857C374.102 10.5582 373.647 10.3307 373.178 10.0963C373.84 6.79353 375.039 4.345 377.816 2.34129C380.349 0.840446 383.199 -0.0649464 386.141 0.206949Z" fill="white"/>
<path d="M25.8434 103.517C26.4269 104.925 25.8876 106.094 25.4342 107.46C24.7066 109.786 24.1433 112.111 23.6898 114.505C23.6057 114.941 23.6057 114.941 23.5199 115.385C22.7877 119.368 22.6779 123.31 22.6783 127.349C22.6776 128.199 22.6713 129.05 22.6648 129.901C22.6535 133.132 22.8284 136.277 23.2618 139.479C23.4867 141.162 23.6371 142.848 23.7759 144.54C21.3478 139.884 21.5874 133.86 21.6223 128.725C21.6231 128.454 21.624 128.183 21.6248 127.905C21.6422 123.118 21.7599 118.492 23.0867 113.859C23.1916 113.179 23.285 112.496 23.3667 111.812C24.3477 105.013 24.3477 105.013 25.8434 103.517Z" fill="white"/>
<path d="M459.667 75.5944C459.895 75.7081 460.122 75.8219 460.357 75.9391C460.219 76.098 460.081 76.2573 459.94 76.421C459.757 76.6461 459.574 76.8709 459.388 77.1026C459.209 77.3184 459.026 77.5345 458.844 77.7569C457.038 80.8204 457.104 84.1488 457.107 87.5988C457.104 88.1424 457.1 88.6864 457.097 89.2304C457.087 90.6975 457.083 92.1643 457.08 93.6312C457.076 95.168 457.069 96.7047 457.059 98.2412C457.045 101.147 457.035 104.053 457.028 106.958C457.018 110.268 457.004 113.577 456.987 116.887C456.956 123.692 456.931 130.496 456.911 137.3C456.797 137.3 456.683 137.3 456.566 137.3C456.511 129.905 456.466 122.509 456.442 115.113C456.428 111.679 456.411 108.245 456.384 104.811C456.359 101.816 456.346 98.8224 456.339 95.8278C456.335 94.2434 456.328 92.659 456.311 91.0743C456.294 89.5806 456.291 88.0873 456.294 86.5936C456.294 86.0475 456.287 85.5015 456.28 84.9554C456.222 81.4682 456.676 79.0244 458.978 76.2838C459.206 76.0563 459.433 75.8288 459.667 75.5944Z" fill="white"/>
<path d="M158.851 224.172C159.305 224.172 159.76 224.172 160.229 224.172C160.229 224.399 160.229 224.627 160.229 224.861C160.684 224.861 161.139 224.861 161.607 224.861C161.607 224.633 161.607 224.406 161.607 224.172C162.062 224.172 162.517 224.172 162.986 224.172C162.986 224.399 162.986 224.627 162.986 224.861C163.44 224.861 163.895 224.861 164.364 224.861C164.364 224.633 164.364 224.406 164.364 224.172C164.819 224.172 165.274 224.172 165.742 224.172C165.742 224.399 165.742 224.627 165.742 224.861C166.197 224.861 166.652 224.861 167.12 224.861C167.12 224.633 167.12 224.406 167.12 224.172C167.575 224.172 168.03 224.172 168.499 224.172C168.499 224.399 168.499 224.627 168.499 224.861C168.954 224.861 169.408 224.861 169.877 224.861C169.877 224.633 169.877 224.406 169.877 224.172C170.787 224.172 171.696 224.172 172.634 224.172C172.634 224.399 172.634 224.627 172.634 224.861C174.453 224.861 176.272 224.861 178.147 224.861C178.147 224.633 178.147 224.406 178.147 224.172C178.602 224.172 179.057 224.172 179.525 224.172C179.525 224.399 179.525 224.627 179.525 224.861C179.98 224.861 180.435 224.861 180.904 224.861C180.904 224.633 180.904 224.406 180.904 224.172C182.268 224.172 183.633 224.172 185.039 224.172C185.039 224.399 185.039 224.627 185.039 224.861C185.493 224.861 185.948 224.861 186.417 224.861C186.417 224.633 186.417 224.406 186.417 224.172C187.327 224.172 188.236 224.172 189.173 224.172C189.173 224.399 189.173 224.627 189.173 224.861C189.969 224.861 190.765 224.861 191.586 224.861C191.586 224.975 191.586 225.088 191.586 225.206C179.646 225.206 167.706 225.206 155.405 225.206C155.405 225.092 155.405 224.978 155.405 224.861C156.542 224.861 157.679 224.861 158.851 224.861C158.851 224.633 158.851 224.406 158.851 224.172Z" fill="white"/>
<path d="M83.0434 53.1872C82.1213 53.8022 81.593 54.0373 80.5559 54.3117C80.2664 54.3899 79.977 54.4685 79.6789 54.5495C79.2123 54.675 79.2123 54.675 78.7361 54.8029C68.8908 57.5531 60.5017 61.9518 52.2605 67.9397C51.2688 68.6578 50.2716 69.3676 49.2747 70.0788C49.7285 69.0439 50.1737 68.4299 51.0624 67.7357C51.2746 67.5692 51.4869 67.4023 51.7057 67.2306C52.0375 66.9766 52.0375 66.9766 52.3759 66.7177C52.5971 66.5429 52.8183 66.3685 53.0461 66.1885C54.6956 64.9079 54.6956 64.9079 55.4771 64.9079C55.4771 64.6803 55.4771 64.4528 55.4771 64.2184C55.9292 63.9671 56.3816 63.7158 56.8341 63.4642C57.1173 63.3066 57.4005 63.1487 57.6927 62.9864C58.2534 62.6751 58.815 62.3652 59.3777 62.057C60.6134 61.3789 61.8173 60.687 62.993 59.9093C64.4203 59.0027 65.9302 58.3901 67.4956 57.7613C69.1407 57.0919 70.7498 56.3459 72.3614 55.6002C72.3614 55.3727 72.3614 55.1452 72.3614 54.9108C72.695 54.9284 73.0285 54.9463 73.3724 54.9646C74.9685 54.9646 76.382 54.5164 77.8961 54.049C79.6572 53.5081 81.1761 53.0675 83.0434 53.1872Z" fill="white"/>
<path d="M109.92 40.0876C110.034 40.0876 110.148 40.0876 110.265 40.0876C110.291 41.7933 110.309 43.4986 110.322 45.2047C110.327 45.7852 110.334 46.3654 110.343 46.9459C110.356 47.7794 110.362 48.6126 110.366 49.4462C110.371 49.7068 110.377 49.9671 110.382 50.2353C110.383 50.9671 110.383 50.9671 110.265 52.153C108.942 53.0358 108.133 52.7687 106.647 52.5408C100.124 51.6973 93.6291 52.0079 87.1394 52.961C85.8768 53.1448 84.667 53.2385 83.3879 53.1872C86.0736 50.5004 93.2453 51.387 96.8286 51.3753C97.4812 51.3756 98.1338 51.376 98.7864 51.3773C99.1048 51.3777 99.4236 51.378 99.752 51.378C100.681 51.3804 101.609 51.386 102.538 51.3936C102.951 51.3956 102.951 51.3956 103.373 51.398C105.341 51.4222 107.277 51.5852 109.231 51.8083C109.244 51.2939 109.244 51.2939 109.257 50.7693C109.29 49.5017 109.324 48.2341 109.359 46.9669C109.375 46.4174 109.389 45.8679 109.403 45.3184C109.423 44.5304 109.445 43.7423 109.467 42.9543C109.473 42.7075 109.478 42.4603 109.484 42.2056C109.537 40.4716 109.537 40.4716 109.92 40.0876Z" fill="white"/>
<path d="M131.629 35.9508C132.893 36.2035 133.698 36.4004 134.816 36.9202C135.213 37.1022 135.213 37.1022 135.617 37.288C135.893 37.4156 136.169 37.5431 136.453 37.6745C137.034 37.9337 137.616 38.1926 138.197 38.4501C138.65 38.6511 139.102 38.8521 139.554 39.0534C138.52 39.3981 138.52 39.3981 132.663 36.985C132.549 44.3794 132.435 51.7738 132.318 59.3922C132.091 59.3922 131.863 59.3922 131.629 59.3922C131.629 51.6566 131.629 43.9209 131.629 35.9508Z" fill="white"/>
<path d="M109.92 74.9049C110.034 74.9049 110.148 74.9049 110.265 74.9049C110.265 81.958 110.265 89.0111 110.265 96.278C109.924 96.4486 109.924 96.4486 109.576 96.6227C109.129 95.7281 109.185 95.0745 109.181 94.0731C109.179 93.6843 109.177 93.2954 109.174 92.8945C109.174 92.4725 109.174 92.0506 109.173 91.6159C109.172 91.1843 109.171 90.7523 109.17 90.3073C109.168 89.3921 109.167 88.4768 109.168 87.5619C109.168 86.3902 109.163 85.2188 109.157 84.0471C109.152 82.9291 109.152 81.8108 109.152 80.6925C109.149 80.272 109.147 79.8514 109.144 79.4181C109.146 79.0272 109.147 78.6359 109.148 78.2333C109.147 77.8892 109.147 77.5452 109.146 77.1908C109.233 76.2635 109.446 75.6981 109.92 74.9049Z" fill="white"/>
<path d="M196.754 179.012C196.868 179.012 196.982 179.012 197.099 179.012C197.099 194.484 197.099 209.955 197.099 225.895C195.962 225.895 194.825 225.895 193.653 225.895C193.653 225.781 193.653 225.668 193.653 225.55C194.239 225.476 194.239 225.476 194.838 225.399C195.999 225.339 195.999 225.339 196.41 224.861C196.447 224.268 196.46 223.673 196.464 223.079C196.469 222.5 196.469 222.5 196.474 221.908C196.476 221.481 196.478 221.053 196.48 220.613C196.485 219.942 196.485 219.942 196.491 219.258C196.5 218.028 196.507 216.798 196.514 215.568C196.522 214.284 196.531 213 196.54 211.716C196.557 209.282 196.573 206.849 196.588 204.416C196.605 201.646 196.624 198.877 196.643 196.108C196.682 190.409 196.719 184.711 196.754 179.012Z" fill="white"/>
<path d="M0.344578 128.682C0.458289 128.682 0.572 128.682 0.689157 128.682C0.941464 130.223 1.06527 131.708 1.09859 133.267C1.27607 140.126 2.81443 146.883 4.52083 153.505C4.93843 155.148 5.29338 156.617 5.16867 158.329C0.205755 150.881 0.156853 137.415 0.344578 128.682Z" fill="white"/>
<path d="M305.641 101.104C306.209 101.104 306.778 101.104 307.364 101.104C306.281 102.223 305.152 103.264 303.983 104.293C298.61 109.151 296.098 114.629 293.925 121.443C293.812 121.784 293.698 122.126 293.581 122.477C293.503 123.245 293.44 124.013 293.387 124.782C293.358 125.189 293.329 125.596 293.3 126.015C293.278 126.326 293.257 126.638 293.236 126.959C293.122 126.959 293.009 126.959 292.892 126.959C292.645 123.089 293.204 120.198 294.614 116.617C294.725 116.305 294.837 115.993 294.951 115.672C295.823 113.298 297.078 111.178 298.405 109.033C298.592 108.727 298.779 108.421 298.972 108.105C299.842 106.731 300.36 105.935 301.851 105.241C302.057 104.978 302.263 104.715 302.475 104.444C303.145 103.62 303.66 103.176 304.521 102.591C304.891 102.328 305.26 102.065 305.641 101.794C305.641 101.566 305.641 101.339 305.641 101.104Z" fill="white"/>
<path d="M1.03373 122.477C1.14745 122.477 1.26116 122.477 1.37831 122.477C1.48492 122.861 1.59152 123.245 1.70136 123.641C2.00657 124.819 2.00657 124.819 2.41205 125.58C2.49542 126.957 2.47586 128.337 2.47666 129.716C2.48088 130.102 2.48509 130.488 2.48944 130.885C2.49011 131.253 2.49078 131.621 2.49146 132C2.49288 132.339 2.4943 132.677 2.49575 133.026C2.41205 133.853 2.41205 133.853 1.72289 134.543C0.709593 133.022 0.880932 131.529 0.807605 129.735C0.768516 129.388 0.729431 129.04 0.689157 128.682C0.461735 128.569 0.234313 128.455 0 128.338C0.0493043 128.158 0.0986086 127.978 0.149407 127.794C0.394249 126.746 0.551215 125.695 0.710693 124.632C0.771545 124.228 0.832398 123.825 0.895097 123.409C0.940847 123.101 0.986596 122.794 1.03373 122.477Z" fill="white"/>
<path d="M549.602 117.651C549.83 117.765 550.057 117.879 550.291 117.996C551.535 121.987 551.945 125.903 551.67 130.061C551.656 130.291 551.639 130.521 551.625 130.758C551.263 135.499 550.216 140.536 547.535 144.54C547.421 144.312 547.307 144.085 547.19 143.85C547.483 143.043 547.797 142.267 548.138 141.48C551.036 134.521 551.36 127.154 549.83 119.813C549.602 118.685 549.602 118.685 549.602 117.651Z" fill="white"/>
<path d="M4.13494 100.759C4.24865 100.759 4.36236 100.759 4.47952 100.759C4.24465 103.251 3.77989 105.621 3.19946 108.053C2.83593 109.671 2.75629 110.833 3.1012 112.48C3.00833 113.3 3.00833 113.3 2.82123 114.053C2.7555 114.32 2.68976 114.587 2.62203 114.862C2.41205 115.583 2.41205 115.583 2.04593 116.444C1.63395 117.543 1.57396 118.591 1.49676 119.757C1.45768 119.972 1.41859 120.187 1.37831 120.409C1.03718 120.579 1.03718 120.579 0.689157 120.754C0.581517 117.944 0.986717 115.268 1.44292 112.501C1.48094 112.266 1.51895 112.031 1.55812 111.789C2.16818 108.035 2.96768 104.382 4.13494 100.759Z" fill="white"/>
<path d="M11.0265 171.084C11.5951 171.084 12.1636 171.084 12.7494 171.084C12.8631 171.652 12.9768 172.221 13.094 172.807C13.4351 172.921 13.7762 173.035 14.1277 173.152C14.1277 174.062 14.1277 174.972 14.1277 175.91C14.4688 175.91 14.81 175.91 15.1614 175.91C15.3889 176.82 15.6163 177.73 15.8506 178.668C16.1917 178.668 16.5329 178.668 16.8843 178.668C16.8843 179.35 16.8843 180.033 16.8843 180.736C16.6569 180.85 16.4295 180.963 16.1952 181.081C11.0265 172.669 11.0265 172.669 11.0265 171.084Z" fill="white"/>
<path d="M235.347 30.0904C236.036 30.7799 236.036 30.7799 236.115 31.4623C236.112 31.7439 236.109 32.0254 236.106 32.3155C236.104 32.6384 236.102 32.9613 236.1 33.294C236.094 33.6493 236.088 34.0046 236.083 34.3707C236.08 34.744 236.076 35.1173 236.073 35.502C236.061 36.7406 236.045 37.9792 236.028 39.2175C236.019 40.0745 236.01 40.9314 236.002 41.7884C235.981 43.8161 235.958 45.8441 235.932 47.8718C235.901 50.4066 235.875 52.9414 235.848 55.4761C235.799 59.999 235.747 64.5218 235.692 69.0446C235.578 69.0446 235.464 69.0446 235.347 69.0446C235.347 56.4172 235.347 43.7899 235.347 30.7799C235.12 30.6661 234.892 30.5524 234.658 30.4351C234.885 30.3214 235.113 30.2076 235.347 30.0904Z" fill="white"/>
<path d="M85.8 225.206C86.3751 225.237 86.3751 225.237 86.9616 225.269C93.8059 225.619 100.658 225.743 107.508 225.895C107.508 226.009 107.508 226.123 107.508 226.24C104.389 226.522 101.294 226.651 98.1617 226.649C97.7289 226.649 97.2962 226.649 96.8503 226.648C94.2814 226.631 91.7371 226.546 89.181 226.283C88.9136 226.256 88.6459 226.229 88.3699 226.201C86.5808 225.986 86.5808 225.987 85.8 225.206Z" fill="white"/>
<path d="M396.265 173.152C396.379 173.152 396.492 173.152 396.61 173.152C396.475 176.053 395.669 178.372 393.719 180.583C390.783 183.216 387.644 183.997 383.788 183.952C382.048 183.801 380.532 183.371 379.036 182.46C378.922 182.232 378.809 182.005 378.692 181.77C378.971 181.88 378.971 181.88 379.253 181.992C381.259 182.73 383.002 182.964 385.132 182.934C385.411 182.937 385.693 182.942 385.983 182.946C387.74 182.937 388.85 182.652 390.407 181.77C390.748 181.77 391.089 181.77 391.441 181.77C391.61 181.258 391.61 181.258 391.785 180.736C392.202 180.576 392.202 180.576 392.626 180.413C393.701 179.967 393.739 179.698 394.198 178.668C394.311 178.456 394.425 178.245 394.542 178.026C395.39 176.423 395.886 174.926 396.265 173.152Z" fill="white"/>
<path d="M373.523 159.708C373.637 159.708 373.75 159.708 373.867 159.708C374.15 161.418 374.253 163.065 374.233 164.799C374.233 165.047 374.229 165.296 374.229 165.552C374.222 166.604 374.215 167.655 374.205 168.706C374.181 171.589 374.191 174.422 374.557 177.289C373.065 175.602 373.133 173.76 373.133 171.598C373.133 171.172 373.13 170.746 373.13 170.308C373.133 169.867 373.133 169.426 373.137 168.972C373.133 168.539 373.133 168.107 373.13 167.66C373.133 164.992 373.251 162.362 373.523 159.708Z" fill="white"/>
<path d="M131.284 83.8678C132.644 84.2077 132.951 84.3666 133.906 85.2802C134.137 85.4984 134.367 85.7169 134.605 85.9417C134.845 86.1744 135.085 86.4071 135.333 86.647C135.58 86.8828 135.827 87.1186 136.081 87.3613C136.781 88.0328 137.479 88.7078 138.176 89.3834C138.482 89.6747 138.787 89.9664 139.102 90.2666C140.368 91.4952 141.402 92.6945 142.311 94.2096C141.053 93.6922 140.37 92.9724 139.489 91.9472C137.26 89.409 134.918 87.06 132.318 84.902C131.801 85.9358 131.891 87.0114 131.865 88.1473C131.857 88.3989 131.85 88.6502 131.843 88.9094C131.82 89.7137 131.8 90.5179 131.78 91.3225C131.765 91.8675 131.75 92.4122 131.735 92.9572C131.697 94.2941 131.663 95.6306 131.629 96.9674C131.515 96.9674 131.401 96.9674 131.284 96.9674C131.284 92.6446 131.284 88.3217 131.284 83.8678Z" fill="white"/>
<path d="M14.8169 76.9733C14.9306 77.2008 15.0443 77.4283 15.1614 77.6627C14.8428 78.3932 14.8428 78.3932 14.339 79.2919C14.1576 79.6194 13.9761 79.9469 13.7892 80.2844C13.5953 80.6281 13.4014 80.9714 13.2017 81.3255C10.7797 85.6232 10.7797 85.6232 8.80828 90.1374C8.66435 90.5186 8.52046 90.8999 8.37218 91.2929C8.2247 91.6866 8.07722 92.0802 7.9253 92.486C7.61763 93.2978 7.30899 94.1093 6.99925 94.9204C6.8629 95.28 6.72651 95.6395 6.58603 96.0098C6.26364 96.8147 5.91579 97.5793 5.51325 98.3463C5.09711 97.0974 5.27556 96.7882 5.73802 95.5858C5.9325 95.0783 5.9325 95.0783 6.13091 94.5605C11.4143 81.3475 11.4143 81.3475 14.8169 76.9733Z" fill="white"/>
<path d="M542.022 102.828C542.476 102.828 542.931 102.828 543.4 102.828C543.4 103.51 543.4 104.193 543.4 104.896C543.6 104.996 543.8 105.095 544.003 105.198C544.72 105.557 545.44 105.916 546.157 106.275C546.043 106.73 545.929 107.185 545.812 107.654C545.585 107.654 545.357 107.654 545.123 107.654C545.305 107.974 545.488 108.295 545.678 108.625C547.142 111.189 547.142 111.189 547.507 111.834C547.759 112.268 548.01 112.701 548.269 113.131C549.141 114.597 549.465 115.632 549.602 117.306C548.93 116.633 548.682 116.204 548.303 115.352C548.19 115.101 548.076 114.85 547.955 114.591C547.721 114.067 547.487 113.543 547.256 113.018C546.47 111.299 545.554 109.864 544.434 108.343C544.041 107.552 543.727 106.753 543.4 105.93C543.266 105.674 543.131 105.418 542.99 105.155C542.711 104.551 542.711 104.551 542.711 103.517C542.483 103.517 542.256 103.517 542.022 103.517C542.022 103.29 542.022 103.062 542.022 102.828Z" fill="white"/>
<path d="M389.029 1.1334C388.819 1.13482 388.605 1.13624 388.388 1.13769C382.899 1.05033 382.899 1.05033 378.002 3.20176C377.682 3.40084 377.361 3.59991 377.034 3.80502C375.325 5.56158 374.419 7.73914 373.867 10.0963C373.754 10.0963 373.64 10.0963 373.523 10.0963C373.24 7.95746 374.119 6.33494 375.246 4.58066C378.206 1.11652 384.877 -1.63539 389.029 1.1334Z" fill="white"/>
<path d="M35.147 84.902C35.3744 85.0158 35.6018 85.1295 35.8361 85.2467C35.6235 85.577 35.4106 85.9069 35.1914 86.2471C31.7289 91.6707 28.9359 97.2039 26.5325 103.173C26.1397 101.994 26.2171 101.839 26.6846 100.75C26.7993 100.479 26.914 100.208 27.0322 99.9293C27.1587 99.6415 27.2852 99.3536 27.4155 99.0572C27.6086 98.6118 27.6086 98.6118 27.8055 98.1571C28.1805 97.2987 28.5612 96.4431 28.9446 95.5885C29.1094 95.2183 29.2742 94.848 29.4439 94.4668C31.0345 91.1074 33.1306 88.0163 35.147 84.902Z" fill="white"/>
<path d="M48.241 70.0788C48.7527 70.2494 48.7527 70.2494 49.2747 70.4235C48.9263 70.7148 48.5783 71.0064 48.2196 71.3067C44.3693 74.6936 40.8911 78.3188 37.9036 82.4889C37.733 81.977 37.733 81.977 37.559 81.4547C38.1176 80.7525 38.6923 80.0627 39.2819 79.3864C39.2819 79.1589 39.2819 78.9313 39.2819 78.6969C39.6231 78.6969 39.9642 78.6969 40.3157 78.6969C40.4008 78.5049 40.4862 78.3129 40.5741 78.115C41.0792 77.1805 41.7129 76.4166 42.3831 75.5944C42.4968 75.3669 42.6105 75.1393 42.7277 74.9049C43.0688 74.9049 43.41 74.9049 43.7614 74.9049C43.8752 74.3361 43.9889 73.7673 44.106 73.1813C44.6746 73.0675 45.2431 72.9538 45.8289 72.8366C45.8289 72.6091 45.8289 72.3815 45.8289 72.1471C46.0563 72.1471 46.2838 72.1471 46.5181 72.1471C46.5181 71.9196 46.5181 71.6921 46.5181 71.4577C47.3147 70.7034 47.3147 70.7034 48.241 70.0788Z" fill="white"/>
<path d="M434.513 179.012C434.513 180.047 434.513 180.047 434.031 180.627C430.992 183.325 428.321 183.996 424.321 183.954C423.211 183.845 422.418 183.625 421.419 183.149C421.419 183.035 421.419 182.922 421.419 182.804C421.612 182.808 421.809 182.812 422.008 182.815C422.904 182.83 423.797 182.838 424.693 182.847C424.999 182.853 425.303 182.859 425.62 182.865C427.56 182.879 429.203 182.668 431.067 182.115C431.067 181.887 431.067 181.66 431.067 181.425C431.295 181.425 431.522 181.425 431.757 181.425C431.87 181.084 431.984 180.743 432.101 180.391C432.101 180.619 432.101 180.846 432.101 181.081C433.293 180.057 433.293 180.057 434.513 179.012Z" fill="white"/>
<path d="M18.9518 184.183C19.5204 184.183 20.0889 184.183 20.6747 184.183C20.7884 184.638 20.9021 185.093 21.0193 185.562C21.4741 185.562 21.929 185.562 22.3976 185.562C22.2839 186.7 22.1702 187.837 22.053 189.009C20.2269 188.096 19.5905 187.134 18.9518 185.217C18.9518 184.876 18.9518 184.535 18.9518 184.183Z" fill="white"/>
<path d="M5.16867 158.329C5.85783 158.673 5.85783 158.673 6.09852 159.245C6.17057 159.487 6.24259 159.728 6.31681 159.977C6.40009 160.239 6.48338 160.501 6.56921 160.77C6.74067 161.325 6.90852 161.88 7.07261 162.437C7.31264 163.18 7.53989 163.855 7.9253 164.534C8.8129 164.939 8.8129 164.939 9.64819 164.879C9.64819 165.106 9.64819 165.334 9.64819 165.568C9.87561 165.568 10.103 165.568 10.3373 165.568C10.2493 166.376 10.1331 167.181 9.99277 167.981C9.76535 168.095 9.53793 168.209 9.30361 168.326C9.14724 168.063 8.99091 167.8 8.82982 167.528C8.429 166.866 8.01045 166.213 7.58072 165.568C7.12564 164.549 6.73385 163.506 6.33163 162.465C6.21971 162.183 6.10775 161.9 5.99242 161.609C5.83385 161.201 5.83385 161.201 5.67207 160.785C5.52707 160.413 5.52707 160.413 5.37914 160.033C5.16867 159.363 5.16867 159.363 5.16867 158.329Z" fill="white"/>
<path d="M133.352 224.172C133.579 224.172 133.807 224.172 134.041 224.172C134.041 224.399 134.041 224.627 134.041 224.861C134.496 224.861 134.951 224.861 135.419 224.861C135.419 224.633 135.419 224.406 135.419 224.172C135.874 224.172 136.329 224.172 136.798 224.172C136.798 224.399 136.798 224.627 136.798 224.861C142.711 224.861 148.623 224.861 154.716 224.861C154.716 224.975 154.716 225.088 154.716 225.206C147.438 225.206 140.161 225.206 132.663 225.206C132.89 224.864 133.117 224.523 133.352 224.172Z" fill="white"/>
<path d="M336.653 92.1413C336.653 92.4825 336.653 92.8238 336.653 93.1754C338.7 93.5167 338.7 93.5167 340.788 93.8649C341.015 93.4098 341.243 92.9548 341.477 92.486C342.469 92.1633 342.943 92.0127 343.889 92.486C343.775 92.7135 343.662 92.941 343.545 93.1754C343.431 93.5167 343.317 93.858 343.2 94.2096C339.902 94.2096 336.605 94.2096 333.207 94.2096C333.207 94.0959 333.207 93.9821 333.207 93.8649C334.117 93.7511 335.027 93.6374 335.964 93.5202C335.509 93.4064 335.054 93.2926 334.585 93.1754C334.585 92.9479 334.585 92.7204 334.585 92.486C335.301 92.295 335.91 92.1413 336.653 92.1413Z" fill="white"/>
<path d="M415.906 95.9332C416.133 95.9332 416.361 95.9332 416.595 95.9332C416.595 96.8433 416.595 97.7534 416.595 98.6911C416.368 98.6911 416.14 98.6911 415.906 98.6911C415.906 99.1461 415.906 99.6011 415.906 100.07C416.247 100.184 416.588 100.297 416.94 100.415C416.94 101.963 416.922 103.378 416.595 104.896C416.254 104.896 415.913 104.896 415.561 104.896C415.551 103.661 415.544 102.425 415.541 101.19C415.537 100.84 415.534 100.49 415.53 100.129C415.53 99.7914 415.53 99.4536 415.527 99.1058C415.527 98.7952 415.523 98.4849 415.523 98.1647C415.558 97.3694 415.682 96.6944 415.906 95.9332Z" fill="white"/>
<path d="M272.906 111.791C273.02 111.791 273.133 111.791 273.251 111.791C273.319 113.276 273.118 114.221 272.561 115.583C271.702 118.838 271.668 122.235 271.528 125.58C271.016 125.75 271.016 125.75 270.494 125.924C270.774 121.008 271.374 116.478 272.906 111.791Z" fill="white"/>
<path d="M460.701 249.681C460.66 249.937 460.615 250.193 460.57 250.457C460.615 250.77 460.656 251.083 460.701 251.405C461.377 251.884 462.066 252.345 462.769 252.784C462.769 253.125 462.769 253.466 462.769 253.818C462.996 253.932 463.223 254.046 463.458 254.163C462.138 254.071 461.49 253.898 460.443 253.064C459.64 252.06 459.295 251.263 458.978 250.026C459.667 249.681 459.667 249.681 460.701 249.681Z" fill="white"/>
<path d="M165.742 91.7965C166.808 92.6683 167.089 93.5974 167.465 94.8991C167.692 94.8991 167.92 94.8991 168.154 94.8991C168.311 95.2831 168.467 95.6668 168.628 96.0625C169.093 97.2991 169.093 97.2991 169.877 98.0016C170.008 98.6883 170.119 99.3784 170.222 100.07C170.436 100.993 170.673 101.909 170.911 102.828C170.012 102.032 169.591 101.286 169.134 100.182C169.002 99.8676 168.87 99.5539 168.734 99.2302C168.6 98.9031 168.465 98.5756 168.326 98.2384C168.058 97.5935 167.789 96.9481 167.519 96.3035C167.392 96.0001 167.266 95.6968 167.135 95.3844C166.834 94.6898 166.502 94.0093 166.162 93.333C165.742 92.486 165.742 92.486 165.742 91.7965Z" fill="white"/>
<path d="M164.708 88.3493C165.527 88.543 165.527 88.543 166.431 89.0387C166.862 90.2022 166.862 90.2022 167.12 91.4518C167.206 91.7148 167.291 91.9779 167.379 92.2488C167.422 92.537 167.422 92.537 167.465 92.8307C167.238 93.0582 167.01 93.2857 166.776 93.5202C166.613 93.2926 166.449 93.0651 166.28 92.8307C166.103 92.6032 165.925 92.3757 165.742 92.1413C165.628 92.1413 165.515 92.1413 165.398 92.1413C165.398 91.3449 165.398 90.5486 165.398 89.7282C165.17 89.7282 164.943 89.7282 164.708 89.7282C164.595 89.3869 164.481 89.0456 164.364 88.694C164.478 88.5802 164.591 88.4665 164.708 88.3493Z" fill="white"/>
<path d="M4.13494 100.759C4.24865 100.759 4.36236 100.759 4.47952 100.759C4.26364 102.97 3.92554 105.115 3.46732 107.288C3.40891 107.58 3.3505 107.873 3.29032 108.174C3.23191 108.454 3.1735 108.733 3.11332 109.021C3.03541 109.397 3.03541 109.397 2.95592 109.781C2.75663 110.412 2.75663 110.412 2.06747 111.101C2.14557 107.478 3.09925 104.2 4.13494 100.759Z" fill="white"/>
<path d="M235.347 30.0904C236.036 30.7799 236.036 30.7799 236.106 31.4517C236.098 31.7258 236.091 31.9998 236.083 32.2822C236.076 32.5927 236.069 32.9032 236.062 33.2232C236.051 33.5589 236.04 33.8947 236.028 34.2406C236.02 34.584 236.011 34.9273 236.002 35.281C235.973 36.3807 235.94 37.48 235.907 38.5794C235.887 39.3236 235.867 40.0679 235.848 40.8118C235.799 42.6389 235.747 44.4659 235.692 46.2926C235.578 46.2926 235.464 46.2926 235.347 46.2926C235.347 41.1734 235.347 36.0543 235.347 30.7799C235.12 30.6661 234.892 30.5524 234.658 30.4351C234.885 30.3214 235.113 30.2076 235.347 30.0904Z" fill="white"/>
<path d="M32.3904 200.385C33.9094 201.061 35.0856 202.024 36.2238 203.229C37.6917 204.634 39.3477 205.765 41.0048 206.935C40.6637 207.049 40.3225 207.163 39.9711 207.28C39.3805 206.935 39.3805 206.935 38.7368 206.394C38.5008 206.198 38.2647 206.003 38.0215 205.801C37.7765 205.592 37.5315 205.384 37.2792 205.168C37.038 204.967 36.7972 204.767 36.5487 204.56C36.0736 204.163 35.6001 203.764 35.1287 203.363C34.6973 203 34.2615 202.642 33.8207 202.29C33.3321 201.899 32.8594 201.489 32.3904 201.075C32.3904 200.847 32.3904 200.62 32.3904 200.385Z" fill="white"/>
<path d="M161.263 83.8678C162.038 83.7599 162.038 83.7599 162.986 83.8678C164.111 84.8717 164.35 85.3884 164.45 86.9056C164.422 87.2682 164.393 87.6309 164.364 88.0045C162.982 86.7373 162.14 85.526 161.263 83.8678Z" fill="white"/>
<path d="M422.453 73.526C420.127 74.9049 420.127 74.9049 419.352 74.9049C419.262 75.1111 419.173 75.3172 419.083 75.5296C418.511 76.5562 417.736 77.0998 416.823 77.8134C416.195 78.4032 415.899 78.9468 415.561 79.7311C415.448 79.5036 415.334 79.2761 415.217 79.0416C416.306 76.451 418.411 74.8622 420.771 73.425C421.419 73.1813 421.419 73.1813 422.453 73.526Z" fill="white"/>
<path d="M77.8747 32.8482C76.6452 33.2007 75.4158 33.5508 74.1839 33.8945C73.7673 34.0114 73.3507 34.1283 72.9214 34.2487C72.4993 34.3664 72.0775 34.4844 71.6426 34.6054C70.6847 34.8167 70.6847 34.8167 70.294 35.2614C69.4901 35.2755 68.6858 35.2759 67.8819 35.2614C69.3691 34.2695 70.9711 33.9397 72.6847 33.473C73.0299 33.3746 73.3752 33.2762 73.7311 33.1748C74.2304 33.0378 74.2304 33.0378 74.7397 32.8981C75.0436 32.814 75.3476 32.7299 75.6604 32.6433C76.5288 32.4981 77.0491 32.5675 77.8747 32.8482Z" fill="white"/>
<path d="M132.663 55.2555C133.117 55.2555 133.572 55.2555 134.041 55.2555C134.041 56.5069 134.041 57.7582 134.041 59.0475C133.586 59.0475 133.131 59.0475 132.663 59.0475C132.663 57.7962 132.663 56.5448 132.663 55.2555Z" fill="white"/>
<path d="M274.284 107.999C274.625 108.112 274.967 108.226 275.318 108.343C275.318 110.05 275.318 111.756 275.318 113.514C275.091 113.287 274.863 113.059 274.629 112.825C274.758 111.92 274.758 111.92 274.973 111.101C274.746 111.101 274.519 111.101 274.284 111.101C274.512 110.305 274.739 109.509 274.973 108.688C274.746 108.688 274.519 108.688 274.284 108.688C274.242 109.136 274.199 109.584 274.155 110.045C274.082 110.809 274.082 110.809 273.94 111.446C273.599 111.617 273.599 111.617 273.251 111.791C273.412 110.392 273.554 109.217 274.284 107.999Z" fill="white"/>
<path d="M69.9494 56.6344C70.2905 56.7482 70.6317 56.8619 70.9831 56.9792C70.1148 57.418 69.2461 57.8561 68.3774 58.2933C68.1345 58.4163 67.8919 58.539 67.6417 58.6656C66.1335 59.4236 64.6157 60.1217 63.0578 60.7711C63.2894 59.9507 63.5726 59.496 64.3097 59.0579C65.0336 58.7245 65.7638 58.418 66.5036 58.1209C67.006 57.9113 67.5087 57.7017 68.0111 57.4921C68.4233 57.3228 68.8357 57.1536 69.2602 56.9792C69.4877 56.8654 69.7151 56.7516 69.9494 56.6344Z" fill="white"/>
<path d="M109.231 164.879C109.459 164.992 109.686 165.106 109.92 165.223C109.948 166.013 109.968 166.803 109.985 167.593C109.997 168.033 110.009 168.473 110.021 168.926C109.988 169.297 109.955 169.667 109.92 170.049C109.579 170.277 109.238 170.504 108.887 170.739C108.877 170.021 108.871 169.302 108.865 168.584C108.861 168.184 108.857 167.785 108.853 167.372C108.881 166.461 108.96 165.741 109.231 164.879Z" fill="white"/>
<path d="M2.06747 115.583C2.18118 115.583 2.29489 115.583 2.41205 115.583C2.43083 116.286 2.4441 116.99 2.45512 117.694C2.46311 118.086 2.47111 118.478 2.47935 118.882C2.41092 120.084 2.15447 121.014 1.72289 122.132C1.60918 122.132 1.49547 122.132 1.37831 122.132C1.35961 121.364 1.34629 120.596 1.33524 119.827C1.32325 119.185 1.32325 119.185 1.31101 118.53C1.37476 117.371 1.56518 116.617 2.06747 115.583Z" fill="white"/>
<path d="M18.9518 184.183C19.5204 184.183 20.0889 184.183 20.6747 184.183C20.6534 184.61 20.6321 185.036 20.6101 185.476C20.6045 186.521 20.638 186.88 21.1916 187.803C21.3621 187.974 21.5327 188.144 21.7084 188.32C21.5947 188.547 21.481 188.775 21.3639 189.009C18.9518 186.279 18.9518 186.279 18.9518 184.183Z" fill="white"/>
<path d="M288.412 166.947C288.867 166.947 289.322 166.947 289.79 166.947C289.79 167.402 289.79 167.857 289.79 168.326C290.245 168.326 290.7 168.326 291.169 168.326C291.169 168.667 291.169 169.008 291.169 169.36C290.6 169.474 290.032 169.588 289.446 169.705C288.735 168.907 288.735 168.907 288.067 167.981C288.181 167.64 288.295 167.299 288.412 166.947Z" fill="white"/>
<path d="M290.479 85.5915C290.707 85.7052 290.934 85.819 291.169 85.9362C290.957 86.1151 290.745 86.2944 290.527 86.4788C290.248 86.7191 289.969 86.9597 289.683 87.2072C289.407 87.4433 289.131 87.6791 288.847 87.9225C288.061 88.7005 287.595 89.4727 287.034 90.4176C286.107 90.8699 286.107 90.8699 285.311 91.1071C285.538 90.652 285.766 90.197 286 89.7282C286.172 89.5558 286.345 89.5558 286.517 89.3834C286.689 89.2111 286.616 89.3779 286.861 89.1249C287.407 88.1655 288.136 87.6009 288.972 86.8842C289.253 86.6405 289.535 86.3971 289.825 86.1461C290.041 85.9631 290.257 85.78 290.479 85.5915Z" fill="white"/>
<path d="M109.231 182.115C109.345 182.342 109.459 182.57 109.576 182.804C107.757 183.032 105.937 183.259 104.063 183.494C104.063 183.266 104.063 183.039 104.063 182.804C105.863 182.299 107.364 182.037 109.231 182.115Z" fill="white"/>
<path d="M158.161 78.0075C158.678 78.4384 158.678 78.4384 159.195 79.0416C159.195 79.4967 159.195 79.9517 159.195 80.4206C159.423 80.4206 159.65 80.4206 159.884 80.4206C159.998 80.193 160.112 79.9655 160.229 79.7311C160.229 80.5274 160.229 81.3237 160.229 82.1442C158.549 80.5498 158.549 80.5498 158.161 79.3864C157.934 79.3864 157.707 79.3864 157.472 79.3864C157.472 79.1589 157.472 78.9313 157.472 78.6969C157.7 78.6969 157.927 78.6969 158.161 78.6969C158.161 78.4694 158.161 78.2419 158.161 78.0075Z" fill="white"/>
<path d="M109.231 174.876C109.345 174.876 109.459 174.876 109.576 174.876C109.69 176.468 109.803 178.061 109.92 179.702C110.034 179.702 110.148 179.702 110.265 179.702C110.265 180.498 110.265 181.294 110.265 182.115C109.924 182.229 109.583 182.342 109.231 182.46C109.231 179.957 109.231 177.454 109.231 174.876Z" fill="white"/>
<path d="M41.694 207.969C42.2684 208.199 42.8424 208.429 43.4169 208.659C43.7011 208.751 43.9854 208.844 44.2783 208.939C45.5688 209.552 46.5649 210.477 47.2072 211.761C45.7851 211.265 44.6911 210.564 43.4816 209.671C43.1453 209.426 42.809 209.18 42.4624 208.927C42.2088 208.725 41.9552 208.522 41.694 208.314C41.694 208.2 41.694 208.087 41.694 207.969Z" fill="white"/>
<path d="M75.4626 102.828C75.6901 103.055 75.9175 103.283 76.1518 103.517C75.2421 104.427 74.3324 105.337 73.3952 106.275C73.1677 106.048 72.9403 105.82 72.706 105.586C73.5385 104.485 74.3186 103.604 75.4626 102.828Z" fill="white"/>
<path d="M21.7084 189.009C22.0496 189.009 22.3907 189.009 22.7422 189.009C23.2375 189.763 23.2375 189.763 23.7759 190.733C24.2274 191.314 24.685 191.89 25.1542 192.457C25.0405 192.684 24.9268 192.912 24.8096 193.146C24.2907 192.588 23.7743 192.027 23.259 191.466C22.9712 191.154 22.6834 190.842 22.3868 190.52C21.7084 189.699 21.7084 189.699 21.7084 189.009Z" fill="white"/>
<path d="M109.576 160.052C109.803 160.166 110.031 160.28 110.265 160.397C110.265 161.193 110.265 161.99 110.265 162.81C110.151 162.81 110.038 162.81 109.92 162.81C109.807 163.379 109.693 163.948 109.576 164.534C109.462 164.534 109.348 164.534 109.231 164.534C109.164 163.838 109.097 163.142 109.029 162.447C108.934 161.698 108.934 161.698 108.198 161.087C108.652 160.745 109.107 160.404 109.576 160.052Z" fill="white"/>
<path d="M49.2747 69.3893C49.2747 69.6168 49.2747 69.8443 49.2747 70.0788C48.3654 70.6934 47.5614 71.1095 46.5181 71.4577C46.5181 71.6852 46.5181 71.9127 46.5181 72.1471C46.2906 72.0334 46.0632 71.9196 45.8289 71.8024C46.7569 70.1225 47.24 69.3893 49.2747 69.3893Z" fill="white"/>
<path d="M93.3807 224.861C94.063 224.861 94.7452 224.861 95.4482 224.861C95.4482 224.975 95.4482 225.088 95.4482 225.206C96.2442 225.319 97.0401 225.433 97.8602 225.55C97.8602 225.664 97.8602 225.778 97.8602 225.895C96.382 225.895 94.9037 225.895 93.3807 225.895C93.3807 225.554 93.3807 225.213 93.3807 224.861Z" fill="white"/>
<path d="M146.446 68.0104C147.128 68.0104 147.81 68.0104 148.513 68.0104C148.741 68.5792 148.968 69.148 149.202 69.734C148.634 69.6203 148.065 69.5065 147.479 69.3893C147.366 69.048 147.252 68.7067 147.135 68.3551C146.907 68.2414 146.68 68.1276 146.446 68.0104Z" fill="white"/>
<path d="M134.386 59.3922C135.068 59.3922 135.75 59.3922 136.453 59.3922C136.339 59.961 136.226 60.5298 136.108 61.1159C135.256 60.7746 135.256 60.7746 134.386 60.4264C134.386 60.0851 134.386 59.7439 134.386 59.3922Z" fill="white"/>
<path d="M79.9422 99.3805C80.2833 99.4943 80.6244 99.608 80.9759 99.7252C79.4408 100.92 79.4408 100.92 77.8747 102.138C77.761 101.797 77.6473 101.456 77.5301 101.104C77.9071 100.805 78.2885 100.512 78.6714 100.221C78.8833 100.057 79.0952 99.8928 79.3136 99.7239C79.5211 99.6104 79.7285 99.4974 79.9422 99.3805Z" fill="white"/>
<path d="M511.699 182.115C511.699 182.456 511.699 182.797 511.699 183.149C510.789 183.149 509.879 183.149 508.942 183.149C508.942 182.922 508.942 182.694 508.942 182.46C509.938 182.175 510.627 182.115 511.699 182.115Z" fill="white"/>
<path d="M132.318 55.2555C132.432 55.2555 132.545 55.2555 132.663 55.2555C132.663 56.6206 132.663 57.9858 132.663 59.3922C132.89 59.506 133.117 59.6198 133.352 59.737C133.011 59.8507 132.67 59.9645 132.318 60.0817C132.091 59.8542 131.863 59.6267 131.629 59.3922C131.856 59.3922 132.084 59.3922 132.318 59.3922C132.318 58.0271 132.318 56.662 132.318 55.2555Z" fill="white"/>
<path d="M538.576 154.192C538.803 154.306 539.031 154.42 539.265 154.537C538.81 155.106 538.355 155.674 537.887 156.26C537.432 156.147 536.977 156.033 536.508 155.916C537.191 155.347 537.873 154.778 538.576 154.192Z" fill="white"/>
<path d="M524.104 93.8649C524.445 94.0924 524.786 94.3199 525.137 94.5543C525.709 94.6871 526.281 94.8053 526.86 94.8991C526.86 95.1266 526.86 95.3541 526.86 95.5885C525.723 95.361 524.586 95.1335 523.414 94.8991C523.642 94.5578 523.869 94.2165 524.104 93.8649Z" fill="white"/>
<path d="M60.9904 86.6256C61.6795 86.9704 61.6795 86.9704 61.6795 86.9704L60.9904 86.6256Z" fill="white"/>
<path d="M64.7807 83.5231C65.4699 83.8678 65.4699 83.8678 65.4699 83.8678L64.7807 83.5231Z" fill="white"/>
</svg>