<svg width="1768" height="256" viewBox="0 0 1768 256" fill="none" xmlns="http://www.w3.org/2000/svg">
<path d="M295.519 207.816V34.4598H316.512V111.657H408.946V34.4598H429.938V207.816H408.946V130.28H316.512V207.816H295.519Z" fill="#1583FA"/>
<path d="M522.075 210.524C510.338 210.524 500.039 207.731 491.18 202.144C482.376 196.558 475.492 188.742 470.526 178.697C465.616 168.653 463.162 156.915 463.162 143.484C463.162 129.941 465.616 118.119 470.526 108.018C475.492 97.9164 482.376 90.0725 491.18 84.4859C500.039 78.8992 510.338 76.1059 522.075 76.1059C533.813 76.1059 544.084 78.8992 552.887 84.4859C561.746 90.0725 568.631 97.9164 573.54 108.018C578.506 118.119 580.989 129.941 580.989 143.484C580.989 156.915 578.506 168.653 573.54 178.697C568.631 188.742 561.746 196.558 552.887 202.144C544.084 207.731 533.813 210.524 522.075 210.524ZM522.075 192.579C530.992 192.579 538.328 190.294 544.084 185.723C549.839 181.152 554.1 175.142 556.865 167.693C559.63 160.244 561.013 152.175 561.013 143.484C561.013 134.794 559.63 126.696 556.865 119.191C554.1 111.686 549.839 105.619 544.084 100.992C538.328 96.3646 530.992 94.0509 522.075 94.0509C513.159 94.0509 505.823 96.3646 500.067 100.992C494.311 105.619 490.051 111.686 487.286 119.191C484.521 126.696 483.138 134.794 483.138 143.484C483.138 152.175 484.521 160.244 487.286 167.693C490.051 175.142 494.311 181.152 500.067 185.723C505.823 190.294 513.159 192.579 522.075 192.579Z" fill="#1583FA"/>
<path d="M611.483 207.816V77.7988H630.783V98.1139H632.475C635.184 91.1729 639.558 85.7838 645.596 81.9465C651.634 78.0527 658.885 76.1059 667.35 76.1059C675.927 76.1059 683.066 78.0527 688.765 81.9465C694.521 85.7838 699.008 91.1729 702.224 98.1139H703.578C706.908 91.3986 711.902 86.0659 718.561 82.1158C725.22 78.1092 733.205 76.1059 742.516 76.1059C754.141 76.1059 763.649 79.7457 771.042 87.0252C778.434 94.2484 782.13 105.506 782.13 120.799V207.816H762.154V120.799C762.154 111.206 759.53 104.35 754.282 100.23C749.034 96.1106 742.854 94.0509 735.744 94.0509C726.602 94.0509 719.52 96.816 714.498 102.346C709.475 107.82 706.964 114.761 706.964 123.169V207.816H686.649V118.768C686.649 111.375 684.251 105.422 679.454 100.907C674.658 96.3363 668.478 94.0509 660.917 94.0509C655.725 94.0509 650.872 95.4335 646.358 98.1986C641.899 100.964 638.288 104.801 635.523 109.71C632.814 114.564 631.46 120.178 631.46 126.555V207.816H611.483Z" fill="#1583FA"/>
<path d="M873.168 210.524C860.64 210.524 849.833 207.759 840.748 202.229C831.719 196.642 824.75 188.855 819.84 178.867C814.987 168.822 812.561 157.141 812.561 143.823C812.561 130.505 814.987 118.768 819.84 108.61C824.75 98.3961 831.578 90.4393 840.325 84.7398C849.128 78.9838 859.398 76.1059 871.136 76.1059C877.908 76.1059 884.595 77.2345 891.197 79.4917C897.8 81.749 903.809 85.417 909.227 90.4957C914.644 95.5181 918.961 102.177 922.178 110.472C925.394 118.768 927.003 128.982 927.003 141.114V149.579H832.581H826.781V132.311H832.632H906.687C906.687 124.975 905.22 118.429 902.286 112.673C899.408 106.917 895.288 102.374 889.928 99.045C884.623 95.7156 878.359 94.0509 871.136 94.0509C863.179 94.0509 856.295 96.026 850.482 99.9761C844.726 103.87 840.297 108.949 837.193 115.212C834.533 120.58 833.013 126.28 832.632 132.311C832.569 133.318 832.537 134.333 832.537 135.358V146.87C832.537 147.786 832.552 148.689 832.581 149.579C832.868 158.229 834.546 165.65 837.616 171.841C841.058 178.613 845.827 183.776 851.921 187.331C858.016 190.83 865.098 192.579 873.168 192.579C878.416 192.579 883.156 191.846 887.388 190.378C891.677 188.855 895.373 186.598 898.477 183.607C901.58 180.559 903.979 176.779 905.672 172.264L924.971 177.682C922.94 184.228 919.526 189.983 914.729 194.949C909.932 199.859 904.007 203.696 896.953 206.461C889.899 209.17 881.971 210.524 873.168 210.524Z" fill="#1583FA"/>
<path d="M960.099 34.4598H985.155L1044.07 178.359H1046.1L1105.01 34.4598H1130.07V207.816H1110.43V76.1059H1108.74L1054.56 207.816H1035.6L981.43 76.1059H979.737V207.816H960.099V34.4598Z" fill="#1583FA"/>
<path d="M1223.96 210.524C1211.44 210.524 1200.63 207.759 1191.54 202.229C1182.51 196.642 1175.55 188.855 1170.64 178.867C1165.78 168.822 1163.36 157.141 1163.36 143.823C1163.36 130.505 1165.78 118.768 1170.64 108.61C1175.55 98.3961 1182.37 90.4393 1191.12 84.7398C1199.92 78.9838 1210.19 76.1059 1221.93 76.1059C1228.7 76.1059 1235.39 77.2345 1241.99 79.4917C1248.6 81.749 1254.61 85.417 1260.02 90.4957C1265.44 95.5181 1269.76 102.177 1272.97 110.472C1276.19 118.768 1277.8 128.982 1277.8 141.114V149.579H1177.58V132.311H1257.48C1257.48 124.975 1256.02 118.429 1253.08 112.673C1250.2 106.917 1246.08 102.374 1240.72 99.045C1235.42 95.7156 1229.15 94.0509 1221.93 94.0509C1213.98 94.0509 1207.09 96.026 1201.28 99.9761C1195.52 103.87 1191.09 108.949 1187.99 115.212C1184.88 121.476 1183.33 128.192 1183.33 135.358V146.87C1183.33 156.689 1185.03 165.013 1188.41 171.841C1191.85 178.613 1196.62 183.776 1202.72 187.331C1208.81 190.83 1215.89 192.579 1223.96 192.579C1229.21 192.579 1233.95 191.846 1238.18 190.378C1242.47 188.855 1246.17 186.598 1249.27 183.607C1252.38 180.559 1254.77 176.779 1256.47 172.264L1275.77 177.682C1273.74 184.228 1270.32 189.983 1265.52 194.949C1260.73 199.859 1254.8 203.696 1247.75 206.461C1240.7 209.17 1232.77 210.524 1223.96 210.524Z" fill="#1583FA"/>
<path d="M1364.73 77.7988V94.7281H1297.35V77.7988H1364.73ZM1316.99 46.6489H1336.97V170.571C1336.97 176.214 1337.78 180.447 1339.42 183.268C1341.11 186.033 1343.26 187.896 1345.85 188.855C1348.51 189.758 1351.3 190.209 1354.23 190.209C1356.43 190.209 1358.24 190.096 1359.65 189.871C1361.06 189.588 1362.19 189.363 1363.04 189.193L1367.1 207.138C1365.75 207.646 1363.86 208.154 1361.43 208.662C1359 209.226 1355.93 209.509 1352.2 209.509C1346.56 209.509 1341.03 208.295 1335.61 205.869C1330.25 203.442 1325.79 199.746 1322.24 194.78C1318.74 189.814 1316.99 183.55 1316.99 175.989V46.6489Z" fill="#1583FA"/>
<path d="M1394.78 207.816V77.7988H1414.08V97.4368H1415.43C1417.8 91.0036 1422.09 85.7838 1428.3 81.7772C1434.51 77.7706 1441.5 75.7673 1449.29 75.7673C1450.76 75.7673 1452.59 75.7955 1454.79 75.8519C1456.99 75.9084 1458.66 75.993 1459.79 76.1059V96.421C1459.11 96.2517 1457.56 95.9978 1455.13 95.6592C1452.76 95.2642 1450.25 95.0666 1447.6 95.0666C1441.28 95.0666 1435.64 96.3928 1430.67 99.045C1425.76 101.641 1421.87 105.252 1418.99 109.88C1416.17 114.451 1414.76 119.671 1414.76 125.539V207.816H1394.78Z" fill="#1583FA"/>
<path d="M1483.47 207.816V77.7988H1503.44V207.816H1483.47ZM1493.63 56.1293C1489.73 56.1293 1486.37 54.8032 1483.55 52.1509C1480.79 49.4987 1479.4 46.3103 1479.4 42.5859C1479.4 38.8615 1480.79 35.6731 1483.55 33.0209C1486.37 30.3686 1489.73 29.0425 1493.63 29.0425C1497.52 29.0425 1500.85 30.3686 1503.61 33.0209C1506.44 35.6731 1507.85 38.8615 1507.85 42.5859C1507.85 46.3103 1506.44 49.4987 1503.61 52.1509C1500.85 54.8032 1497.52 56.1293 1493.63 56.1293Z" fill="#1583FA"/>
<path d="M1592.85 210.524C1580.66 210.524 1570.17 207.646 1561.36 201.89C1552.56 196.134 1545.79 188.206 1541.05 178.105C1536.31 168.004 1533.94 156.463 1533.94 143.484C1533.94 130.28 1536.36 118.627 1541.22 108.525C1546.13 98.3679 1552.96 90.4393 1561.7 84.7398C1570.51 78.9838 1580.78 76.1059 1592.51 76.1059C1601.66 76.1059 1609.89 77.7988 1617.23 81.1846C1624.57 84.5705 1630.58 89.3107 1635.26 95.4052C1639.94 101.5 1642.85 108.61 1643.98 116.736H1624C1622.48 110.811 1619.09 105.563 1613.84 100.992C1608.65 96.3646 1601.66 94.0509 1592.85 94.0509C1585.06 94.0509 1578.24 96.0824 1572.37 100.145C1566.56 104.152 1562.01 109.823 1558.74 117.159C1555.52 124.439 1553.91 132.988 1553.91 142.807C1553.91 152.852 1555.49 161.599 1558.66 169.048C1561.87 176.496 1566.39 182.281 1572.2 186.4C1578.07 190.52 1584.95 192.579 1592.85 192.579C1598.04 192.579 1602.76 191.676 1606.99 189.871C1611.22 188.065 1614.8 185.469 1617.74 182.083C1620.67 178.697 1622.76 174.634 1624 169.894H1643.98C1642.85 177.569 1640.06 184.481 1635.6 190.632C1631.2 196.727 1625.36 201.58 1618.08 205.192C1610.85 208.747 1602.45 210.524 1592.85 210.524Z" fill="#1583FA"/>
<path d="M1765.28 106.917L1747.33 111.996C1746.2 109.005 1744.54 106.099 1742.34 103.277C1740.19 100.399 1737.26 98.0293 1733.53 96.1671C1729.81 94.3048 1725.04 93.3737 1719.23 93.3737C1711.27 93.3737 1704.64 95.2077 1699.34 98.8757C1694.09 102.487 1691.47 107.086 1691.47 112.673C1691.47 117.639 1693.27 121.561 1696.88 124.439C1700.49 127.317 1706.14 129.715 1713.81 131.634L1733.11 136.374C1744.74 139.196 1753.4 143.513 1759.1 149.325C1764.8 155.081 1767.65 162.502 1767.65 171.587C1767.65 179.036 1765.5 185.695 1761.21 191.564C1756.98 197.432 1751.06 202.06 1743.44 205.446C1735.82 208.831 1726.96 210.524 1716.86 210.524C1703.6 210.524 1692.62 207.646 1683.93 201.89C1675.24 196.134 1669.74 187.726 1667.43 176.666L1686.39 171.926C1688.19 178.923 1691.61 184.171 1696.63 187.67C1701.71 191.169 1708.34 192.918 1716.52 192.918C1725.83 192.918 1733.22 190.943 1738.7 186.993C1744.23 182.986 1746.99 178.189 1746.99 172.603C1746.99 168.088 1745.41 164.307 1742.25 161.26C1739.09 158.156 1734.24 155.843 1727.69 154.319L1706.02 149.24C1694.12 146.419 1685.37 142.045 1679.78 136.12C1674.25 130.138 1671.49 122.661 1671.49 113.689C1671.49 106.353 1673.55 99.8633 1677.67 94.2202C1681.84 88.5771 1687.52 84.1473 1694.68 80.9307C1701.9 77.7141 1710.09 76.1059 1719.23 76.1059C1732.1 76.1059 1742.2 78.9274 1749.53 84.5705C1756.93 90.2136 1762.17 97.6625 1765.28 106.917Z" fill="#1583FA"/>
<path fill-rule="evenodd" clip-rule="evenodd" d="M36.3896 53.0095C31.2142 61.322 34.7643 69.8443 40.8838 73.1327C47.7953 76.8462 55.4626 74.2139 59.5115 67.806C77.7391 38.9589 106.504 27.9952 129.68 28.0486C157.338 28.1124 185.545 41.0775 201.868 67.8073C206.274 75.0224 214.344 76.6257 220.442 73.2449C227.045 69.5836 229.833 61.0882 225.464 53.9921C203.939 19.0342 167.926 -0.604611 129.665 0.0141945C94.2755 0.586532 58.4432 17.5883 36.3896 53.0095Z" fill="#1583FA"/>
<path fill-rule="evenodd" clip-rule="evenodd" d="M73.3923 80.1448C69.8381 86.3795 73.0751 95.834 80.0939 98.8053C87.9155 102.117 95.2216 98.2285 97.5416 93.6435C104.152 80.5821 116.809 72.8558 130.439 72.7824C144.95 72.7041 156.462 79.8478 164.135 93.7134C168.651 101.874 177.708 100.408 181.446 98.9283C185.469 97.3343 192.88 88.978 187.819 79.6197C174.519 55.022 150.281 45.1517 130.085 45.3976C109.221 45.6516 87.3123 55.7267 73.3923 80.1448Z" fill="#1583FA"/>
<path fill-rule="evenodd" clip-rule="evenodd" d="M107.813 255.99C117.599 256.315 123.205 248.98 122.993 242.036C122.753 234.194 116.64 228.87 109.066 228.567C74.9697 227.205 51.0925 207.776 39.5504 187.678C25.7767 163.694 22.9017 132.784 37.8884 105.282C41.9339 97.8586 39.2875 90.0683 33.3108 86.478C26.8384 82.5901 18.0875 84.4238 14.1265 91.7554C-5.38564 127.875 -4.38693 168.883 15.2798 201.709C33.47 232.07 66.1101 254.601 107.813 255.99Z" fill="#1583FA"/>
<path fill-rule="evenodd" clip-rule="evenodd" d="M112.811 210.377C119.988 210.337 126.557 202.807 125.621 195.243C124.578 186.813 117.557 182.43 112.427 182.713C97.8101 183.52 84.7904 176.421 77.9118 164.654C70.5885 152.126 71.019 138.585 79.1904 125.007C84.0001 117.015 78.202 109.905 75.0513 107.408C71.6591 104.72 60.7171 102.481 55.1428 111.542C40.4908 135.36 44.062 161.286 54.3729 178.653C65.0248 196.595 84.7044 210.531 112.811 210.377Z" fill="#1583FA"/>
<path fill-rule="evenodd" clip-rule="evenodd" d="M247.998 92.5827C243.387 83.9445 234.232 82.7578 228.324 86.4132C221.652 90.5421 220.098 98.4983 223.623 105.209C239.492 135.418 234.604 165.811 222.97 185.855C209.085 209.776 183.754 227.721 152.444 228.493C143.992 228.701 138.569 234.888 138.448 241.859C138.317 249.408 144.28 256.07 152.61 255.834C193.647 254.672 228.661 233.304 247.256 199.859C264.455 168.925 267.647 129.392 247.998 92.5827Z" fill="#1583FA"/>
<path fill-rule="evenodd" clip-rule="evenodd" d="M206.129 111.06C202.507 104.865 192.7 102.941 186.618 107.534C179.839 112.652 179.554 120.923 182.364 125.225C190.371 137.48 190.733 152.305 183.982 164.145C176.794 176.751 164.851 183.149 149.007 182.862C139.681 182.692 136.422 191.269 135.835 195.246C135.204 199.527 138.736 210.123 149.37 210.42C177.323 211.2 197.99 195.144 207.875 177.531C218.087 159.335 220.316 135.324 206.129 111.06Z" fill="#1583FA"/>
<path fill-rule="evenodd" clip-rule="evenodd" d="M113.808 109.653C114.284 98.771 122.607 92.709 130.674 92.7618C139.703 92.8199 147.167 99.1274 147.603 109.653C147.685 114.428 148.77 118.602 150.868 122.17C152.96 125.725 156.059 128.678 160.178 131.021C169.777 136.869 170.391 147.147 166.263 154.304C161.751 162.13 151.944 164.847 143.283 160.283C139.065 158.097 134.87 157.002 130.699 156.989C126.48 156.976 122.284 158.07 118.112 160.263C109.011 165.395 99.5347 161.534 95.1862 154.36C90.7031 146.963 92.3671 136.538 101.219 131.016C105.294 128.586 108.457 125.684 110.548 122.165C112.679 118.577 113.7 114.352 113.808 109.653Z" fill="#1583FA"/>
</svg>
