<svg width="1024" height="256" viewBox="0 0 1024 256" fill="none" xmlns="http://www.w3.org/2000/svg">
<path d="M42.2731 11.7968L1.14252 11.8686C0.511522 11.8697 0.000892773 12.3821 0.00199407 13.0131L0.0632404 48.1047C0.0643417 48.7357 0.576757 49.2463 1.20775 49.2452L42.3383 49.1734C42.9693 49.1723 43.4799 48.6599 43.4788 48.0289L43.4176 12.9373C43.4165 12.3064 42.9041 11.7957 42.2731 11.7968Z" fill="#1583FA"/>
<path d="M131.136 113.231V249.395C131.136 250.238 130.715 250.66 129.871 250.66H91.842C90.8627 250.66 90.373 250.17 90.373 249.191V89.9321C90.373 88.5448 90.9579 87.4838 92.1276 86.7494C94.6031 85.1716 97.1737 83.8795 99.8396 82.873C136.101 69.19 169.928 65.4088 201.32 71.5294C237.635 78.6293 247.265 105.56 246.857 138.938C246.395 177.838 246.381 214.398 246.816 248.62C246.822 248.885 246.773 249.15 246.673 249.397C246.573 249.644 246.423 249.87 246.233 250.06C246.043 250.25 245.817 250.4 245.566 250.504C245.316 250.607 245.047 250.66 244.776 250.66H208.134C206.611 250.66 205.849 249.898 205.849 248.375C205.958 209.284 205.93 172.125 205.767 136.898C205.563 97.8073 160.23 100.786 134.278 108.988C132.184 109.641 131.136 111.055 131.136 113.231Z" fill="#1583FA"/>
<path d="M365.026 216.548C385.306 219.078 407.993 215.895 425.743 205.531C426.008 205.374 426.31 205.291 426.618 205.291C426.926 205.291 427.23 205.374 427.498 205.531C427.767 205.688 427.991 205.914 428.149 206.186C428.306 206.458 428.391 206.767 428.395 207.081L428.232 239.194C428.205 241.397 427.184 242.907 425.171 243.723C379.307 262.371 307.9 258.943 290.314 201.981C281.745 174.152 282.357 137.836 293.782 112.619C316.51 62.5119 381.511 61.5326 427.416 79.4048C427.62 79.4738 427.797 79.6057 427.922 79.7816C428.046 79.9576 428.112 80.1685 428.109 80.3841L428.313 116.251C428.309 116.385 428.273 116.517 428.208 116.634C428.144 116.751 428.053 116.851 427.944 116.924C427.835 116.996 427.711 117.04 427.583 117.051C427.456 117.061 427.328 117.039 427.212 116.985C392.161 101.521 330.955 92.6254 326.384 146.283C323.732 176.886 326.874 211.814 365.026 216.548Z" fill="#1583FA"/>
<path d="M41.0811 73.6924H2.39871C1.70011 73.6924 1.13379 74.2587 1.13379 74.9573V249.436C1.13379 250.135 1.70011 250.701 2.39871 250.701H41.0811C41.7797 250.701 42.346 250.135 42.346 249.436V74.9573C42.346 74.2587 41.7797 73.6924 41.0811 73.6924Z" fill="#1583FA"/>
<path d="M902.213 174.806C906.089 203.246 922.166 219.568 951.586 219.813C972.505 219.976 992.308 214.753 1011 204.144C1011.03 204.131 1011.06 204.125 1011.09 204.126C1011.12 204.128 1011.15 204.137 1011.18 204.153C1011.21 204.169 1011.23 204.191 1011.25 204.218C1011.27 204.245 1011.28 204.275 1011.28 204.307C1012.02 224.383 1011.83 237.467 1010.71 243.561C1010.68 243.751 1010.58 243.873 1010.38 243.928C956.115 264.942 878.832 264.248 863.694 192.678C854.105 147.222 863.734 83.649 918.412 71.3261C937.481 67.0281 955.408 67.3409 972.192 72.2646C1013.57 84.3427 1025.03 130.737 1023.89 169.95C1023.86 171.419 1023.12 172.153 1021.65 172.153L904.58 172.112C902.757 172.112 901.968 173.01 902.213 174.806ZM904.049 140.285L981.169 140.04C981.255 140.04 981.34 140.023 981.419 139.991C981.498 139.958 981.57 139.91 981.631 139.849C981.691 139.789 981.739 139.717 981.772 139.637C981.805 139.558 981.822 139.473 981.822 139.387V138.979C981.806 134.153 980.811 129.377 978.893 124.925C976.975 120.473 974.172 116.431 970.644 113.032C967.115 109.633 962.931 106.942 958.331 105.114C953.731 103.286 948.804 102.356 943.833 102.378H941.058C931.034 102.422 921.437 106.327 914.375 113.236C907.314 120.145 903.365 129.492 903.396 139.224V139.632C903.396 139.718 903.413 139.803 903.446 139.882C903.479 139.961 903.527 140.033 903.587 140.094C903.648 140.155 903.72 140.203 903.799 140.236C903.878 140.268 903.963 140.285 904.049 140.285Z" fill="#1583FA"/>
<path d="M628.155 178.572C628.084 198.928 619.929 218.422 605.485 232.766C591.041 247.109 571.491 255.127 551.135 255.056L533.507 254.995C513.151 254.924 493.658 246.769 479.314 232.325C464.97 217.881 456.952 198.331 457.023 177.975L457.138 145.168C457.209 124.812 465.363 105.318 479.807 90.9748C494.252 76.6313 513.802 68.6131 534.158 68.6841L551.785 68.7457C572.141 68.8168 591.635 76.9713 605.979 91.4153C620.322 105.859 628.34 125.41 628.269 145.766L628.155 178.572ZM586.992 144.541C586.964 139.139 585.872 133.797 583.779 128.817C581.881 124.302 579.194 120.166 575.847 116.602C575.778 116.528 575.708 116.455 575.639 116.382C575.361 116.091 575.079 115.804 574.793 115.52C574.496 115.226 574.195 114.937 573.89 114.653C573.825 114.593 573.76 114.533 573.695 114.473C570.097 111.166 565.935 108.524 561.403 106.674C556.402 104.633 551.048 103.598 545.647 103.626L538.955 103.661C528.046 103.718 517.608 108.106 509.935 115.86C502.262 123.614 497.983 134.098 498.04 145.006L498.219 179.118C498.247 184.519 499.339 189.862 501.432 194.842C503.311 199.312 505.965 203.412 509.266 206.952C509.278 206.964 509.289 206.977 509.3 206.989C509.665 207.379 510.037 207.762 510.418 208.139C510.769 208.486 511.126 208.827 511.488 209.161C511.498 209.169 511.507 209.178 511.516 209.186C515.114 212.493 519.276 215.135 523.808 216.985C528.809 219.025 534.163 220.061 539.564 220.033L546.256 219.998C557.165 219.941 567.603 215.553 575.276 207.799C582.949 200.045 587.228 189.561 587.171 178.653L586.992 144.541Z" fill="#1583FA"/>
<path fill-rule="evenodd" clip-rule="evenodd" d="M545.647 103.626C551.048 103.598 556.402 104.633 561.403 106.674C565.935 108.524 570.097 111.166 573.695 114.473C573.76 114.533 573.825 114.593 573.89 114.653C566.492 107.763 556.554 103.569 545.647 103.626ZM575.639 116.382C575.708 116.455 575.778 116.528 575.847 116.602C579.194 120.166 581.881 124.302 583.779 128.817C585.872 133.797 586.964 139.139 586.992 144.541C586.935 133.617 582.625 123.71 575.639 116.382ZM587.171 178.653C587.228 189.561 582.949 200.045 575.276 207.799C567.603 215.553 557.165 219.941 546.256 219.998C568.972 219.879 587.289 201.368 587.171 178.653ZM539.564 220.033C534.163 220.061 528.809 219.025 523.808 216.985C519.276 215.135 515.114 212.493 511.516 209.186C511.507 209.178 511.498 209.169 511.488 209.161C518.868 215.959 528.739 220.09 539.564 220.033ZM509.3 206.989C509.289 206.977 509.278 206.964 509.266 206.952C505.965 203.412 503.311 199.312 501.432 194.842C499.339 189.862 498.247 184.519 498.219 179.118C498.275 189.899 502.475 199.69 509.3 206.989ZM498.04 145.006C497.983 134.098 502.262 123.614 509.935 115.86C517.608 108.106 528.046 103.718 538.955 103.661C516.239 103.78 497.921 122.291 498.04 145.006Z" fill="black"/>
<path d="M782.085 72.9171V0.693679C782.085 0.231232 782.33 0 782.82 0H821.828C822.508 0 822.849 0.340035 822.849 1.0201C822.685 69.816 822.713 138.979 822.93 208.509C822.971 224.627 814.81 237.358 799.917 243.927C767.219 258.372 735.405 259.855 704.476 248.375C662.855 232.91 654.939 188.923 657.592 148.16C660.529 103.724 684.4 71.6113 731.447 68.6734C747.878 67.6669 763.696 69.8296 778.902 75.1613C781.024 75.923 782.085 75.1749 782.085 72.9171ZM779.596 111.436C764.091 104.581 748.803 102.405 733.732 104.908C692.765 111.722 694.111 169.501 705.7 197.003C717.533 225.035 754.542 223.199 778.046 214.018C779.224 213.564 780.237 212.763 780.951 211.721C781.665 210.68 782.046 209.446 782.044 208.183L782.167 115.435C782.167 113.531 781.31 112.198 779.596 111.436Z" fill="#1583FA"/>
</svg>
