<svg width="1789" height="256" viewBox="0 0 1789 256" fill="none" xmlns="http://www.w3.org/2000/svg">
<path d="M21.0519 63.1556C9.42529 51.5289 9.42525 32.6784 21.0519 21.0518C32.6785 9.42512 51.529 9.42513 63.1557 21.0518L231.571 189.467C243.197 201.094 243.197 219.944 231.571 231.571C219.944 243.197 201.094 243.197 189.467 231.571L21.0519 63.1556Z" fill="white"/>
<path d="M146.938 49.2862C128.75 31.0984 141.631 0 167.353 0H223.594C239.539 0 252.465 12.9261 252.465 28.8712V85.1126C252.465 110.834 221.367 123.715 203.179 105.528L146.938 49.2862Z" fill="white"/>
<path d="M105.528 203.179C123.715 221.367 110.834 252.466 85.1126 252.466H28.8711C12.926 252.466 0 239.539 0 223.594V167.353C0 141.631 31.0984 128.75 49.2862 146.938L105.528 203.179Z" fill="white"/>
<path d="M965.778 63.1556C954.151 51.5289 954.151 32.6784 965.778 21.0518C977.404 9.42512 996.255 9.42513 1007.88 21.0518L1176.3 189.467C1187.92 201.094 1187.92 219.944 1176.3 231.571C1164.67 243.197 1145.82 243.197 1134.19 231.571L965.778 63.1556Z" fill="white"/>
<path d="M1091.66 49.2862C1073.48 31.0984 1086.36 0 1112.08 0H1168.32C1184.27 0 1197.19 12.9261 1197.19 28.8712V85.1126C1197.19 110.834 1166.09 123.715 1147.91 105.528L1091.66 49.2862Z" fill="white"/>
<path d="M1050.25 203.179C1068.44 221.367 1055.56 252.466 1029.84 252.466H973.597C957.652 252.466 944.726 239.539 944.726 223.594V167.353C944.726 141.631 975.824 128.75 994.012 146.938L1050.25 203.179Z" fill="white"/>
<path d="M369.795 256C350.238 256 333.39 252.348 319.252 245.043C305.114 237.738 294.157 227.37 286.381 213.939C278.84 200.508 275.07 184.603 275.07 166.223C275.07 148.315 278.723 132.645 286.027 119.214C293.568 105.783 303.818 95.2973 316.778 87.757C329.973 79.9811 344.936 76.0931 361.666 76.0931C373.919 76.0931 384.876 78.096 394.537 82.1018C404.434 86.1076 412.799 91.8806 419.632 99.4209C426.701 106.961 432.003 116.151 435.537 126.99C439.307 137.594 441.193 149.611 441.193 163.042C441.193 167.284 439.661 170.583 436.598 172.939C433.77 175.06 429.646 176.12 424.227 176.12H317.346L317.445 150.671H404.294C403.834 142.142 402.231 134.838 399.485 128.757C396.422 121.453 391.827 115.915 385.701 112.145C379.81 108.139 372.387 106.136 363.433 106.136C353.537 106.136 345.054 108.493 337.985 113.206C331.151 117.683 325.849 124.163 322.079 132.645C319.799 137.967 318.254 143.976 317.445 150.671L317.346 176.12C318.809 189.889 323.096 200.61 330.209 208.284C339.398 217.709 352.83 222.422 370.502 222.422C376.629 222.422 383.462 221.715 391.002 220.301C398.778 218.652 406.083 215.942 412.916 212.172C417.865 209.344 422.224 208.166 425.994 208.637C429.764 208.873 432.71 210.169 434.83 212.525C437.187 214.882 438.601 217.827 439.072 221.362C439.543 224.661 438.836 228.077 436.951 231.612C435.302 235.146 432.356 238.21 428.115 240.802C419.868 245.986 410.324 249.874 399.485 252.465C388.882 254.822 378.985 256 369.795 256Z" fill="white"/>
<path d="M540.223 255.293C534.332 255.293 529.265 253.879 525.024 251.052C520.783 247.988 517.366 243.276 514.774 236.914L463.523 106.136C461.403 100.481 460.696 95.5329 461.403 91.2915C462.345 86.8145 464.584 83.2799 468.118 80.688C471.653 78.096 476.366 76.8 482.256 76.8C487.44 76.8 491.682 78.096 494.981 80.688C498.28 83.0443 501.107 87.6392 503.464 94.4726L542.184 201.035L582.283 91.645C584.168 86.461 586.643 82.6909 589.706 80.3345C593.005 77.9782 597.246 76.8 602.43 76.8C607.614 76.8 611.855 78.096 615.154 80.688C618.453 83.0443 620.927 86.6966 622.577 91.645L662.352 201.917L701.75 93.4122C704.106 87.0501 707.052 82.6909 710.586 80.3345C714.356 77.9782 718.48 76.8 722.957 76.8C728.612 76.8 732.971 78.2138 736.035 81.0414C739.098 83.869 740.865 87.5214 741.336 91.9984C741.808 96.2398 740.983 100.953 738.862 106.136L687.965 236.914C685.609 243.04 682.192 247.635 677.715 250.698C673.474 253.761 668.408 255.293 662.517 255.293C656.626 255.293 651.442 253.761 646.965 250.698C642.724 247.635 639.425 243.04 637.068 236.914L600.942 141.219L565.671 236.56C563.315 242.922 560.016 247.635 555.774 250.698C551.533 253.761 546.349 255.293 540.223 255.293Z" fill="white"/>
<path d="M834.568 256C824.435 256 813.714 254.94 802.404 252.819C791.093 250.698 780.961 247.046 772.007 241.862C768.237 239.506 765.527 236.796 763.877 233.733C762.464 230.434 761.874 227.253 762.11 224.189C762.581 220.89 763.76 218.063 765.645 215.707C767.765 213.35 770.357 211.819 773.42 211.112C776.719 210.405 780.254 210.994 784.024 212.879C793.449 217.356 802.286 220.537 810.533 222.422C818.78 224.072 826.91 224.896 834.921 224.896C846.232 224.896 854.597 223.011 860.016 219.241C865.671 215.235 868.499 210.051 868.499 203.689C868.499 198.27 866.614 194.146 862.844 191.318C859.309 188.255 853.89 186.017 846.585 184.603L811.24 177.887C796.631 175.06 785.438 169.758 777.662 161.982C770.122 153.97 766.351 143.72 766.351 131.232C766.351 119.921 769.415 110.142 775.541 101.895C781.903 93.6479 790.622 87.2857 801.697 82.8087C812.771 78.3316 825.496 76.0931 839.869 76.0931C850.237 76.0931 859.898 77.2713 868.853 79.6276C878.042 81.7483 886.878 85.165 895.361 89.8777C898.896 91.7628 901.252 94.2369 902.43 97.3002C903.844 100.363 904.198 103.544 903.491 106.843C902.784 109.907 901.37 112.734 899.249 115.326C897.129 117.683 894.419 119.214 891.12 119.921C888.057 120.392 884.522 119.685 880.516 117.8C873.212 114.03 866.143 111.32 859.309 109.671C852.712 108.022 846.349 107.197 840.223 107.197C828.677 107.197 820.076 109.2 814.421 113.206C809.001 117.211 806.292 122.513 806.292 129.111C806.292 134.059 807.941 138.183 811.24 141.482C814.539 144.781 819.605 147.019 826.438 148.197L861.783 154.913C877.1 157.74 888.646 162.924 896.422 170.465C904.433 178.005 908.439 188.137 908.439 200.862C908.439 218.063 901.724 231.612 888.292 241.508C874.861 251.169 856.953 256 834.568 256Z" fill="white"/>
<path d="M1305.57 256C1287.66 256 1272.11 252.348 1258.91 245.043C1245.72 237.738 1235.47 227.37 1228.16 213.939C1220.86 200.272 1217.2 184.249 1217.2 165.87C1217.2 151.967 1219.21 139.597 1223.21 128.757C1227.45 117.683 1233.46 108.257 1241.24 100.481C1249.01 92.4697 1258.32 86.461 1269.16 82.4552C1280 78.2138 1292.14 76.0931 1305.57 76.0931C1323.47 76.0931 1339.03 79.7454 1352.22 87.0501C1365.42 94.3548 1375.67 104.723 1382.97 118.154C1390.28 131.585 1393.93 147.49 1393.93 165.87C1393.93 179.772 1391.81 192.261 1387.57 203.336C1383.56 214.411 1377.67 223.954 1369.89 231.965C1362.12 239.741 1352.81 245.75 1341.97 249.991C1331.13 253.997 1319 256 1305.57 256ZM1305.57 222.422C1314.28 222.422 1321.94 220.301 1328.54 216.06C1335.14 211.819 1340.2 205.574 1343.74 197.327C1347.51 188.844 1349.39 178.358 1349.39 165.87C1349.39 147.019 1345.39 132.999 1337.38 123.809C1329.37 114.384 1318.76 109.671 1305.57 109.671C1296.85 109.671 1289.19 111.792 1282.59 116.033C1275.99 120.039 1270.81 126.283 1267.04 134.766C1263.51 143.013 1261.74 153.381 1261.74 165.87C1261.74 184.485 1265.74 198.623 1273.76 208.284C1281.77 217.709 1292.37 222.422 1305.57 222.422Z" fill="white"/>
<path d="M1509.22 256C1491.31 256 1475.76 252.348 1462.56 245.043C1449.36 237.738 1439.11 227.37 1431.81 213.939C1424.5 200.272 1420.85 184.249 1420.85 165.87C1420.85 151.967 1422.86 139.597 1426.86 128.757C1431.1 117.683 1437.11 108.257 1444.89 100.481C1452.66 92.4697 1461.97 86.461 1472.81 82.4552C1483.65 78.2138 1495.78 76.0931 1509.22 76.0931C1527.12 76.0931 1542.68 79.7454 1555.87 87.0501C1569.07 94.3548 1579.32 104.723 1586.62 118.154C1593.93 131.585 1597.58 147.49 1597.58 165.87C1597.58 179.772 1595.46 192.261 1591.22 203.336C1587.21 214.411 1581.32 223.954 1573.54 231.965C1565.77 239.741 1556.46 245.75 1545.62 249.991C1534.78 253.997 1522.65 256 1509.22 256ZM1509.22 222.422C1517.93 222.422 1525.59 220.301 1532.19 216.06C1538.79 211.819 1543.85 205.574 1547.39 197.327C1551.16 188.844 1553.04 178.358 1553.04 165.87C1553.04 147.019 1549.04 132.999 1541.03 123.809C1533.01 114.384 1522.41 109.671 1509.22 109.671C1500.5 109.671 1492.84 111.792 1486.24 116.033C1479.64 120.039 1474.46 126.283 1470.69 134.766C1467.15 143.013 1465.39 153.381 1465.39 165.87C1465.39 184.485 1469.39 198.623 1477.4 208.284C1485.42 217.709 1496.02 222.422 1509.22 222.422Z" fill="white"/>
<path d="M1655.96 255.293C1648.89 255.293 1643.47 253.408 1639.7 249.638C1635.93 245.632 1634.04 239.977 1634.04 232.672V22.7219C1634.04 15.4172 1635.93 9.8798 1639.7 6.10966C1643.47 2.3395 1648.89 0.454417 1655.96 0.454417C1663.03 0.454417 1668.45 2.3395 1672.22 6.10966C1676.22 9.8798 1678.23 15.4172 1678.23 22.7219V153.146H1678.93L1737.25 91.645C1741.96 86.9323 1746.09 83.2799 1749.62 80.688C1753.16 78.096 1757.99 76.8 1764.11 76.8C1770.24 76.8 1774.84 78.4494 1777.9 81.7483C1781.2 84.8116 1782.85 88.5817 1782.85 93.0588C1782.85 97.5358 1780.73 102.013 1776.49 106.49L1723.59 162.426L1782.49 225.957C1786.74 230.434 1788.62 235.029 1788.15 239.741C1787.91 244.218 1786.03 247.988 1782.49 251.052C1778.96 253.879 1774.48 255.293 1769.06 255.293C1762.47 255.293 1757.16 253.997 1753.16 251.405C1749.39 248.813 1745.15 244.925 1740.43 239.741L1678.93 175.413H1678.23V232.672C1678.23 247.753 1670.8 255.293 1655.96 255.293Z" fill="white"/>
</svg>
