<svg width="1598" height="256" viewBox="0 0 1598 256" fill="none" xmlns="http://www.w3.org/2000/svg">
<path d="M78.2545 0H183.506L183.524 75.4117C183.524 75.4395 183.53 75.4671 183.54 75.4929C183.551 75.5186 183.566 75.542 183.586 75.5617C183.606 75.5815 183.629 75.5971 183.655 75.6077C183.681 75.6184 183.708 75.6239 183.736 75.6239H261.314C261.459 75.6239 261.531 75.6946 261.531 75.8361V180.173C261.531 180.202 261.519 180.23 261.497 180.251C261.476 180.272 261.447 180.283 261.416 180.283H229.012C228.858 180.283 228.726 180.229 228.614 180.12L130.918 82.4064C130.889 82.378 130.85 82.3621 130.81 82.3621C130.769 82.3621 130.73 82.378 130.701 82.4064L32.9969 180.124C32.8922 180.226 32.7525 180.283 32.6078 180.283H0.216519C0.139881 180.283 0.101562 180.245 0.101562 180.168V75.8406C0.101563 75.7831 0.124388 75.728 0.165018 75.6874C0.205647 75.6467 0.260753 75.6239 0.318212 75.6239H78.0202C78.1735 75.6239 78.2501 75.5473 78.2501 75.394L78.2545 0ZM183.546 119.993C183.546 120.011 183.549 120.029 183.556 120.045C183.563 120.062 183.573 120.077 183.586 120.09L205.017 142.237C205.036 142.256 205.06 142.269 205.087 142.275C205.114 142.28 205.141 142.277 205.166 142.267C205.191 142.257 205.213 142.239 205.228 142.216C205.243 142.194 205.251 142.167 205.251 142.14V98.7435C205.251 98.7071 205.236 98.6723 205.211 98.6466C205.185 98.6209 205.15 98.6064 205.114 98.6064H183.683C183.647 98.6064 183.612 98.6209 183.586 98.6466C183.561 98.6723 183.546 98.7071 183.546 98.7435V119.993Z" fill="#1583FA"/>
<path d="M560.503 178.161C546.204 171.396 536.702 160.362 531.998 145.058C530.259 139.402 529.498 133.032 529.716 125.949C530.583 97.6737 551.116 75.4163 579.391 73.3427C595.485 72.1621 610.796 76.9196 622.407 87.9731C629.941 95.1447 635.525 105.19 637.572 115.656C641.048 133.43 637.365 151.443 625.453 165.202C617.778 174.071 606.768 180.054 595.423 182.163C583.812 184.316 571.194 183.219 560.503 178.161ZM582.866 173.39C603.001 174.08 619.838 161.789 625.307 142.233C630.273 124.481 625.657 103.205 610.474 91.6031C605 87.4234 599.127 84.7897 592.854 83.702C586.564 82.6144 580.538 82.6718 574.775 83.8745C550.577 88.9326 538.272 112.826 541.844 136.03C543.209 144.893 546.494 152.42 551.7 158.61C559.62 168.024 570.009 172.951 582.866 173.39Z" fill="#1583FA"/>
<path d="M350.185 132.196L350.189 180.288C350.189 180.447 350.11 180.526 349.95 180.526H339.79C339.628 180.526 339.547 180.447 339.547 180.288V75.9555C339.547 75.8671 339.593 75.8229 339.684 75.8229C350.561 75.7816 361.045 75.7831 371.138 75.8273C380.273 75.8715 390.093 78.0159 396.835 84.1174C402.707 89.4231 404.652 96.9086 404.462 104.783C404.285 112.162 402.026 119.016 396.481 123.835C389.88 129.578 380.591 131.754 371.722 131.838C365.007 131.9 357.944 131.904 350.534 131.851C350.301 131.851 350.185 131.966 350.185 132.196ZM368.321 122.08C379.406 121.965 391.706 118.582 392.821 105.557C393.118 102.088 392.591 98.9085 391.238 96.0199C387.188 87.3672 376.192 85.5721 367.649 85.603C362.143 85.6237 356.418 85.6222 350.472 85.5986C350.281 85.5957 350.185 85.69 350.185 85.8816L350.189 121.837C350.189 122.016 350.279 122.106 350.459 122.106C356.46 122.15 362.414 122.142 368.321 122.08Z" fill="#1583FA"/>
<path d="M474.36 130.799C474.349 130.799 474.337 130.803 474.328 130.809C474.318 130.815 474.31 130.824 474.305 130.834C474.299 130.845 474.297 130.856 474.297 130.868C474.298 130.879 474.301 130.891 474.307 130.9L504.351 180.394C504.359 180.407 504.364 180.422 504.364 180.438C504.365 180.454 504.361 180.47 504.353 180.484C504.344 180.498 504.333 180.51 504.318 180.518C504.304 180.526 504.288 180.531 504.271 180.531L491.652 180.526C491.461 180.526 491.316 180.444 491.219 180.279L462.798 132.072C462.722 131.942 462.607 131.878 462.453 131.878H445.223C445.073 131.878 444.998 131.953 444.998 132.103V180.248C444.998 180.434 444.905 180.526 444.719 180.526H434.523C434.37 180.526 434.293 180.448 434.293 180.292V76.0572C434.293 75.8951 434.375 75.814 434.537 75.814C445.732 75.7846 456.744 75.7875 467.573 75.8229C480.391 75.8627 494.999 80.1559 499.496 93.5395C500.637 96.9351 501.133 100.779 500.986 105.071C500.473 120.395 489.026 129.861 474.36 130.799ZM489.398 105.097C489.809 98.6772 487.342 92.8011 481.748 89.4541C476.947 86.5802 470.642 85.634 464.907 85.6252C458.101 85.6104 451.519 85.606 445.161 85.6119C445.117 85.6119 445.074 85.6296 445.042 85.6611C445.011 85.6926 444.993 85.7354 444.993 85.7799L444.998 121.903C444.998 122.047 445.07 122.12 445.214 122.12C451.387 122.128 457.74 122.125 464.275 122.111C475.479 122.08 488.518 118.812 489.398 105.097Z" fill="#1583FA"/>
<path d="M681.358 132.187V180.288C681.358 180.447 681.277 180.526 681.115 180.526H670.928C670.754 180.526 670.667 180.438 670.667 180.261V76.066C670.667 75.8979 670.749 75.8139 670.914 75.8139C681.001 75.7786 691.584 75.7859 702.665 75.8361C715.332 75.8891 729.945 80.4609 734.185 93.8224C735.446 97.7958 735.875 102.244 735.471 107.166C734.928 113.825 732.39 119.878 727.27 124.14C720.567 129.711 711.375 131.798 702.665 131.851C695.52 131.892 688.526 131.895 681.685 131.86C681.467 131.86 681.358 131.969 681.358 132.187ZM723.958 102.033C722.786 88.9323 710.437 85.6693 699.534 85.6295C693.742 85.6059 687.775 85.5985 681.632 85.6074C681.449 85.6103 681.358 85.7032 681.358 85.8859V122.013C681.358 122.041 681.368 122.068 681.388 122.088C681.407 122.108 681.432 122.119 681.459 122.119C687.369 122.134 693.225 122.13 699.026 122.106C704.827 122.08 710.579 121.217 715.721 118.512C721.96 115.231 724.568 108.851 723.958 102.033Z" fill="#1583FA"/>
<path d="M777.002 170.737H832.69C832.732 170.737 832.772 170.754 832.802 170.784C832.832 170.814 832.849 170.854 832.849 170.897V180.367C832.849 180.409 832.832 180.45 832.802 180.48C832.772 180.51 832.732 180.526 832.69 180.526H766.284C766.242 180.526 766.202 180.51 766.172 180.48C766.142 180.45 766.125 180.409 766.125 180.367V75.96C766.125 75.939 766.129 75.9183 766.137 75.899C766.145 75.8797 766.157 75.8622 766.172 75.8474C766.187 75.8326 766.204 75.8209 766.223 75.8129C766.243 75.8049 766.264 75.8008 766.284 75.8008L830.948 75.814C830.969 75.814 830.989 75.8182 831.009 75.8262C831.028 75.8342 831.045 75.8459 831.06 75.8607C831.075 75.8754 831.087 75.893 831.095 75.9123C831.103 75.9316 831.107 75.9523 831.107 75.9732L831.094 85.4527C831.094 85.4949 831.077 85.5354 831.047 85.5653C831.017 85.5951 830.977 85.6119 830.934 85.6119L777.002 85.6163C776.96 85.6163 776.919 85.6331 776.889 85.6629C776.86 85.6928 776.843 85.7333 776.843 85.7755V121.032C776.843 121.074 776.86 121.115 776.889 121.144C776.919 121.174 776.96 121.191 777.002 121.191H827.38C827.422 121.191 827.462 121.208 827.492 121.238C827.522 121.268 827.539 121.308 827.539 121.35V130.834C827.539 130.876 827.522 130.917 827.492 130.947C827.462 130.977 827.422 130.993 827.38 130.993H777.002C776.96 130.993 776.919 131.01 776.889 131.04C776.86 131.07 776.843 131.11 776.843 131.152V170.578C776.843 170.62 776.86 170.661 776.889 170.691C776.919 170.721 776.96 170.737 777.002 170.737Z" fill="#1583FA"/>
<path d="M904.511 130.812C904.498 130.813 904.485 130.818 904.474 130.825C904.462 130.833 904.453 130.843 904.447 130.855C904.441 130.867 904.438 130.88 904.438 130.893C904.439 130.907 904.442 130.92 904.449 130.931L934.462 180.367C934.471 180.383 934.476 180.401 934.476 180.419C934.476 180.438 934.471 180.456 934.462 180.472C934.454 180.488 934.441 180.501 934.425 180.511C934.409 180.52 934.392 180.526 934.373 180.526H921.768C921.585 180.526 921.448 180.448 921.357 180.292L892.931 132.077C892.852 131.944 892.732 131.878 892.573 131.878H875.325C875.181 131.878 875.109 131.95 875.109 132.094V180.292C875.109 180.448 875.032 180.526 874.879 180.526L864.546 180.531C864.508 180.531 864.472 180.516 864.446 180.489C864.419 180.463 864.404 180.427 864.404 180.389V75.9466C864.404 75.9173 864.416 75.8892 864.437 75.8685C864.457 75.8477 864.486 75.8361 864.515 75.8361C875.91 75.7595 887.197 75.7653 898.374 75.8538C910.856 75.951 925.769 80.6024 929.691 93.7915C931.843 101.034 931.692 107.859 929.24 114.267C925.234 124.724 915.436 129.998 904.511 130.812ZM916.471 93.5969C911.899 87.3981 903.012 85.687 895.646 85.6428C888.905 85.6015 882.146 85.5927 875.369 85.6163C875.195 85.6163 875.109 85.7047 875.109 85.8815V121.951C875.109 121.994 875.125 122.034 875.155 122.064C875.185 122.094 875.225 122.111 875.268 122.111C880.075 122.137 885.03 122.14 890.132 122.119C894.946 122.099 897.895 122.033 898.98 121.921C908.565 120.93 917.934 117.318 919.38 106.64C919.99 102.121 919.186 97.2755 916.471 93.5969Z" fill="#1583FA"/>
<path d="M999.147 180.526H988.761C988.721 180.526 988.683 180.511 988.655 180.482C988.627 180.454 988.611 180.416 988.611 180.376V85.7667C988.611 85.7469 988.607 85.7274 988.6 85.7091C988.592 85.6909 988.581 85.6743 988.567 85.6604C988.553 85.6464 988.536 85.6353 988.518 85.6278C988.5 85.6202 988.48 85.6163 988.461 85.6163L953.73 85.6075C953.711 85.6075 953.691 85.6036 953.673 85.596C953.655 85.5885 953.638 85.5774 953.624 85.5635C953.61 85.5495 953.599 85.5329 953.592 85.5147C953.584 85.4964 953.58 85.4769 953.58 85.4572V75.9511C953.58 75.9314 953.584 75.9118 953.592 75.8936C953.599 75.8753 953.61 75.8588 953.624 75.8448C953.638 75.8308 953.655 75.8198 953.673 75.8122C953.691 75.8047 953.711 75.8008 953.73 75.8008L1034.16 75.814C1034.18 75.814 1034.2 75.8179 1034.22 75.8255C1034.24 75.833 1034.25 75.8441 1034.27 75.8581C1034.28 75.872 1034.29 75.8886 1034.3 75.9068C1034.31 75.9251 1034.31 75.9446 1034.31 75.9644L1034.28 85.4527C1034.28 85.4926 1034.27 85.5308 1034.24 85.559C1034.21 85.5872 1034.17 85.6031 1034.13 85.6031L999.448 85.6207C999.408 85.6207 999.37 85.6366 999.342 85.6648C999.313 85.693 999.297 85.7312 999.297 85.7711V180.376C999.297 180.416 999.282 180.454 999.254 180.482C999.225 180.511 999.187 180.526 999.147 180.526Z" fill="#1583FA"/>
<path d="M1126.95 75.8052L1139.96 75.8096C1139.98 75.8101 1140.01 75.8176 1140.03 75.8312C1140.05 75.8449 1140.07 75.8642 1140.08 75.8872C1140.09 75.9102 1140.1 75.9361 1140.1 75.9621C1140.1 75.9881 1140.09 76.0133 1140.08 76.0351L1101.06 135.375C1101.05 135.399 1101.04 135.426 1101.04 135.455V180.381C1101.04 180.419 1101.02 180.456 1101 180.484C1100.97 180.511 1100.93 180.526 1100.89 180.526H1090.47C1090.43 180.526 1090.4 180.511 1090.37 180.484C1090.34 180.456 1090.33 180.419 1090.33 180.381L1090.33 135.455C1090.33 135.426 1090.32 135.399 1090.31 135.375L1051.29 76.0307C1051.27 76.0089 1051.27 75.9837 1051.27 75.9576C1051.26 75.9316 1051.27 75.9058 1051.28 75.8828C1051.29 75.8598 1051.31 75.8405 1051.33 75.8268C1051.36 75.8132 1051.38 75.8057 1051.41 75.8052H1064.42C1064.44 75.8049 1064.47 75.8109 1064.49 75.8225C1064.51 75.8341 1064.53 75.8509 1064.54 75.8715L1095.56 124.98C1095.57 125.001 1095.59 125.019 1095.61 125.031C1095.64 125.043 1095.66 125.049 1095.68 125.049C1095.71 125.049 1095.73 125.043 1095.75 125.031C1095.78 125.019 1095.79 125.001 1095.81 124.98L1126.82 75.8715C1126.84 75.8509 1126.86 75.8341 1126.88 75.8225C1126.9 75.8109 1126.92 75.8049 1126.95 75.8052Z" fill="#1583FA"/>
<path d="M1258.01 100.348C1257.93 100.098 1257.84 100.098 1257.76 100.348C1248.6 127.086 1239.46 153.761 1230.34 180.372C1230.3 180.475 1230.23 180.526 1230.13 180.526H1212.81C1212.71 180.526 1212.64 180.476 1212.61 180.376C1203.82 153.727 1195.04 127.067 1186.24 100.397C1186.22 100.329 1186.18 100.275 1186.12 100.234C1186.07 100.207 1186.03 100.211 1185.99 100.247C1185.95 100.279 1185.93 100.322 1185.93 100.375V180.297C1185.93 180.45 1185.85 180.526 1185.7 180.526H1163.06C1162.9 180.526 1162.82 180.447 1162.82 180.288V76.044C1162.82 75.8848 1162.9 75.8052 1163.06 75.8052H1197.52C1197.68 75.8052 1197.78 75.8804 1197.84 76.0307L1221.75 143.824C1221.91 144.281 1222.07 144.281 1222.23 143.824L1246.29 76.044C1246.35 75.8818 1246.46 75.8008 1246.63 75.8008L1280.89 75.8185C1281.05 75.8185 1281.13 75.8966 1281.13 76.0528L1281.12 180.279C1281.12 180.438 1281.04 180.518 1280.89 180.518L1258.32 180.526C1258.13 180.526 1258.03 180.431 1258.03 180.239C1258.03 153.755 1258.04 127.279 1258.06 100.813C1258.06 100.595 1258.04 100.44 1258.01 100.348Z" fill="#1583FA"/>
<path d="M1332.29 116.628H1377.36C1377.4 116.628 1377.44 116.644 1377.47 116.672C1377.5 116.7 1377.51 116.739 1377.51 116.778V137.798C1377.51 137.838 1377.5 137.876 1377.47 137.904C1377.44 137.932 1377.4 137.948 1377.36 137.948H1332.28C1332.24 137.948 1332.2 137.964 1332.18 137.992C1332.15 138.02 1332.13 138.059 1332.13 138.099L1332.14 159.096C1332.14 159.136 1332.16 159.174 1332.19 159.202C1332.21 159.23 1332.25 159.246 1332.29 159.246H1382.67C1382.71 159.246 1382.75 159.262 1382.78 159.29C1382.81 159.318 1382.82 159.357 1382.82 159.396V180.376C1382.82 180.416 1382.81 180.454 1382.78 180.482C1382.75 180.511 1382.71 180.526 1382.67 180.526H1309.2C1309.16 180.526 1309.12 180.511 1309.09 180.482C1309.06 180.454 1309.05 180.416 1309.05 180.376V75.9555C1309.05 75.9156 1309.06 75.8774 1309.09 75.8492C1309.12 75.821 1309.16 75.8052 1309.2 75.8052L1380.01 75.814C1380.03 75.814 1380.05 75.8179 1380.07 75.8255C1380.08 75.833 1380.1 75.8441 1380.11 75.858C1380.13 75.872 1380.14 75.8886 1380.15 75.9068C1380.15 75.9251 1380.16 75.9446 1380.16 75.9643L1380.15 97.0014C1380.15 97.0413 1380.14 97.0796 1380.11 97.1077C1380.08 97.1359 1380.04 97.1518 1380 97.1518H1332.29C1332.25 97.1518 1332.21 97.1676 1332.18 97.1958C1332.15 97.224 1332.14 97.2622 1332.14 97.3021V116.478C1332.14 116.518 1332.15 116.556 1332.18 116.584C1332.21 116.612 1332.25 116.628 1332.29 116.628Z" fill="#1583FA"/>
<path d="M1432.55 159.246H1474.94C1474.99 159.246 1475.03 159.265 1475.07 159.298C1475.1 159.331 1475.12 159.376 1475.12 159.423L1475.11 180.35C1475.11 180.396 1475.09 180.441 1475.06 180.475C1475.03 180.508 1474.98 180.526 1474.94 180.526L1409.49 180.522C1409.44 180.522 1409.4 180.503 1409.36 180.47C1409.33 180.437 1409.31 180.392 1409.31 180.345V75.982C1409.31 75.9351 1409.33 75.8901 1409.36 75.857C1409.4 75.8238 1409.44 75.8052 1409.49 75.8052L1432.2 75.8184C1432.22 75.8184 1432.24 75.823 1432.27 75.8319C1432.29 75.8408 1432.31 75.8538 1432.32 75.8702C1432.34 75.8867 1432.35 75.9062 1432.36 75.9276C1432.37 75.9491 1432.38 75.9721 1432.38 75.9953V159.069C1432.38 159.116 1432.39 159.161 1432.43 159.194C1432.46 159.228 1432.51 159.246 1432.55 159.246Z" fill="#1583FA"/>
<path d="M1593.58 149.559C1589.21 159.15 1582.32 166.639 1572.91 172.024C1562.37 178.05 1550.3 180.571 1537.77 180.544C1526.41 180.517 1514.3 180.515 1501.45 180.535C1501.27 180.535 1501.18 180.447 1501.18 180.27V76.0615C1501.18 75.9053 1501.26 75.8272 1501.41 75.8272C1517.7 75.7771 1529.84 75.7845 1537.84 75.8493C1545.18 75.9112 1552.48 76.8412 1559.74 78.6392C1580.93 83.8786 1595.2 98.8849 1597.4 121.001C1598.38 130.856 1597.59 140.756 1593.58 149.559ZM1573.52 132.399C1574.07 127.807 1573.87 123.548 1572.93 119.621C1570.14 107.94 1560.82 100.945 1549.37 98.3985C1545.88 97.6204 1542.66 97.2165 1539.71 97.1871C1534.66 97.134 1529.59 97.1252 1524.52 97.1605C1524.36 97.1605 1524.29 97.2386 1524.29 97.3949V158.976C1524.29 159.147 1524.37 159.234 1524.54 159.237C1530.35 159.299 1535.46 159.252 1539.87 159.096C1557.17 158.481 1571.27 151.296 1573.52 132.399Z" fill="#1583FA"/>
<path d="M164.547 194.136H97.0059C96.9155 194.136 96.8423 194.209 96.8423 194.299V255.713C96.8423 255.803 96.9155 255.876 97.0059 255.876H164.547C164.638 255.876 164.711 255.803 164.711 255.713V194.299C164.711 194.209 164.638 194.136 164.547 194.136Z" fill="#1583FA"/>
</svg>
