<svg width="1741" height="256" viewBox="0 0 1741 256" fill="none" xmlns="http://www.w3.org/2000/svg">
<path d="M102.861 70.3744V94.208H65.408V194.56H37.4528V94.208H0V70.3744H102.861Z" fill="white"/>
<path d="M157.205 68.9408C175.841 68.9408 190.118 72.2859 200.033 78.976C209.949 85.5467 214.907 95.8208 214.907 109.798C214.907 118.519 212.876 125.628 208.814 131.123C204.872 136.499 199.137 140.74 191.611 143.846C194.12 146.953 196.748 150.537 199.496 154.598C202.244 158.541 204.932 162.722 207.56 167.142C210.308 171.443 212.936 175.983 215.445 180.762C217.953 185.421 220.283 190.02 222.433 194.56H191.073C188.804 190.498 186.474 186.377 184.085 182.195C181.815 178.014 179.425 173.952 176.917 170.01C174.527 166.067 172.138 162.364 169.749 158.899C167.359 155.315 164.97 152.09 162.581 149.222H148.782V194.56H120.827V72.1664C126.92 70.9717 133.192 70.1355 139.643 69.6576C146.214 69.1797 152.068 68.9408 157.205 68.9408ZM158.817 92.7744C156.786 92.7744 154.935 92.8341 153.262 92.9536C151.709 93.0731 150.216 93.1925 148.782 93.312V127.002H156.667C167.18 127.002 174.706 125.687 179.246 123.059C183.786 120.431 186.056 115.951 186.056 109.619C186.056 103.526 183.726 99.2256 179.067 96.7168C174.527 94.0885 167.777 92.7744 158.817 92.7744Z" fill="white"/>
<path d="M240.352 194.56V70.3744H324.218V93.8496H268.307V118.221H317.946V141.158H268.307V171.085H328.339V194.56H240.352Z" fill="white"/>
<path d="M387.867 194.56C382.969 184.166 378.131 173.355 373.352 162.125C368.573 150.895 364.034 139.785 359.733 128.794C355.432 117.803 351.43 107.29 347.726 97.2544C344.142 87.2192 341.036 78.2592 338.408 70.3744H369.23C371.62 77.5424 374.188 85.3077 376.936 93.6704C379.803 101.914 382.67 110.157 385.538 118.4C388.524 126.643 391.391 134.528 394.139 142.054C396.887 149.581 399.455 156.092 401.845 161.587C404.115 156.092 406.623 149.581 409.371 142.054C412.238 134.528 415.106 126.643 417.973 118.4C420.959 110.157 423.827 101.914 426.574 93.6704C429.442 85.3077 432.07 77.5424 434.459 70.3744H464.206C461.459 78.2592 458.293 87.2192 454.709 97.2544C451.125 107.29 447.182 117.803 442.882 128.794C438.581 139.785 434.041 150.895 429.262 162.125C424.484 173.355 419.645 184.166 414.747 194.56H387.867Z" fill="white"/>
<path d="M480.277 70.3744H508.232V194.56H480.277V70.3744Z" fill="white"/>
<path d="M619.947 170.547V194.56H536.977V70.3744H564.932V170.547H619.947Z" fill="white"/>
<path d="M720.922 170.547V194.56H637.952V70.3744H665.907V170.547H720.922Z" fill="white"/>
<path d="M766.594 121.446C771.611 112.964 776.39 104.482 780.93 96C785.47 87.5179 789.651 78.976 793.474 70.3744H824.296C817.487 83.7547 810.438 96.7168 803.151 109.261C795.863 121.805 788.158 134.409 780.034 147.072V194.56H752.079V147.43C743.955 134.767 736.189 122.103 728.783 109.44C721.495 96.7765 714.447 83.7547 707.637 70.3744H740.072C743.895 78.976 748.017 87.5179 752.437 96C756.857 104.482 761.576 112.964 766.594 121.446Z" fill="white"/>
<path d="M904.851 194.56C903.537 190.259 902.043 185.839 900.371 181.299C898.818 176.759 897.265 172.22 895.712 167.68H847.328C845.775 172.22 844.162 176.759 842.489 181.299C840.936 185.839 839.503 190.259 838.188 194.56H809.158C813.817 181.18 818.237 168.815 822.419 157.466C826.6 146.116 830.662 135.424 834.604 125.389C838.666 115.354 842.609 105.856 846.432 96.896C850.374 87.8165 854.436 78.976 858.617 70.3744H885.318C889.38 78.976 893.382 87.8165 897.324 96.896C901.267 105.856 905.209 115.354 909.152 125.389C913.213 135.424 917.335 146.116 921.516 157.466C925.698 168.815 930.118 181.18 934.777 194.56H904.851ZM871.34 98.5088C870.743 100.301 869.847 102.75 868.652 105.856C867.458 108.962 866.084 112.546 864.531 116.608C862.978 120.67 861.245 125.15 859.334 130.048C857.542 134.946 855.69 140.083 853.779 145.459H889.081C887.17 140.083 885.318 134.946 883.526 130.048C881.734 125.15 880.002 120.67 878.329 116.608C876.776 112.546 875.402 108.962 874.208 105.856C873.013 102.75 872.057 100.301 871.34 98.5088Z" fill="white"/>
<path d="M1034.18 194.56C1026.18 180.343 1017.51 166.306 1008.2 152.448C998.878 138.59 988.962 125.508 978.449 113.203V194.56H950.852V70.3744H973.61C977.553 74.3168 981.913 79.1552 986.692 84.8896C991.471 90.624 996.309 96.7765 1001.21 103.347C1006.22 109.798 1011.18 116.548 1016.08 123.597C1020.98 130.526 1025.58 137.216 1029.88 143.667V70.3744H1057.66V194.56H1034.18Z" fill="white"/>
<path d="M1384.52 170.547V194.56H1301.55V70.3744H1329.51V170.547H1384.52Z" fill="white"/>
<path d="M1491.28 194.56C1489.96 190.259 1488.47 185.839 1486.8 181.299C1485.24 176.759 1483.69 172.22 1482.14 167.68H1433.75C1432.2 172.22 1430.59 176.759 1428.91 181.299C1427.36 185.839 1425.93 190.259 1424.61 194.56H1395.58C1400.24 181.18 1404.66 168.815 1408.84 157.466C1413.03 146.116 1417.09 135.424 1421.03 125.389C1425.09 115.354 1429.03 105.856 1432.86 96.896C1436.8 87.8165 1440.86 78.976 1445.04 70.3744H1471.74C1475.8 78.976 1479.81 87.8165 1483.75 96.896C1487.69 105.856 1491.63 115.354 1495.58 125.389C1499.64 135.424 1503.76 146.116 1507.94 157.466C1512.12 168.815 1516.54 181.18 1521.2 194.56H1491.28ZM1457.77 98.5088C1457.17 100.301 1456.27 102.75 1455.08 105.856C1453.88 108.962 1452.51 112.546 1450.96 116.608C1449.4 120.67 1447.67 125.15 1445.76 130.048C1443.97 134.946 1442.12 140.083 1440.2 145.459H1475.51C1473.59 140.083 1471.74 134.946 1469.95 130.048C1468.16 125.15 1466.43 120.67 1464.75 116.608C1463.2 112.546 1461.83 108.962 1460.63 105.856C1459.44 102.75 1458.48 100.301 1457.77 98.5088Z" fill="white"/>
<path d="M1578.67 196.173C1571.86 196.173 1565.05 195.934 1558.24 195.456C1551.55 195.098 1544.56 194.142 1537.28 192.589V72.1664C1543.01 71.0912 1549.28 70.3147 1556.09 69.8368C1562.9 69.2395 1569.23 68.9408 1575.09 68.9408C1582.97 68.9408 1590.2 69.5381 1596.77 70.7328C1603.46 71.808 1609.2 73.7195 1613.97 76.4672C1618.75 79.2149 1622.46 82.8587 1625.08 87.3984C1627.83 91.8187 1629.21 97.3141 1629.21 103.885C1629.21 113.801 1624.43 121.626 1614.87 127.36C1622.76 130.347 1628.13 134.409 1631 139.546C1633.87 144.683 1635.3 150.477 1635.3 156.928C1635.3 169.95 1630.52 179.746 1620.96 186.317C1611.53 192.887 1597.43 196.173 1578.67 196.173ZM1564.52 140.442V172.518C1566.55 172.757 1568.76 172.937 1571.15 173.056C1573.54 173.175 1576.16 173.235 1579.03 173.235C1587.39 173.235 1594.14 172.041 1599.28 169.651C1604.42 167.262 1606.99 162.842 1606.99 156.39C1606.99 150.656 1604.84 146.594 1600.53 144.205C1596.23 141.696 1590.08 140.442 1582.08 140.442H1564.52ZM1564.52 119.117H1578.13C1586.74 119.117 1592.89 118.042 1596.59 115.891C1600.3 113.621 1602.15 110.037 1602.15 105.139C1602.15 100.122 1600.24 96.5973 1596.41 94.5664C1592.59 92.5355 1586.98 91.52 1579.57 91.52C1577.18 91.52 1574.61 91.5797 1571.86 91.6992C1569.11 91.6992 1566.67 91.8187 1564.52 92.0576V119.117Z" fill="white"/>
<path d="M1691.55 173.235C1695.49 173.235 1698.71 172.937 1701.22 172.339C1703.85 171.622 1705.94 170.726 1707.49 169.651C1709.05 168.457 1710.12 167.083 1710.72 165.53C1711.32 163.977 1711.62 162.244 1711.62 160.333C1711.62 156.271 1709.7 152.926 1705.88 150.298C1702.06 147.55 1695.49 144.623 1686.17 141.517C1682.11 140.083 1678.05 138.47 1673.98 136.678C1669.92 134.767 1666.28 132.437 1663.05 129.69C1659.83 126.822 1657.2 123.418 1655.17 119.475C1653.14 115.413 1652.12 110.515 1652.12 104.781C1652.12 99.0464 1653.2 93.9093 1655.35 89.3696C1657.5 84.7104 1660.54 80.768 1664.49 77.5424C1668.43 74.3168 1673.21 71.8677 1678.82 70.1952C1684.44 68.4032 1690.77 67.5072 1697.82 67.5072C1706.18 67.5072 1713.41 68.4032 1719.5 70.1952C1725.59 71.9872 1730.61 73.9584 1734.55 76.1088L1726.49 98.1504C1723.03 96.3584 1719.14 94.8053 1714.84 93.4912C1710.66 92.0576 1705.58 91.3408 1699.61 91.3408C1692.92 91.3408 1688.08 92.2965 1685.09 94.208C1682.23 96 1680.79 98.8075 1680.79 102.63C1680.79 104.9 1681.33 106.812 1682.41 108.365C1683.48 109.918 1684.98 111.351 1686.89 112.666C1688.92 113.86 1691.19 114.995 1693.7 116.07C1696.32 117.026 1699.19 118.042 1702.3 119.117C1708.75 121.506 1714.36 123.895 1719.14 126.285C1723.92 128.555 1727.86 131.243 1730.97 134.349C1734.2 137.455 1736.58 141.099 1738.14 145.28C1739.69 149.461 1740.47 154.539 1740.47 160.512C1740.47 172.1 1736.41 181.12 1728.28 187.571C1720.16 193.903 1707.91 197.069 1691.55 197.069C1686.05 197.069 1681.09 196.71 1676.67 195.994C1672.25 195.396 1668.31 194.62 1664.84 193.664C1661.5 192.708 1658.57 191.693 1656.06 190.618C1653.67 189.542 1651.64 188.527 1649.97 187.571L1657.86 165.35C1661.56 167.381 1666.1 169.233 1671.48 170.906C1676.97 172.459 1683.66 173.235 1691.55 173.235Z" fill="white"/>
<path fill-rule="evenodd" clip-rule="evenodd" d="M1211.23 203.365H1147.57C1144.71 203.365 1142.03 201.979 1140.38 199.649C1139.45 198.339 1138.92 196.828 1138.8 195.289C1137.26 174.44 1127.09 158.391 1113.59 139.763C1101.54 125.034 1094.11 105.963 1094.11 85.4473C1094.11 38.256 1132.36 0 1179.56 0C1226.75 0 1265 38.256 1265 85.4473C1265 105.726 1257.3 125.139 1245.5 139.792C1232 158.419 1221.55 174.313 1220.01 195.162C1219.9 196.735 1219.38 198.282 1218.44 199.622C1216.79 201.968 1214.1 203.365 1211.23 203.365ZM1191.13 46.4388L1185.55 33.83C1185.28 33.2107 1184.67 32.8117 1183.99 32.8117H1175.12C1174.44 32.8117 1173.83 33.2107 1173.56 33.83L1167.98 46.4388C1167.8 46.8422 1167.47 47.1608 1167.07 47.3285L1161.7 49.5442C1161.28 49.7177 1160.81 49.7154 1160.39 49.5377L1147.93 44.2479C1147.3 43.979 1146.56 44.1191 1146.07 44.6033L1139.51 51.0714C1139.02 51.5584 1138.86 52.2976 1139.12 52.943L1144.23 65.6373C1144.4 66.0636 1144.39 66.5413 1144.21 66.9634L1142.05 72.0025C1141.87 72.4224 1141.53 72.7525 1141.1 72.9196L1129.37 77.5551C1128.72 77.8131 1128.29 78.4475 1128.29 79.1539V89.0063C1128.29 89.7127 1128.72 90.3471 1129.37 90.6051L1141.1 95.2406C1141.53 95.4077 1141.87 95.7379 1142.05 96.1578L1144.21 101.197C1144.39 101.619 1144.4 102.097 1144.23 102.523L1139.12 115.217C1138.86 115.863 1139.02 116.602 1139.51 117.089L1146.07 123.557C1146.56 124.041 1147.3 124.181 1147.93 123.912L1160.39 118.622C1160.81 118.445 1161.28 118.442 1161.7 118.616L1167.07 120.832C1167.47 120.999 1167.8 121.318 1167.98 121.721L1173.56 134.33C1173.83 134.95 1174.44 135.348 1175.12 135.348H1183.99C1184.67 135.348 1185.28 134.95 1185.55 134.33L1191.13 121.721C1191.31 121.318 1191.64 120.999 1192.05 120.832L1197.41 118.616C1197.83 118.442 1198.3 118.445 1198.72 118.622L1211.18 123.912C1211.82 124.181 1212.55 124.041 1213.04 123.557L1219.6 117.089C1220.09 116.602 1220.25 115.863 1219.99 115.217L1214.88 102.523C1214.71 102.097 1214.72 101.619 1214.9 101.197L1217.06 96.1578C1217.24 95.7379 1217.58 95.4077 1218.01 95.2406L1229.74 90.6051C1230.39 90.3471 1230.82 89.7127 1230.82 89.0063V79.1539C1230.82 78.4475 1230.39 77.8131 1229.74 77.5551L1218.01 72.9196C1217.58 72.7525 1217.24 72.4224 1217.06 72.0025L1214.9 66.9634C1214.72 66.5413 1214.71 66.0636 1214.88 65.6373L1219.99 52.943C1220.25 52.2976 1220.09 51.5584 1219.6 51.0714L1213.04 44.6033C1212.55 44.1191 1211.82 43.979 1211.18 44.2479L1198.72 49.5377C1198.3 49.7154 1197.83 49.7177 1197.41 49.5442L1192.05 47.3285C1191.64 47.1608 1191.31 46.8422 1191.13 46.4388Z" fill="white"/>
<path d="M1195.11 84.0801C1195.11 92.5745 1188.22 99.4606 1179.73 99.4606C1171.23 99.4606 1164.35 92.5745 1164.35 84.0801C1164.35 75.5857 1171.23 68.6996 1179.73 68.6996C1188.22 68.6996 1195.11 75.5857 1195.11 84.0801Z" fill="white"/>
<path d="M1211.05 208.833C1214.03 208.833 1216.83 210.346 1218.5 212.808C1220.55 215.839 1220.55 219.87 1218.44 222.863C1216.79 225.21 1214.1 226.606 1211.23 226.606H1147.57C1144.71 226.606 1142.03 225.221 1140.38 222.89C1138.25 219.885 1138.24 215.823 1140.32 212.78C1141.99 210.333 1144.78 208.833 1147.74 208.833H1211.05Z" fill="white"/>
<path d="M1211.05 231.733C1214.03 231.733 1216.83 233.245 1218.5 235.708C1220.55 238.739 1220.55 242.77 1218.44 245.763C1216.79 248.11 1214.1 249.506 1211.23 249.506H1200.59C1200.52 249.75 1200.44 249.992 1200.36 250.231C1199.09 253.695 1195.8 256 1192.11 256H1166.66C1162.99 256 1159.7 253.705 1158.43 250.252C1158.34 250.006 1158.26 249.757 1158.19 249.506H1147.57C1144.71 249.506 1142.03 248.121 1140.38 245.79C1138.25 242.785 1138.24 238.723 1140.32 235.68C1141.99 233.233 1144.78 231.733 1147.74 231.733H1211.05Z" fill="white"/>
</svg>
