<svg width="1562" height="256" viewBox="0 0 1562 256" fill="none" xmlns="http://www.w3.org/2000/svg">
<rect width="31.5465" height="252.493" rx="15.7732" transform="matrix(0 -1 -1 0 1561.85 143.617)" fill="#1583FA"/>
<rect width="31.8469" height="154.502" rx="15.9234" transform="matrix(0 -1 -1 0 1463.86 87.7695)" fill="#1583FA"/>
<rect width="31.5465" height="71.8904" rx="15.7732" transform="matrix(0 -1 -1 0 1381.25 31.5464)" fill="#1583FA"/>
<rect x="1463.86" y="168.355" width="31.246" height="154.502" rx="15.623" transform="rotate(90 1463.86 168.355)" fill="#1583FA"/>
<rect x="1381.25" y="224.454" width="31.5465" height="71.8904" rx="15.7732" transform="rotate(90 1381.25 224.454)" fill="#1583FA"/>
<rect width="31.5465" height="252.493" rx="15.7732" transform="matrix(0 1 1 0 0.000244141 112.383)" fill="#1583FA"/>
<rect width="31.8469" height="154.502" rx="15.9234" transform="matrix(0 1 1 0 97.9915 168.23)" fill="#1583FA"/>
<rect width="31.5465" height="71.8904" rx="15.7732" transform="matrix(0 1 1 0 180.603 224.454)" fill="#1583FA"/>
<rect x="97.9915" y="87.6445" width="31.246" height="154.502" rx="15.623" transform="rotate(-90 97.9915 87.6445)" fill="#1583FA"/>
<rect x="180.603" y="31.5464" width="31.5465" height="71.8904" rx="15.7732" transform="rotate(-90 180.603 31.5464)" fill="#1583FA"/>
<path d="M375.111 200.131C371.216 200.131 367.969 199.266 365.372 197.535C362.92 195.661 360.9 192.921 359.313 189.315L302.826 62.5526C301.239 58.9473 300.806 55.7746 301.528 53.0346C302.249 50.2946 303.764 48.1314 306.072 46.545C308.381 44.9587 311.122 44.1655 314.297 44.1655C318.481 44.1655 321.583 45.1029 323.603 46.9777C325.767 48.7082 327.57 51.3762 329.013 54.9815L380.306 173.74H370.999L422.075 54.7651C423.662 51.304 425.538 48.7082 427.702 46.9777C429.866 45.1029 432.896 44.1655 436.792 44.1655C439.966 44.1655 442.563 44.9587 444.583 46.545C446.747 48.1314 448.118 50.2946 448.695 53.0346C449.272 55.7746 448.767 58.9473 447.18 62.5526L390.694 189.315C389.107 192.921 387.087 195.661 384.634 197.535C382.325 199.266 379.151 200.131 375.111 200.131Z" fill="#1583FA"/>
<path d="M483.516 198.401C478.754 198.401 475.075 197.175 472.478 194.723C470.025 192.127 468.799 188.45 468.799 183.691V60.6057C468.799 55.8467 470.025 52.2414 472.478 49.7898C475.075 47.194 478.754 45.8961 483.516 45.8961H560.778C564.386 45.8961 567.127 46.8335 569.003 48.7082C571.022 50.583 572.032 53.2509 572.032 56.712C572.032 60.3173 571.022 63.1295 569.003 65.1484C567.127 67.0232 564.386 67.9606 560.778 67.9606H495.419V109.926H556.017C559.768 109.926 562.582 110.864 564.458 112.739C566.333 114.613 567.271 117.353 567.271 120.959C567.271 124.564 566.333 127.304 564.458 129.179C562.582 131.053 559.768 131.991 556.017 131.991H495.419V176.336H560.778C564.386 176.336 567.127 177.274 569.003 179.148C571.022 181.023 572.032 183.763 572.032 187.368C572.032 190.974 571.022 193.714 569.003 195.589C567.127 197.463 564.386 198.401 560.778 198.401H483.516Z" fill="#1583FA"/>
<path d="M611.785 200.131C607.312 200.131 603.849 198.905 601.397 196.454C599.088 193.858 597.934 190.325 597.934 185.854V59.9568C597.934 55.342 599.16 51.8809 601.613 49.5735C604.066 47.1219 607.529 45.8961 612.001 45.8961H664.159C680.896 45.8961 693.809 49.934 702.899 58.0099C711.989 65.9416 716.534 77.1181 716.534 91.5393C716.534 100.913 714.441 108.989 710.257 115.767C706.217 122.545 700.302 127.737 692.511 131.342C684.719 134.947 675.269 136.75 664.159 136.75L666.107 133.505H673.249C679.165 133.505 684.287 134.947 688.615 137.831C693.088 140.716 696.983 145.258 700.302 151.46L716.534 181.528C718.265 184.556 719.059 187.513 718.914 190.397C718.77 193.281 717.688 195.661 715.668 197.535C713.648 199.266 710.69 200.131 706.795 200.131C702.899 200.131 699.725 199.338 697.272 197.752C694.819 196.021 692.655 193.425 690.779 189.964L668.921 149.729C666.323 144.826 663.221 141.581 659.614 139.995C656.152 138.264 651.679 137.399 646.196 137.399H625.636V185.854C625.636 190.325 624.482 193.858 622.173 196.454C619.865 198.905 616.402 200.131 611.785 200.131ZM625.636 116.849H659.398C669.353 116.849 676.856 114.83 681.906 110.792C687.1 106.609 689.697 100.408 689.697 92.1883C689.697 84.1124 687.1 78.0554 681.906 74.0175C676.856 69.8353 669.353 67.7443 659.398 67.7443H625.636V116.849Z" fill="#1583FA"/>
<path d="M761.019 198.401C756.257 198.401 752.578 197.175 749.981 194.723C747.528 192.127 746.302 188.45 746.302 183.691V60.6057C746.302 55.8467 747.528 52.2414 749.981 49.7898C752.578 47.194 756.257 45.8961 761.019 45.8961H812.96C823.637 45.8961 832.727 47.4824 840.229 50.6551C847.732 53.8278 853.431 58.3705 857.327 64.2832C861.367 70.1959 863.387 77.2623 863.387 85.4824C863.387 94.712 860.717 102.499 855.379 108.845C850.041 115.19 842.754 119.444 833.52 121.608V118.363C844.197 119.949 852.493 123.987 858.409 130.477C864.324 136.966 867.282 145.403 867.282 155.786C867.282 169.342 862.665 179.869 853.431 187.368C844.341 194.723 831.645 198.401 815.341 198.401H761.019ZM772.922 177.418H811.878C821.689 177.418 828.903 175.543 833.52 171.793C838.137 167.9 840.446 162.131 840.446 154.488C840.446 146.701 838.137 140.932 833.52 137.183C828.903 133.433 821.689 131.558 811.878 131.558H772.922V177.418ZM772.922 110.575H808.199C817.721 110.575 824.791 108.773 829.408 105.167C834.17 101.418 836.55 95.9378 836.55 88.7272C836.55 81.5165 834.17 76.1086 829.408 72.5033C824.791 68.7537 817.721 66.879 808.199 66.879H772.922V110.575Z" fill="#1583FA"/>
<path d="M895.762 200.131C892.299 200.131 889.486 199.338 887.322 197.752C885.302 196.165 884.075 194.074 883.642 191.478C883.21 188.738 883.715 185.71 885.157 182.393L942.293 55.8467C944.169 51.6646 946.405 48.7082 949.002 46.9777C951.743 45.1029 954.846 44.1655 958.308 44.1655C961.627 44.1655 964.585 45.1029 967.182 46.9777C969.923 48.7082 972.232 51.6646 974.107 55.8467L1031.46 182.393C1033.05 185.71 1033.62 188.738 1033.19 191.478C1032.76 194.219 1031.53 196.382 1029.51 197.968C1027.49 199.41 1024.82 200.131 1021.5 200.131C1017.46 200.131 1014.29 199.194 1011.98 197.319C1009.82 195.3 1007.87 192.272 1006.14 188.234L992.07 155.57L1003.76 163.141H912.427L924.113 155.57L910.262 188.234C908.387 192.416 906.439 195.444 904.419 197.319C902.399 199.194 899.513 200.131 895.762 200.131ZM957.875 75.9644L927.576 147.998L921.949 141.076H994.234L988.824 147.998L958.308 75.9644H957.875Z" fill="#1583FA"/>
<path d="M1069.36 198.401C1064.89 198.401 1061.43 197.175 1058.98 194.723C1056.52 192.127 1055.3 188.594 1055.3 184.124V59.3078C1055.3 54.693 1056.45 51.2319 1058.76 48.9245C1061.21 46.4729 1064.67 45.2471 1069.15 45.2471C1073.62 45.2471 1077.01 46.4729 1079.32 48.9245C1081.77 51.2319 1083 54.693 1083 59.3078V174.822H1145.76C1149.66 174.822 1152.61 175.831 1154.63 177.85C1156.8 179.869 1157.88 182.754 1157.88 186.503C1157.88 190.253 1156.8 193.209 1154.63 195.372C1152.61 197.391 1149.66 198.401 1145.76 198.401H1069.36Z" fill="#1583FA"/>
<path d="M1201.46 200.131C1196.99 200.131 1193.52 198.905 1191.07 196.454C1188.76 193.858 1187.61 190.253 1187.61 185.638V119.877L1193.45 136.534L1141.29 63.2016C1139.42 60.6058 1138.55 57.8657 1138.7 54.9815C1138.99 51.953 1140.21 49.4293 1142.38 47.4103C1144.54 45.2471 1147.57 44.1655 1151.47 44.1655C1154.35 44.1655 1156.95 44.8866 1159.26 46.3287C1161.71 47.7708 1164.02 50.0061 1166.18 53.0346L1204.92 107.98H1198.86L1237.82 53.0346C1240.13 49.8619 1242.36 47.6266 1244.53 46.3287C1246.69 44.8866 1249.36 44.1655 1252.54 44.1655C1256.29 44.1655 1259.17 45.175 1261.19 47.194C1263.36 49.0687 1264.44 51.4483 1264.44 54.3325C1264.58 57.2168 1263.57 60.2452 1261.41 63.4179L1209.68 136.534L1215.31 119.877V185.638C1215.31 195.3 1210.69 200.131 1201.46 200.131Z" fill="#1583FA"/>
</svg>
