<svg xmlns="http://www.w3.org/2000/svg" width="1809" height="200" fill="none" viewBox="0 0 1809 200">
  <path fill="#fff" d="M46.306 54.059c12.897 0 22.307 2.78 28.232 8.34 5.924 5.514 8.887 13.124 8.887 22.832 0 4.375-.661 8.567-1.983 12.578-1.321 3.964-3.486 7.496-6.494 10.595-2.962 3.099-6.927 5.56-11.894 7.383-4.968 1.777-11.098 2.666-18.39 2.666h-9.09V154H14.381V54.059h31.924Zm-1.094 17.363h-9.639v29.668h6.973c3.965 0 7.405-.524 10.322-1.572 2.917-1.049 5.172-2.69 6.768-4.922 1.595-2.233 2.392-5.105 2.392-8.614 0-4.921-1.367-8.567-4.101-10.937-2.735-2.415-6.973-3.623-12.715-3.623Zm91.801-17.363c9.069 0 16.543 1.093 22.422 3.28 5.924 2.188 10.322 5.492 13.193 9.913 2.871 4.42 4.307 10.003 4.307 16.748 0 4.557-.866 8.545-2.598 11.963-1.732 3.418-4.01 6.312-6.836 8.682a40.42 40.42 0 0 1-9.16 5.81L187.736 154H164.22l-23.857-38.35h-11.28V154h-21.191V54.059h29.121Zm-1.504 17.363h-6.426v27.002h6.836c7.018 0 12.031-1.162 15.039-3.487 3.054-2.37 4.58-5.833 4.58-10.39 0-4.74-1.64-8.112-4.922-10.117-3.235-2.006-8.271-3.008-15.107-3.008Zm161.118 32.471c0 7.701-.957 14.72-2.872 21.054-1.914 6.289-4.83 11.713-8.75 16.27-3.873 4.557-8.795 8.066-14.765 10.527-5.97 2.416-13.034 3.623-21.192 3.623-8.157 0-15.221-1.207-21.191-3.623-5.97-2.461-10.915-5.97-14.834-10.527-3.874-4.557-6.768-10.003-8.682-16.338-1.914-6.335-2.871-13.376-2.871-21.123 0-10.345 1.687-19.346 5.059-27.002 3.418-7.702 8.659-13.672 15.723-17.91 7.063-4.239 16.041-6.358 26.933-6.358 10.847 0 19.756 2.12 26.729 6.358 7.018 4.238 12.213 10.208 15.586 17.91 3.418 7.702 5.127 16.748 5.127 27.139Zm-72.94 0c0 6.972.866 12.988 2.598 18.046 1.777 5.013 4.534 8.887 8.271 11.622 3.737 2.688 8.568 4.033 14.492 4.033 6.016 0 10.892-1.345 14.629-4.033 3.737-2.735 6.449-6.609 8.135-11.622 1.732-5.058 2.598-11.074 2.598-18.046 0-10.482-1.96-18.73-5.879-24.746-3.919-6.016-10.368-9.024-19.346-9.024-5.97 0-10.846 1.367-14.629 4.102-3.737 2.688-6.494 6.562-8.271 11.62-1.732 5.014-2.598 11.03-2.598 18.048Zm182.172-.821c0 11.257-2.164 20.668-6.494 28.233-4.284 7.519-10.504 13.193-18.662 17.021-8.157 3.783-17.978 5.674-29.463 5.674h-28.301V54.059h31.377c10.482 0 19.574 1.868 27.276 5.605 7.702 3.691 13.672 9.183 17.91 16.475 4.238 7.246 6.357 16.224 6.357 26.933Zm-22.011.547c0-7.383-1.094-13.444-3.282-18.183-2.142-4.786-5.332-8.318-9.57-10.596-4.193-2.279-9.388-3.418-15.586-3.418h-11.279V136.5h9.092c10.345 0 18.024-2.757 23.037-8.271 5.058-5.515 7.588-13.718 7.588-24.61Zm129.672-49.56v64.668c0 6.881-1.527 13.102-4.58 18.662-3.008 5.514-7.588 9.889-13.74 13.125-6.107 3.235-13.809 4.853-23.106 4.853-13.216 0-23.288-3.372-30.215-10.117-6.927-6.745-10.39-15.677-10.39-26.797V54.059h21.123v61.181c0 8.249 1.686 14.037 5.058 17.364 3.373 3.326 8.363 4.99 14.971 4.99 4.648 0 8.408-.798 11.279-2.393 2.917-1.595 5.059-4.056 6.426-7.383 1.367-3.326 2.051-7.565 2.051-12.714V54.059h21.123Zm72.524 16.2c-4.056 0-7.656.798-10.801 2.393-3.099 1.55-5.719 3.806-7.861 6.768-2.097 2.962-3.692 6.54-4.786 10.732-1.093 4.193-1.64 8.91-1.64 14.151 0 7.064.866 13.102 2.598 18.115 1.777 4.967 4.511 8.773 8.203 11.416 3.691 2.598 8.453 3.896 14.287 3.896 4.056 0 8.112-.455 12.168-1.367 4.101-.911 8.545-2.21 13.33-3.896v17.773c-4.421 1.823-8.773 3.122-13.057 3.897-4.284.82-9.092 1.23-14.424 1.23-10.299 0-18.776-2.119-25.429-6.357-6.608-4.284-11.508-10.254-14.698-17.91-3.19-7.702-4.785-16.68-4.785-26.934 0-7.565 1.026-14.492 3.076-20.781 2.051-6.29 5.059-11.735 9.024-16.338 3.965-4.603 8.864-8.158 14.697-10.664 5.833-2.507 12.533-3.76 20.098-3.76 4.967 0 9.935.638 14.902 1.914a73.668 73.668 0 0 1 14.356 5.127l-6.836 17.227a113.132 113.132 0 0 0-11.28-4.649c-3.782-1.321-7.496-1.982-11.142-1.982ZM677.025 154h-21.192V71.695h-27.138V54.06h75.468v17.636h-27.138V154Zm331.845-99.941c12.9 0 22.31 2.78 28.23 8.34 5.93 5.514 8.89 13.124 8.89 22.832 0 4.375-.66 8.567-1.98 12.578-1.32 3.964-3.49 7.496-6.5 10.595-2.96 3.099-6.92 5.56-11.89 7.383-4.97 1.777-11.1 2.666-18.39 2.666h-9.091V154h-21.192V54.059h31.923Zm-1.09 17.363h-9.641v29.668h6.971c3.97 0 7.41-.524 10.32-1.572 2.92-1.049 5.18-2.69 6.77-4.922 1.6-2.233 2.39-5.105 2.39-8.614 0-4.921-1.36-8.567-4.1-10.937-2.73-2.415-6.97-3.623-12.71-3.623Zm153.39 32.471c0 7.701-.96 14.72-2.87 21.054-1.91 6.289-4.83 11.713-8.75 16.27-3.87 4.557-8.8 8.066-14.77 10.527-5.97 2.416-13.03 3.623-21.19 3.623-8.16 0-15.22-1.207-21.19-3.623-5.97-2.461-10.91-5.97-14.83-10.527-3.88-4.557-6.77-10.003-8.68-16.338-1.92-6.335-2.88-13.376-2.88-21.123 0-10.345 1.69-19.346 5.06-27.002 3.42-7.702 8.66-13.672 15.73-17.91 7.06-4.239 16.04-6.358 26.93-6.358 10.85 0 19.75 2.12 26.73 6.358 7.02 4.238 12.21 10.208 15.58 17.91 3.42 7.702 5.13 16.748 5.13 27.139Zm-72.94 0c0 6.972.87 12.988 2.6 18.046 1.78 5.013 4.53 8.887 8.27 11.622 3.74 2.688 8.57 4.033 14.49 4.033 6.02 0 10.89-1.345 14.63-4.033 3.74-2.735 6.45-6.609 8.14-11.622 1.73-5.058 2.59-11.074 2.59-18.046 0-10.482-1.96-18.73-5.88-24.746-3.91-6.016-10.36-9.024-19.34-9.024-5.97 0-10.85 1.367-14.63 4.102-3.74 2.688-6.49 6.562-8.27 11.62-1.73 5.014-2.6 11.03-2.6 18.048Zm128.37-49.834c9.07 0 16.55 1.093 22.43 3.28 5.92 2.188 10.32 5.492 13.19 9.913 2.87 4.42 4.31 10.003 4.31 16.748 0 4.557-.87 8.545-2.6 11.963-1.73 3.418-4.01 6.312-6.84 8.682a40.332 40.332 0 0 1-9.16 5.81l29.4 43.545h-23.52l-23.86-38.35h-11.28V154h-21.19V54.059h29.12Zm-1.5 17.363h-6.43v27.002h6.84c7.02 0 12.03-1.162 15.04-3.487 3.05-2.37 4.58-5.833 4.58-10.39 0-4.74-1.64-8.112-4.92-10.117-3.24-2.006-8.27-3.008-15.11-3.008ZM1324.06 154h-21.19V71.695h-27.14V54.06h75.47v17.636h-27.14V154Zm68.97 0h-20.85V54.059h57.28v17.363h-36.43v25.771h33.91v17.295h-33.91V154Zm152.3-50.107c0 7.701-.96 14.72-2.87 21.054-1.92 6.289-4.83 11.713-8.75 16.27-3.88 4.557-8.8 8.066-14.77 10.527-5.97 2.416-13.03 3.623-21.19 3.623-8.16 0-15.22-1.207-21.19-3.623-5.97-2.461-10.92-5.97-14.84-10.527-3.87-4.557-6.76-10.003-8.68-16.338-1.91-6.335-2.87-13.376-2.87-21.123 0-10.345 1.69-19.346 5.06-27.002 3.42-7.702 8.66-13.672 15.72-17.91 7.07-4.239 16.04-6.358 26.94-6.358 10.84 0 19.75 2.12 26.73 6.358 7.01 4.238 12.21 10.208 15.58 17.91 3.42 7.702 5.13 16.748 5.13 27.139Zm-72.94 0c0 6.972.86 12.988 2.6 18.046 1.77 5.013 4.53 8.887 8.27 11.622 3.73 2.688 8.57 4.033 14.49 4.033 6.02 0 10.89-1.345 14.63-4.033 3.74-2.735 6.45-6.609 8.13-11.622 1.74-5.058 2.6-11.074 2.6-18.046 0-10.482-1.96-18.73-5.88-24.746-3.92-6.016-10.37-9.024-19.34-9.024-5.97 0-10.85 1.367-14.63 4.102-3.74 2.688-6.5 6.562-8.27 11.62-1.74 5.014-2.6 11.03-2.6 18.048ZM1571.64 154V54.059h21.19V136.5h40.54V154h-61.73Zm84.76 0V54.059h21.19V154h-21.19Zm142.66-50.107c0 7.701-.96 14.72-2.87 21.054-1.91 6.289-4.83 11.713-8.75 16.27-3.87 4.557-8.79 8.066-14.76 10.527-5.98 2.416-13.04 3.623-21.2 3.623-8.15 0-15.22-1.207-21.19-3.623-5.97-2.461-10.91-5.97-14.83-10.527-3.88-4.557-6.77-10.003-8.68-16.338-1.92-6.335-2.87-13.376-2.87-21.123 0-10.345 1.68-19.346 5.05-27.002 3.42-7.702 8.66-13.672 15.73-17.91 7.06-4.239 16.04-6.358 26.93-6.358 10.85 0 19.76 2.12 26.73 6.358 7.02 4.238 12.21 10.208 15.58 17.91 3.42 7.702 5.13 16.748 5.13 27.139Zm-72.94 0c0 6.972.87 12.988 2.6 18.046 1.78 5.013 4.53 8.887 8.27 11.622 3.74 2.688 8.57 4.033 14.49 4.033 6.02 0 10.9-1.345 14.63-4.033 3.74-2.735 6.45-6.609 8.14-11.622 1.73-5.058 2.59-11.074 2.59-18.046 0-10.482-1.95-18.73-5.87-24.746-3.92-6.016-10.37-9.024-19.35-9.024-5.97 0-10.85 1.367-14.63 4.102-3.74 2.688-6.49 6.562-8.27 11.62-1.73 5.014-2.6 11.03-2.6 18.048Zm-926.076 83.54c-2.881 4.647-13.184 9.401-23.036 10.424 0 0-16.014 1.384-21.3.113-4.117-.99-5.902-2.429-7.564-4.152-1.663-1.723-2.807-2.972-3.825-7.208-1.272-5.287.113-21.301.113-21.301 1.023-9.851 5.777-20.154 10.424-23.035 4.647-2.882 7.371-3.336 16.725-1.844 7.191 1.146 14.938 7.281 18.358 10.447 3.42 3.165 10.803 12.64 11.949 19.83 1.492 9.355 1.037 12.079-1.844 16.726Zm75.599 5.966c-7.249-7.112-18.356-18.42-18.356-18.42s9.17-5.844 14.89-9.819c6.155-4.277 9.545-6.767 15.468-11.36 6.304-4.889 11.722-9.395 15.788-12.965 4.066-3.569 10.205-9.37 10.205-9.37s1.257 3.397 1.797 5.648c1.016 4.237 2.172 12.54 1.091 20.473-1.315 9.654-2.888 14.386-8.921 23.298-6.033 8.912-12.592 14.665-14.569 15.981-2.396 1.595-4.054 2.511-6.932 2.503-3.202-.009-5.022-1.209-7.573-3.145-1.256-.954-1.762-1.719-2.888-2.824ZM748.969 66.789c7.112 7.248 18.42 18.355 18.42 18.355s5.844-9.17 9.819-14.89c4.277-6.154 6.767-9.545 11.36-15.467 4.89-6.304 9.395-11.722 12.965-15.788 3.569-4.066 9.37-10.205 9.37-10.205s-3.397-1.258-5.648-1.797c-4.237-1.016-12.54-2.172-20.473-1.091-9.654 1.315-14.386 2.888-23.298 8.92-8.912 6.034-14.665 12.593-15.981 14.57-1.595 2.395-2.511 4.053-2.503 6.931.009 3.203 1.209 5.023 3.145 7.574.954 1.256 1.719 1.762 2.824 2.888Z"/>
  <path fill="#fff" fill-rule="evenodd" d="M776.226 89.255c4.133-8.827 24.855-36.339 33.239-45.737 8.384-9.4 19.088-20.204 29.073-26.524 9.984-6.321 24.651-11.724 30.623-13.428 5.973-1.703 17.452-3.179 22.816-3.448 5.363-.269 9.521-.173 24.794 1.3 13.561 1.307 18.231 5.697 18.76 6.195l.096.086c.824.726 4.848 4.271 6.128 18.86 1.342 15.285 1.402 19.443 1.087 24.804-.314 5.36-1.889 16.827-3.643 22.785-1.755 5.957-7.283 20.577-13.689 30.507-6.406 9.931-17.302 20.542-26.772 28.845-9.47 8.303-37.158 28.789-46.02 32.846-8.862 4.057-12.024 4.38-16.908 4.43-4.885.049-12.98-2.086-20.914-8.918-7.935-6.832-17.224-17.384-17.224-17.384-1.985-2.028-4.053-3.988-6.147-5.972h-.001c-3.741-3.546-7.563-7.168-11.134-11.388-6.764-7.993-8.83-16.106-8.739-20.99.092-4.883.442-8.042 4.575-16.87Zm103.781.236c15.951 0 28.882-12.93 28.882-28.882 0-15.95-12.931-28.88-28.882-28.88-15.951 0-28.881 12.93-28.881 28.88 0 15.951 12.93 28.882 28.881 28.882Z" clip-rule="evenodd"/>
</svg>
